<?xml version="1.0" encoding="UTF-8"?>
<!DOCTYPE svg PUBLIC "-//W3C//DTD SVG 1.1//EN" "http://www.w3.org/Graphics/SVG/1.1/DTD/svg11.dtd">
<!-- Creator: CorelDRAW 2019 (64-Bit) -->
<svg xmlns="http://www.w3.org/2000/svg" xml:space="preserve" width="8.5in" height="11in" version="1.1" style="shape-rendering:geometricPrecision; text-rendering:geometricPrecision; image-rendering:optimizeQuality; fill-rule:evenodd; clip-rule:evenodd"
viewBox="0 0 8500 11000"
 xmlns:xlink="http://www.w3.org/1999/xlink"
 xmlns:xodm="http://www.corel.com/coreldraw/odm/2003">
 <defs>
  <style type="text/css">
   <![CDATA[
    .fil0 {fill:#787878}
   ]]>
  </style>
 </defs>
 <g id="Layer_x0020_1">
  <metadata id="CorelCorpID_0Corel-Layer"/>
  <g id="_2637276949744">
   <g id="_2298841759616">
    <path class="fil0" d="M4619.21 5850.96l-75.68 0 0 -455.52 75.68 0c0.05,0 0.05,0 0.09,0 10.04,0 18.15,-8.11 18.15,-18.15 0,-8.07 -5.28,-15.13 -13.02,-17.43 -197.54,-59.06 -359.44,-239.6 -360.88,-241.27 -3.56,-3.75 -8.46,-5.86 -13.59,-5.86 -5.13,0 -10.08,2.11 -13.59,5.86 -1.59,1.77 -163.35,182.21 -360.83,241.27 -7.73,2.26 -13.02,9.37 -13.02,17.43 0,10.03 8.11,18.15 18.15,18.15 0.05,0 0.05,0 0.09,0l75.68 0 0 455.52 -75.68 0c-10.03,0 -18.15,8.12 -18.15,18.15 0,10.03 8.11,18.15 18.15,18.15l738.47 0c10.03,0 18.15,-8.12 18.15,-18.15 0,-10.03 -8.12,-18.15 -18.15,-18.15l0 0 -0.05 0zm-582.08 36.3l-44.37 0 0 -491.76 44.41 0 -0.05 491.76zm389.44 0l-353.15 0 0 -491.76 353.15 0 0 491.76zm80.66 0l-44.41 0 0 -491.76 44.37 0 0.05 491.76zm-530.19 -528.16c101.56,-51.19 194.13,-119.7 272.88,-201.81 78.84,82.11 171.37,150.67 272.92,201.86l-545.79 -0.05 -0.01 0z"/>
   </g>
  </g>
 </g>
</svg>
