<?xml version="1.0" encoding="UTF-8"?>
<!DOCTYPE svg PUBLIC "-//W3C//DTD SVG 1.1//EN" "http://www.w3.org/Graphics/SVG/1.1/DTD/svg11.dtd">
<!-- Creator: CorelDRAW 2019 (64-Bit) -->
<svg xmlns="http://www.w3.org/2000/svg" xml:space="preserve" width="0.292512in" height="0.22722in" version="1.1" style="shape-rendering:geometricPrecision; text-rendering:geometricPrecision; image-rendering:optimizeQuality; fill-rule:evenodd; clip-rule:evenodd"
viewBox="0 0 321.81 249.98"
 xmlns:xlink="http://www.w3.org/1999/xlink"
 xmlns:xodm="http://www.corel.com/coreldraw/odm/2003">
 <defs>
  <style type="text/css">
   <![CDATA[
    .fil0 {fill:#787878;fill-rule:nonzero}
   ]]>
  </style>
 </defs>
 <g id="Layer_x0020_1">
  <metadata id="CorelCorpID_0Corel-Layer"/>
  <g id="_2637115008368">
   <path class="fil0" d="M252.17 249.97l-182.49 0c-2.53,0 -4.6,-2.06 -4.6,-4.6 0,-0.65 0.13,-1.27 0.37,-1.81l38.29 -114.38c0.63,-1.91 2.43,-3.12 4.35,-3.12l0 -0.01 105.65 0c2.17,0 3.96,1.49 4.47,3.51l38.31 114.39c0.8,2.4 -0.49,5 -2.89,5.79 -0.49,0.16 -0.97,0.23 -1.46,0.23l0 0.01 0 -0.01zm1.33 -98.8c-2.05,1.2 -4.63,0.63 -6.01,-1.24 -1.02,0.32 -2.01,0.71 -2.96,1.15 -1.93,0.88 -3.77,2.02 -5.45,3.37 -1.98,1.59 -4.86,1.27 -6.44,-0.69 -1.59,-1.98 -1.27,-4.86 0.71,-6.46 2.26,-1.81 4.75,-3.34 7.4,-4.56 2.64,-1.21 5.41,-2.09 8.27,-2.61 1.15,-0.21 2.28,0.03 3.2,0.59 0.65,-0.62 1.25,-1.3 1.8,-2.02 0.83,-1.07 1.52,-2.24 2.08,-3.5 -1.17,-0.94 -2.27,-2.01 -3.29,-3.14 -4.67,-5.26 -7.58,-12.5 -7.58,-20.44 0,-7.94 2.89,-15.17 7.56,-20.44 4.8,-5.42 11.5,-8.77 18.88,-8.77 7.4,0 14.08,3.34 18.9,8.77 4.67,5.26 7.56,12.5 7.56,20.44 0,7.94 -2.89,15.17 -7.58,20.44 -1.02,1.15 -2.11,2.2 -3.29,3.14 0.56,1.24 1.27,2.42 2.08,3.5 0.55,0.71 1.15,1.39 1.78,2.01 0.94,-0.58 2.09,-0.81 3.26,-0.59 8.26,1.61 14.74,5.62 19.31,10.66 5.37,5.91 8.13,13.3 8.13,19.99l0 23.52c0,2.53 -2.06,4.6 -4.6,4.6l-43.41 0c-0.78,0 -1.52,-0.19 -2.17,-0.55 -0.65,0.36 -1.39,0.55 -2.17,0.55l-15.05 0c-2.53,0 -4.6,-2.06 -4.6,-4.6 0,-2.53 2.06,-4.6 4.6,-4.6l15.05 0c0.78,0 1.52,0.19 2.17,0.55 0.63,-0.36 1.39,-0.55 2.17,-0.55l38.81 0 0 -18.92c0,-4.56 -1.94,-9.64 -5.72,-13.8 -2.75,-3.04 -6.46,-5.56 -11.1,-7.02 -1.37,1.84 -3.95,2.4 -5.99,1.21 -3.05,-1.78 -5.69,-4.13 -7.78,-6.87 -1.1,-1.44 -2.06,-2.99 -2.85,-4.63 -2.39,0.78 -4.92,1.21 -7.55,1.21 -2.62,0 -5.15,-0.43 -7.53,-1.21 -0.8,1.64 -1.74,3.2 -2.85,4.63 -2.11,2.75 -4.75,5.12 -7.78,6.88l0.02 -0.01zm35.42 -39.53c0,-5.64 -2.01,-10.73 -5.23,-14.37 -3.1,-3.5 -7.35,-5.64 -12.03,-5.64 -4.67,0 -8.93,2.15 -12.03,5.64 -3.23,3.64 -5.23,8.73 -5.23,14.37 0,5.64 2.01,10.73 5.23,14.37 3.1,3.5 7.35,5.64 12.03,5.64 4.67,0 8.93,-2.15 12.03,-5.64 3.23,-3.64 5.23,-8.73 5.23,-14.37zm-214.58 38.29c-1.37,1.86 -3.95,2.42 -6,1.22 -3.05,-1.78 -5.69,-4.13 -7.78,-6.87 -1.1,-1.44 -2.05,-2.99 -2.85,-4.63 -2.39,0.78 -4.92,1.21 -7.55,1.21 -2.62,0 -5.15,-0.43 -7.53,-1.21 -0.8,1.64 -1.75,3.18 -2.85,4.63 -2.09,2.74 -4.73,5.08 -7.78,6.87 -2.04,1.2 -4.6,0.63 -5.99,-1.21 -4.63,1.46 -8.34,3.98 -11.1,7.02 -3.77,4.16 -5.72,9.26 -5.72,13.8l0 18.92 38.81 0c0.78,0 1.52,0.19 2.17,0.55 0.65,-0.36 1.39,-0.55 2.17,-0.55l15.05 0c2.53,0 4.6,2.06 4.6,4.6 0,2.53 -2.06,4.6 -4.6,4.6l-15.05 0c-0.78,0 -1.52,-0.19 -2.17,-0.55 -0.63,0.36 -1.37,0.55 -2.17,0.55l-43.41 0c-2.53,0 -4.6,-2.06 -4.6,-4.6l0 -23.52c0,-6.69 2.77,-14.06 8.13,-19.99 4.57,-5.04 11.05,-9.05 19.31,-10.66 1.17,-0.22 2.31,0.01 3.24,0.59 0.65,-0.62 1.25,-1.3 1.8,-2.01 0.83,-1.07 1.52,-2.24 2.08,-3.5 -1.18,-0.94 -2.27,-2.01 -3.29,-3.14 -4.67,-5.26 -7.58,-12.5 -7.58,-20.44 0,-7.94 2.89,-15.17 7.58,-20.44 4.8,-5.42 11.48,-8.77 18.88,-8.77 7.4,0 14.08,3.34 18.88,8.77 4.67,5.26 7.58,12.5 7.58,20.44 0,7.94 -2.89,15.17 -7.58,20.44 -1.02,1.15 -2.12,2.2 -3.29,3.14 0.56,1.24 1.25,2.42 2.08,3.5 0.55,0.71 1.15,1.39 1.8,2.02 0.93,-0.56 2.06,-0.81 3.21,-0.59 2.86,0.53 5.64,1.42 8.27,2.61 2.66,1.21 5.15,2.74 7.4,4.56 1.98,1.59 2.28,4.48 0.69,6.46 -1.59,1.98 -4.47,2.28 -6.44,0.69 -1.69,-1.36 -3.52,-2.49 -5.45,-3.37 -0.97,-0.44 -1.96,-0.83 -2.98,-1.15l0 0.01zm-6.9 -38.29c0,-5.64 -2.01,-10.73 -5.23,-14.37 -3.1,-3.5 -7.35,-5.64 -12.03,-5.64 -4.67,0 -8.93,2.15 -12.03,5.64 -3.24,3.64 -5.23,8.73 -5.23,14.37 0,5.64 2.01,10.73 5.23,14.37 3.1,3.5 7.35,5.64 12.03,5.64 4.67,0 8.93,-2.15 12.03,-5.64 3.23,-3.64 5.23,-8.73 5.23,-14.37zm108.13 -45.37c-1.59,-1.31 -3.04,-2.8 -4.28,-4.42 -1.1,-1.44 -2.06,-2.99 -2.85,-4.63 -2.39,0.78 -4.92,1.21 -7.53,1.21 -2.62,0 -5.15,-0.43 -7.53,-1.21 -0.8,1.64 -1.75,3.2 -2.85,4.63 -1.24,1.62 -2.67,3.11 -4.26,4.42 5.26,11.32 11.44,28.52 14.65,37.75 3.21,-9.23 9.39,-26.43 14.65,-37.75l-0.02 0zm0.93 -13.47c0.56,1.24 1.27,2.42 2.08,3.5 0.55,0.71 1.15,1.39 1.78,2.01 0.94,-0.58 2.09,-0.81 3.26,-0.59 8.26,1.61 14.74,5.62 19.31,10.66 5.37,5.91 8.13,13.3 8.13,19.97l0 23.52c0,2.53 -2.06,4.6 -4.6,4.6l-43.4 0 0 -0.01c-0.49,0 -0.97,-0.07 -1.46,-0.23 -0.25,-0.09 -0.49,-0.19 -0.71,-0.31 -0.22,0.12 -0.45,0.22 -0.71,0.31 -0.49,0.16 -0.97,0.23 -1.46,0.23l0 0.01 -43.4 0c-2.53,0 -4.6,-2.06 -4.6,-4.6l0 -23.52c0,-6.69 2.77,-14.06 8.13,-19.97 4.57,-5.04 11.05,-9.05 19.31,-10.66 1.17,-0.22 2.31,0.01 3.26,0.59 0.65,-0.62 1.24,-1.3 1.78,-2.01 0.83,-1.07 1.52,-2.24 2.08,-3.5 -1.18,-0.94 -2.27,-2.01 -3.29,-3.15 -4.67,-5.26 -7.56,-12.48 -7.56,-20.43 0,-7.94 2.89,-15.18 7.56,-20.44 4.8,-5.42 11.5,-8.77 18.9,-8.77 7.4,0 14.08,3.34 18.88,8.77 4.67,5.26 7.58,12.5 7.58,20.44 0,7.94 -2.89,15.17 -7.58,20.43 -1.02,1.15 -2.12,2.2 -3.29,3.15l-0.01 0zm-7.02 54.46l32.38 0 0 -18.92c0,-4.56 -1.94,-9.64 -5.72,-13.8 -2.74,-3.02 -6.43,-5.53 -11.04,-7 -5.28,10.51 -12.22,29.89 -15.62,39.72l0 -0zm8.68 -78.05c0,-5.64 -2.01,-10.73 -5.23,-14.37 -3.1,-3.5 -7.35,-5.64 -12.03,-5.64 -4.67,0 -8.93,2.15 -12.03,5.64 -3.23,3.64 -5.23,8.73 -5.23,14.37 0,5.64 2.01,10.73 5.23,14.37 3.1,3.5 7.35,5.64 12.03,5.64 4.67,0 8.93,-2.15 12.03,-5.64 3.24,-3.64 5.23,-8.73 5.23,-14.37zm-58.24 78.05l32.38 0c-3.4,-9.83 -10.36,-29.21 -15.62,-39.72 -4.61,1.47 -8.3,3.98 -11.04,7 -3.77,4.16 -5.72,9.26 -5.72,13.8l0 18.92 0 0zm-43.91 133.51l169.74 0 -35.34 -105.55 -99.07 0 -35.34 105.55 0.01 0z"/>
  </g>
 </g>
</svg>
