<?xml version="1.0" encoding="UTF-8"?>
<!DOCTYPE svg PUBLIC "-//W3C//DTD SVG 1.1//EN" "http://www.w3.org/Graphics/SVG/1.1/DTD/svg11.dtd">
<!-- Creator: CorelDRAW 2019 (64-Bit) -->
<svg xmlns="http://www.w3.org/2000/svg" xml:space="preserve" width="7.83969in" height="8.40117in" version="1.1" style="shape-rendering:geometricPrecision; text-rendering:geometricPrecision; image-rendering:optimizeQuality; fill-rule:evenodd; clip-rule:evenodd"
viewBox="0 0 7839.69 8401.17"
 xmlns:xlink="http://www.w3.org/1999/xlink"
 xmlns:xodm="http://www.corel.com/coreldraw/odm/2003"
 enable-background="new 0 0 256 256">
 <defs>
  <style type="text/css">
   <![CDATA[
    .fil0 {fill:#787878}
   ]]>
  </style>
 </defs>
 <g id="Layer_x0020_1">
  <metadata id="CorelCorpID_0Corel-Layer"/>
  <g id="_2637263335328">
   <g>
    <g>
     <g>
      <path class="fil0" d="M5737.1 1.6c-521.29,19.92 -1019.34,156.06 -1573.83,428.32 -235.74,116.21 -278.9,159.37 -242.38,242.38 9.96,23.24 29.88,56.44 43.17,76.37 26.56,29.88 132.81,39.84 152.74,9.96 23.24,-36.52 434.96,-225.78 647.46,-295.51 371.87,-122.85 707.23,-175.98 1115.63,-175.98 431.64,0 840.04,73.05 1231.83,219.14 189.26,73.05 508.01,225.78 524.61,252.34 6.64,9.96 36.52,16.6 69.73,16.6 109.57,0 175.98,-142.77 102.93,-222.46 -43.17,-46.48 -554.49,-288.87 -750.39,-355.27 -431.65,-139.45 -886.53,-209.18 -1321.49,-195.9z"/>
      <path class="fil0" d="M5527.92 585.98c-195.9,23.24 -458.2,79.69 -664.06,149.41 -239.06,79.69 -604.3,258.98 -640.82,312.11 -39.84,56.44 -19.92,152.74 36.52,189.26 46.48,33.2 122.85,36.52 139.45,9.96 16.6,-29.88 298.83,-166.02 481.44,-232.42 89.65,-33.2 262.3,-83.01 375.2,-109.57 199.22,-46.48 232.42,-49.8 614.26,-49.8 441.6,0 594.33,23.24 929.69,132.81 146.09,49.8 504.69,212.5 571.09,262.3 49.8,36.52 159.37,-16.6 179.3,-86.33 29.88,-112.89 -83.01,-199.22 -454.88,-351.95 -498.05,-202.54 -1055.86,-282.22 -1567.19,-225.78z"/>
      <path class="fil0" d="M5604.28 1140.47c-265.63,43.17 -398.44,69.73 -571.09,129.49 -219.14,73.05 -468.17,189.26 -524.61,245.7 -76.37,76.37 -16.6,229.1 92.97,229.1 26.56,0 109.57,-29.88 182.62,-69.73 199.22,-99.61 345.31,-152.74 557.81,-205.86 172.66,-43.17 215.82,-49.8 531.25,-49.8 315.43,0 358.59,6.64 531.25,49.8 212.5,53.13 358.59,106.25 557.81,205.86 152.74,76.37 202.54,83.01 265.63,33.2 56.44,-46.48 63.09,-139.45 9.96,-189.26 -92.97,-92.97 -534.57,-268.94 -836.72,-332.03 -162.69,-39.85 -667.38,-66.41 -796.87,-46.49z"/>
      <path class="fil0" d="M5554.48 1714.88c-308.79,53.13 -647.46,175.98 -757.03,278.91 -86.33,79.69 -26.56,239.06 86.33,239.06 26.56,0 109.57,-29.88 182.62,-69.73 73.05,-36.52 199.22,-86.33 275.59,-112.89 441.6,-139.45 923.05,-99.61 1344.73,112.89 152.74,76.37 199.22,83.01 265.63,29.88 59.76,-46.48 63.09,-149.41 6.64,-205.86 -83.01,-76.37 -398.44,-202.54 -650.78,-258.98 -172.66,-33.2 -581.06,-43.16 -753.72,-13.28z"/>
      <path class="fil0" d="M5561.12 2282.66c-295.51,63.09 -554.49,205.86 -770.31,421.68 -750.39,750.39 -534.57,2012.11 421.68,2466.99 149.41,73.05 385.16,142.77 474.8,142.77l49.8 0 0 1401.17 0 1401.17 -421.68 0 -421.68 0 0 -166.02 0 -166.02 76.37 -43.17c92.97,-56.44 142.77,-109.57 179.3,-189.26 19.92,-53.13 26.56,-152.74 26.56,-554.49 0,-488.09 0,-488.09 -43.17,-577.74 -43.17,-83.01 -116.21,-152.74 -219.14,-199.22 -36.52,-16.6 -83.01,-119.53 -312.11,-697.26 -162.7,-408.4 -285.55,-693.94 -312.11,-720.51l-39.84 -43.17 -1444.33 -6.64 -1441.01 0 -46.48 39.84c-36.52,29.88 -116.21,205.86 -325.39,730.47l-275.59 687.3 -69.73 36.52c-92.97,46.48 -162.7,112.89 -202.54,195.9 -29.88,63.09 -33.2,119.53 -33.2,557.81 0,401.76 6.64,498.05 26.56,551.17 33.2,83.01 102.93,152.74 185.94,199.22l66.41 33.2 0 166.02 0 166.02 -305.47 6.64c-288.87,6.64 -308.79,6.64 -345.31,43.17 -53.13,53.13 -53.13,156.06 3.32,199.22 33.2,26.56 73.05,33.2 185.94,33.2 192.58,3.32 6112.69,3.32 6282.03,0 99.61,0 139.45,-6.64 169.33,-33.2 53.13,-43.17 56.44,-146.09 3.32,-199.22 -36.52,-36.52 -56.44,-39.84 -355.27,-43.17l-315.43 -6.64 0 -1397.85 0 -1397.85 49.81 -0c92.97,0 328.71,-69.73 484.76,-146.09 395.12,-189.26 700.59,-557.81 816.8,-986.13 53.13,-199.22 53.13,-571.09 3.32,-766.99 -76.37,-285.55 -212.5,-521.29 -415.04,-717.19 -361.91,-371.87 -889.84,-527.93 -1391.2,-421.67zm674.02 298.83c219.14,69.73 355.27,149.41 524.61,325.39 175.98,172.66 255.67,305.47 328.71,534.57 33.2,109.57 39.84,166.02 39.84,358.59 -3.32,195.9 -6.64,245.7 -46.48,361.91 -69.73,209.18 -162.7,358.59 -318.75,514.65 -156.06,156.06 -305.47,249.02 -514.65,318.75 -116.21,39.84 -166.02,46.48 -371.87,46.48 -205.86,0 -252.34,-6.64 -371.87,-46.48 -212.5,-73.05 -358.59,-162.7 -521.29,-328.71 -166.02,-166.02 -249.02,-305.47 -315.43,-527.93 -59.76,-189.25 -59.76,-511.32 0,-700.58 69.73,-229.1 149.41,-361.91 325.39,-534.57 199.22,-199.22 381.83,-302.15 657.42,-358.59 129.49,-23.24 448.24,-6.64 584.37,36.52zm-1915.82 3014.84l222.46 557.81 -1746.48 0 -1746.48 0 202.54 -504.69c109.57,-275.59 212.5,-527.93 225.78,-557.81l23.24 -53.13 1301.56 3.32 1301.56 3.32 215.81 551.17zm534.57 896.48l43.17 49.8 0 461.52c0,438.28 -3.32,464.84 -36.52,508.01l-36.52 46.48 -2028.71 0 -2028.71 0 -36.52 -46.48c-36.52,-43.17 -36.52,-69.73 -36.52,-504.69 0,-491.41 6.64,-517.97 92.97,-554.49 19.92,-6.64 933.01,-13.28 2028.71,-9.96l1995.5 3.32 43.16 46.48zm-3599.22 1480.86l0 139.45 -139.45 0 -139.45 0 0 -129.49c0,-73.05 6.64,-136.13 13.28,-139.45 6.64,-6.64 69.73,-13.28 139.45,-13.28l126.17 -0 0 142.78zm2802.35 3.32l0 139.45 -1261.72 0 -1261.72 0 0 -139.45 0 -139.45 1261.72 0 1261.72 -3.32 0 142.77 0 0zm557.81 0l0 139.45 -139.45 0 -139.45 0 0 -139.45 0 -139.45 139.45 0 139.45 0 0 139.45z"/>
      <path class="fil0" d="M5421.67 3092.81c-23.24,13.28 -49.8,43.17 -59.76,66.41 -9.96,26.56 -13.28,308.79 -9.96,783.59 9.96,730.46 9.96,740.43 46.48,776.95 53.13,56.44 139.45,53.13 192.58,-9.96 39.84,-43.17 39.84,-59.76 39.84,-272.26 0,-268.94 -26.56,-245.7 308.79,-245.7 212.5,3.32 235.74,0 335.35,-46.48 122.85,-56.44 232.42,-162.69 285.55,-285.54 53.13,-116.21 53.13,-328.71 0,-444.92 -56.44,-122.85 -166.02,-229.1 -292.19,-288.87 -106.25,-46.48 -116.21,-49.8 -458.2,-56.44 -258.98,3.32 -355.27,6.64 -388.47,23.24zm776.96 308.79c76.37,46.48 136.13,149.41 136.13,239.06 0,86.33 -56.44,189.26 -129.49,235.74 -53.13,33.2 -86.33,36.52 -315.43,36.52l-255.67 -0 0 -278.91 0 -278.91 249.02 6.64c225.78,-0 252.35,3.32 315.43,39.84z"/>
      <path class="fil0" d="M1191.59 6731.87c-83.01,19.92 -142.77,66.41 -182.62,146.09 -43.17,92.97 -43.17,156.06 0,245.7 53.13,109.57 109.57,142.77 245.7,142.77 136.13,0 189.26,-33.2 245.7,-142.77 43.17,-89.65 43.17,-152.74 -3.32,-245.7 -53.13,-112.89 -179.3,-172.66 -305.47,-146.09z"/>
      <path class="fil0" d="M4239.64 6731.87c-83.01,19.92 -142.77,66.41 -182.61,146.09 -43.17,92.97 -43.17,156.06 0,245.7 53.13,109.57 109.57,142.77 245.7,142.77 136.13,0 189.26,-33.2 245.7,-142.77 43.17,-89.65 43.17,-152.74 -3.32,-245.7 -53.13,-112.89 -179.3,-172.66 -305.47,-146.09z"/>
     </g>
    </g>
   </g>
  </g>
 </g>
</svg>
