<?xml version="1.0" encoding="UTF-8"?>
<!DOCTYPE svg PUBLIC "-//W3C//DTD SVG 1.1//EN" "http://www.w3.org/Graphics/SVG/1.1/DTD/svg11.dtd">
<!-- Creator: CorelDRAW 2019 (64-Bit) -->
<svg xmlns="http://www.w3.org/2000/svg" xml:space="preserve" width="0.308945in" height="0.190209in" version="1.1" style="shape-rendering:geometricPrecision; text-rendering:geometricPrecision; image-rendering:optimizeQuality; fill-rule:evenodd; clip-rule:evenodd"
viewBox="0 0 17.08 10.52"
 xmlns:xlink="http://www.w3.org/1999/xlink"
 xmlns:xodm="http://www.corel.com/coreldraw/odm/2003">
 <defs>
  <style type="text/css">
   <![CDATA[
    .fil0 {fill:#787878;fill-rule:nonzero}
   ]]>
  </style>
 </defs>
 <g id="Layer_x0020_1">
  <metadata id="CorelCorpID_0Corel-Layer"/>
  <g id="_2637263344960">
   <path class="fil0" d="M4.59 0.12l11.7 3.98 0.34 0.12 0 0 0.45 0.15 -0.23 0.68 -0.45 -0.15 -0.52 1.53 -0.18 0.21 -2.72 1.34 -0.13 0.07 -0.14 -0.05 -5.1 -1.73 -0.16 0.47c-0.11,0.32 -0.34,0.56 -0.62,0.7 -0.21,0.1 -0.44,0.15 -0.68,0.12l0 1.59 0 0.36 -0.36 0 -3.37 0c-0.04,0.26 -0.16,0.49 -0.34,0.67 -0.22,0.22 -0.53,0.36 -0.86,0.36l-0.86 0 -0.36 0 0 -0.36 0 0 0 -2.19 0 -0.36 0.36 0 0.86 0c0.34,0 0.64,0.14 0.86,0.36 0.21,0.21 0.34,0.49 0.36,0.8l2.99 0 0 -1.44c-0.31,-0.11 -0.54,-0.33 -0.68,-0.61 -0.14,-0.28 -0.17,-0.61 -0.06,-0.93l0.16 -0.47 -1.81 -0.62 -0.34 -0.12 0.12 -0.34 1.33 -3.9 0.12 -0.34 0.34 0.12 0 0 0 0zm0.87 2.01l8.3 2.89 -0.24 0.68 -8.3 -2.89 0.24 -0.68zm-4.74 6.2l0 1.47 0.5 0c0.14,0 0.26,-0.06 0.35,-0.15 0.09,-0.09 0.15,-0.21 0.15,-0.35l0 -0.47c0,-0.14 -0.06,-0.26 -0.15,-0.35 -0.09,-0.09 -0.21,-0.15 -0.35,-0.15l-0.5 0 0 0 0 -0zm6.2 -2.31l-1.39 -0.47 -0.16 0.47c-0.04,0.13 -0.03,0.27 0.03,0.38 0.06,0.11 0.16,0.21 0.29,0.25l0.45 0.15c0.13,0.04 0.27,0.03 0.38,-0.03 0.11,-0.06 0.21,-0.16 0.25,-0.29l0.16 -0.47zm-1.5 -1.27l2.07 0.7 0.34 0.12 0 0 4.96 1.69 2.45 -1.21 0.47 -1.39 -0.5 -0.17 0 0 -10.52 -3.58 -1.09 3.22 1.81 0.62 0 0z"/>
  </g>
 </g>
</svg>
