<?xml version="1.0" encoding="UTF-8"?>
<!DOCTYPE svg PUBLIC "-//W3C//DTD SVG 1.1//EN" "http://www.w3.org/Graphics/SVG/1.1/DTD/svg11.dtd">
<!-- Creator: CorelDRAW 2019 (64-Bit) -->
<svg xmlns="http://www.w3.org/2000/svg" xml:space="preserve" width="8.33335in" height="4.65433in" version="1.1" style="shape-rendering:geometricPrecision; text-rendering:geometricPrecision; image-rendering:optimizeQuality; fill-rule:evenodd; clip-rule:evenodd"
viewBox="0 0 8333.35 4654.33"
 xmlns:xlink="http://www.w3.org/1999/xlink"
 xmlns:xodm="http://www.corel.com/coreldraw/odm/2003">
 <defs>
  <style type="text/css">
   <![CDATA[
    .fil0 {fill:#787878}
   ]]>
  </style>
 </defs>
 <g id="Layer_x0020_1">
  <metadata id="CorelCorpID_0Corel-Layer"/>
  <g id="_2637276300816">
   <g>
    <g>
     <path class="fil0" d="M2171.91 2538.64l-1889.81 0 0 -2397.59c0,-77.9 -63.15,-141.05 -141.05,-141.05 -77.9,0 -141.05,63.17 -141.05,141.05l0 2538.62c0,77.9 63.15,141.05 141.05,141.05l42.32 0 0 1692.55c0,77.9 63.15,141.05 141.05,141.05 77.9,0 141.05,-63.15 141.05,-141.05l0 -1057.85 1382.06 0 0 1057.85c0,77.9 63.15,141.05 141.05,141.05 77.9,0 141.05,-63.15 141.05,-141.05l0 -1692.55 42.32 0c77.9,0 141.05,-63.15 141.05,-141.05 -0.03,-77.88 -63.18,-141.03 -141.08,-141.03zm-324.4 634.7l-1382.06 0 0 -352.62 1382.06 0 0 352.62z"/>
    </g>
   </g>
   <g>
    <g>
     <path class="fil0" d="M8192.28 0.02c-77.91,0 -141.05,63.15 -141.05,141.05l0 2397.57 -1890.01 0c-77.91,0 -141.05,63.15 -141.05,141.05 0,77.9 63.13,141.05 141.05,141.05l42.32 0 0 1692.55c0,77.9 63.13,141.05 141.05,141.05 77.91,0 141.05,-63.15 141.05,-141.05l0 -1057.85 1382.24 0 0 1057.85c0,77.9 63.13,141.05 141.05,141.05 77.91,0 141.05,-63.15 141.05,-141.05l0 -1692.55 42.32 0c77.91,0 141.05,-63.15 141.05,-141.05l0 -2538.64c-0.02,-77.88 -63.17,-141.03 -141.06,-141.03zm-324.4 3173.32l-1382.24 0 0 -352.62 1382.24 0 0 352.62z"/>
    </g>
   </g>
   <g>
    <g>
     <path class="fil0" d="M6586.13 1194.06l-256.95 0 -1532.42 0 -504 -1008.02c-23.91,-47.79 -72.74,-77.96 -126.16,-77.96 -53.43,0 -102.26,30.18 -126.16,77.96l-504.02 1008.02 -1532.42 0 -256.93 0c-77.9,0 -141.05,63.15 -141.05,141.05 0,77.9 63.15,141.05 141.05,141.05l115.88 0 0 423.11c0,77.9 63.15,141.05 141.05,141.05l474.84 0 0 2472.87c0,77.9 63.15,141.05 141.05,141.05 77.9,0 141.05,-63.15 141.05,-141.05l0 -2472.87 2045.15 0c77.91,0 141.05,-63.15 141.05,-141.05 0,-77.9 -63.13,-141.05 -141.05,-141.05l-2661.04 0 0 -282.06 4043.1 0 0 282.06 -874.31 0c-77.91,0 -141.05,63.15 -141.05,141.05 0,77.9 63.13,141.05 141.05,141.05l258.44 0 0 2472.87c0,77.9 63.13,141.05 141.05,141.05 77.91,0 141.05,-63.15 141.05,-141.05l0 -2472.87 474.82 0c77.91,0 141.05,-63.15 141.05,-141.05l0 -423.11 115.91 0c77.91,0 141.05,-63.15 141.05,-141.05 0,-77.9 -63.15,-141.05 -141.07,-141.05zm-2734.31 0.02l314.78 -629.57 314.8 629.57 -629.57 0z"/>
    </g>
   </g>
  </g>
 </g>
</svg>
