<?xml version="1.0" encoding="UTF-8"?>
<!DOCTYPE svg PUBLIC "-//W3C//DTD SVG 1.1//EN" "http://www.w3.org/Graphics/SVG/1.1/DTD/svg11.dtd">
<!-- Creator: CorelDRAW 2019 (64-Bit) -->
<svg xmlns="http://www.w3.org/2000/svg" xml:space="preserve" width="4.97549in" height="6.63565in" version="1.1" style="shape-rendering:geometricPrecision; text-rendering:geometricPrecision; image-rendering:optimizeQuality; fill-rule:evenodd; clip-rule:evenodd"
viewBox="0 0 4975.49 6635.65"
 xmlns:xlink="http://www.w3.org/1999/xlink"
 xmlns:xodm="http://www.corel.com/coreldraw/odm/2003">
 <defs>
  <style type="text/css">
   <![CDATA[
    .fil0 {fill:#787878}
   ]]>
  </style>
 </defs>
 <g id="Layer_x0020_1">
  <metadata id="CorelCorpID_0Corel-Layer"/>
  <g id="_2637263341440">
   <g>
    <path class="fil0" d="M4457.52 3733.69c26.56,0 53.13,-9.96 73.05,-29.88l134.47 -134.47 134.47 134.47c19.92,19.92 46.48,29.88 73.05,29.88 26.56,0 53.13,-9.96 73.05,-29.88 39.84,-39.84 39.84,-106.25 0,-146.09l-207.52 -207.52c-39.84,-39.84 -106.25,-39.84 -146.09,0l-207.52 207.52c-39.84,39.84 -39.84,106.25 0,146.09 19.92,19.92 46.48,29.88 73.05,29.88z"/>
    <path class="fil0" d="M4799.51 4178.61l-134.47 134.47 -134.47 -134.47c-39.84,-39.84 -106.25,-39.84 -146.09,0 -39.84,39.84 -39.84,106.25 0,146.09l207.52 207.52c19.92,19.92 46.48,29.88 73.05,29.88 26.56,0 53.13,-9.96 73.05,-29.88l207.52 -207.52c39.84,-39.84 39.84,-106.25 0,-146.09 -39.85,-39.84 -104.59,-39.84 -146.09,0z"/>
    <path class="fil0" d="M4250 6431.44l-102.93 0 0 -5085.06c0,-58.11 -46.48,-102.93 -102.93,-102.93l-3735.35 -0c-58.11,0 -102.93,46.48 -102.93,102.93l0 5083.4 -102.93 0c-58.11,0 -102.93,46.48 -102.93,102.93 0,56.44 46.48,102.93 102.93,102.93l4150.39 0c58.11,0 102.93,-46.48 102.93,-102.93 0,-56.44 -48.14,-101.27 -106.25,-101.27zm-3838.28 -4980.47l3527.83 0 0 4980.47 -102.93 0 0 -4772.95c0,-58.11 -46.48,-102.93 -102.93,-102.93l-3114.46 0c-58.11,0 -102.93,46.48 -102.93,102.93l0 4772.95 -104.59 0 0 -4980.47zm1867.68 310.45l1348.05 0 0 4668.36 -1348.05 0 0 -4668.36zm-207.52 4670.02l-1348.05 0 0 -4670.02 1348.05 0 0 4670.02z"/>
    <path class="fil0" d="M1344.72 1035.94l1660.16 0c58.11,0 102.93,-46.48 102.93,-102.93 0,-514.65 -418.36,-933.01 -933.01,-933.01 -514.65,0 -933.01,418.36 -933.01,933.01 0,56.44 46.48,102.93 102.93,102.93zm830.08 -830.07c365.24,0 669.04,270.61 718.85,622.56l-614.26 -0 0 -312.11c0,-58.11 -46.48,-102.93 -102.93,-102.93 -58.11,0 -102.93,46.48 -102.93,102.93l0 312.11 -614.26 0c48.15,-351.95 351.95,-622.56 715.53,-622.56z"/>
   </g>
  </g>
 </g>
</svg>
