<?xml version="1.0" encoding="UTF-8"?>
<!DOCTYPE svg PUBLIC "-//W3C//DTD SVG 1.1//EN" "http://www.w3.org/Graphics/SVG/1.1/DTD/svg11.dtd">
<!-- Creator: CorelDRAW 2019 (64-Bit) -->
<svg xmlns="http://www.w3.org/2000/svg" xml:space="preserve" width="8.49932in" height="8.49998in" version="1.1" style="shape-rendering:geometricPrecision; text-rendering:geometricPrecision; image-rendering:optimizeQuality; fill-rule:evenodd; clip-rule:evenodd"
viewBox="0 0 8499.31 8499.98"
 xmlns:xlink="http://www.w3.org/1999/xlink"
 xmlns:xodm="http://www.corel.com/coreldraw/odm/2003">
 <defs>
  <style type="text/css">
   <![CDATA[
    .fil0 {fill:#787878}
   ]]>
  </style>
 </defs>
 <g id="Layer_x0020_1">
  <metadata id="CorelCorpID_0Corel-Layer"/>
  <g id="_2637115570448">
   <g>
    <path class="fil0" d="M111.38 6722.78l372.18 -372.18c9.69,-9.69 20.06,-18.68 30.44,-27.67l-267.03 -267.03 0 0c-4.15,-4.15 -7.61,-8.3 -11.07,-12.45 -66.41,-72.64 -99.62,-164.65 -99.62,-255.96 0,-96.85 37.36,-193.7 111.38,-267.72l0 0 0 0 0 0 372.18 -372.18 0 0c9.69,-9.69 20.06,-18.68 30.44,-27.67l-267.03 -267.03 0.01 0c-74.02,-74.02 -110.68,-171.56 -110.68,-268.41 0,-96.85 37.36,-193.7 110.68,-267.72l0 0 0 0 0 0 372.18 -372.18c74.02,-74.02 171.56,-110.68 268.41,-110.68 97.54,0 194.39,36.67 268.41,110.68l3265.93 3265.93c74.02,74.02 110.68,171.56 110.68,268.41 0,97.54 -36.67,194.39 -110.68,268.41l-372.18 372.18 0 0c-4.15,4.15 -8.3,7.61 -12.45,11.07 -72.63,66.41 -164.64,99.62 -255.96,99.62 -96.85,0 -193.7,-37.36 -267.72,-110.68l0 0 0 0 0 0 -226.22 -226.22c-8.3,10.38 -17.3,20.75 -26.98,30.44l0 0 0 0 -372.18 372.18 -0 0c-4.15,4.15 -8.3,7.61 -12.45,11.07 -71.94,65.72 -163.95,98.93 -255.96,98.93 -97.54,0 -194.39,-36.67 -267.72,-110.68l0 0 0 0 0 0 -308.54 -308.54c-8.3,10.38 -17.3,20.75 -27.67,30.44l-372.18 372.18c-74.02,74.02 -171.56,110.68 -268.41,110.68 -96.85,0 -194.39,-36.67 -268.41,-110.68l-1131.76 -1128.99c-74.02,-74.02 -111.38,-171.56 -111.38,-268.41 0,-97.54 37.36,-194.39 111.38,-269.11l0 0zm4444.04 -6101.56l-372.18 372.18 0 0 -3.46 3.46c-5.54,7.61 -8.3,16.6 -8.3,25.59 0,10.38 4.15,21.44 11.76,29.06l0 0 3265.93 3265.93c7.61,7.61 17.99,11.76 29.06,11.76 10.38,0 21.44,-4.15 29.06,-11.76l372.18 -372.18 0 0 3.46 -3.46c5.54,-6.92 8.3,-16.6 8.3,-25.59 0,-11.07 -3.46,-21.44 -11.07,-29.06l0 0 0 0 -493.24 -493.24 0 0 -2239.33 -2237.94 -534.06 -534.06 0 0c-7.61,-7.61 -17.99,-11.76 -29.06,-11.76 -11.07,-0.7 -21.44,3.46 -29.06,11.07l0 0 0 0 0 0zm388.78 2651.62c92.7,-92.7 243.51,-92.7 336.9,0 92.7,92.7 92.7,243.51 0,336.9l-1632.61 1631.23c-92.7,92.7 -243.51,92.7 -336.9,0 -92.7,-92.7 -92.7,-243.51 0,-336.9l1632.61 -1631.23 0 0zm2018.64 -2922.11l-372.18 372.18 0 0c-8.3,8.3 -12.45,18.68 -12.45,29.06 0,8.99 2.77,17.3 8.3,24.91l4.15 4.15 0 0 0 0 1129 1129 0 0 3.46 3.46c6.92,5.54 15.91,7.61 24.91,7.61 10.38,0 21.44,-4.15 29.06,-11.76l372.18 -372.18 0 0c8.3,-8.3 12.45,-18.68 12.45,-29.06 0,-10.38 -4.15,-21.44 -11.76,-29.06l0 0 0 0 -1129 -1128.31 0 0c-7.61,-7.61 -17.99,-11.76 -29.06,-11.76 -11.07,0 -21.44,4.15 -29.06,11.76l0 0 0 0zm-611.54 132.13l372.18 -372.18 0 0c74.02,-74.02 171.56,-110.68 268.41,-110.68 96.85,0 194.39,36.67 268.41,110.68l0 0 1129 1129 0 -0 0 0 0 0c73.33,73.33 110.68,170.87 110,267.72 0,97.54 -36.67,195.08 -110,268.41l0 0 -372.18 372.18c-9.69,9.69 -20.06,18.68 -30.44,27.67l308.54 308.54c74.02,74.02 110.68,171.56 110.68,268.41 0,97.54 -37.36,194.39 -110.68,268.41l-372.18 372.18 0 0 0 0 0 0c-9.69,9.69 -20.06,18.68 -30.44,26.98l226.22 226.22 0 0 0 0 0 0c74.02,74.02 110.68,170.87 110.68,267.72 0,92.01 -33.2,184.02 -99.62,255.96 -3.46,4.15 -6.92,8.3 -11.07,12.45l0 0 -372.18 372.18c-74.02,74.02 -171.56,110.68 -268.41,110.68 -97.54,0 -194.39,-37.36 -268.41,-110.68l-3265.94 -3263.85 0 0c-74.02,-74.02 -111.38,-171.56 -111.38,-268.41 0,-92.01 33.2,-184.02 99.62,-255.96 3.46,-4.15 6.92,-8.3 11.07,-12.45l0 0 372.18 -372.18 0 0 0 0 0 0c74.02,-74.02 170.87,-110.68 267.72,-110.68 97.54,0 194.39,37.36 268.41,110.68l0 0 267.03 267.03c8.3,-10.38 17.3,-20.75 27.67,-30.44l372.18 -372.18c74.02,-74.02 171.56,-111.38 268.41,-111.38 97.54,0 194.39,37.36 268.41,111.38l267.03 267.03c10.38,-10.39 19.37,-20.76 29.06,-30.44l0 0 0 0zm-592.17 3.46l-372.18 372.18c-7.61,7.61 -11.76,17.99 -11.76,29.06 0,10.38 3.46,20.75 11.07,28.36l0.69 0.69 2238.62 2238.62 0 0c7.61,7.61 17.99,11.76 29.06,11.76 11.07,0 21.44,-3.46 29.06,-11.07l0 0 0 -0 372.18 -372.18c7.61,-7.61 11.76,-17.99 11.76,-29.06 0,-10.38 -4.15,-21.44 -11.76,-29.06l-574.87 -574.87 0 0 0 0 0 0 0 0 -1663.75 -1664.44c-7.61,-7.61 -18.68,-11.76 -29.06,-11.76 -11.07,0 -21.44,3.46 -29.06,11.76l0 0zm-4603.15 4661.26l0 0 2238.62 2238.62 0 0 0 0 0 0 0 0 0 0 0 0 0 0 491.86 491.86 0 0 0 0c7.61,7.61 18.68,11.07 29.06,11.07 8.99,0 17.99,-2.77 25.59,-8.3l3.46 -3.46 0 0 372.18 -372.18c7.61,-7.61 11.76,-17.99 11.76,-29.06 0,-10.38 -4.15,-21.44 -11.76,-29.06l-3265.23 -3263.85c-7.61,-7.61 -17.99,-11.76 -29.06,-11.76 -10.38,0 -21.44,4.15 -29.06,11.76l-372.18 372.18 0 0 0 0c-7.61,7.61 -11.07,18.68 -11.07,29.06 0,10.38 4.15,21.44 11.76,29.06l0 0 534.05 534.06 0 0zm2002.73 2482.14l-3.46 -3.46 -2239.31 -2239.32 0 0 -4.15 -4.15c-7.61,-5.54 -15.91,-8.3 -24.91,-8.3 -10.38,0 -20.75,4.15 -29.06,12.45l0 0 -372.18 372.18 0 0 0 0c-7.61,7.61 -11.07,18.68 -11.07,29.06 0,8.99 2.77,17.99 8.3,25.59l3.46 3.46 0 0 534.06 534.06 1129 1129 575.57 575.57 -0.01 0 0 0c8.3,8.3 18.68,11.76 29.06,11.76 8.99,0 17.99,-2.77 25.59,-8.3l3.46 -3.46 0 0 372.18 -372.18 0 0c7.61,-7.61 11.07,-18.68 11.07,-29.06 0,-9 -2.76,-17.99 -7.61,-24.91l0 0zm-2435.79 -1039.07l-372.18 372.18c-7.61,7.61 -11.76,17.99 -11.76,29.06 0,11.07 4.15,21.44 11.76,29.06l1129 1129c7.61,7.61 17.99,11.76 29.06,11.76 10.38,0 21.44,-4.15 29.06,-11.76l372.18 -372.18c7.61,-7.61 11.76,-17.99 11.76,-29.06 0,-11.07 -4.15,-21.44 -11.76,-29.06l-1129.69 -1129 -0.69 -0.69c-7.61,-7.61 -17.99,-11.07 -28.36,-11.07 -10.38,0 -20.76,4.15 -28.37,11.76l0 0z"/>
   </g>
  </g>
 </g>
</svg>
