<?xml version="1.0" encoding="UTF-8"?>
<!DOCTYPE svg PUBLIC "-//W3C//DTD SVG 1.1//EN" "http://www.w3.org/Graphics/SVG/1.1/DTD/svg11.dtd">
<!-- Creator: CorelDRAW 2019 (64-Bit) -->
<svg xmlns="http://www.w3.org/2000/svg" xml:space="preserve" width="7.20342in" height="7.83411in" version="1.1" style="shape-rendering:geometricPrecision; text-rendering:geometricPrecision; image-rendering:optimizeQuality; fill-rule:evenodd; clip-rule:evenodd"
viewBox="0 0 7203.42 7834.11"
 xmlns:xlink="http://www.w3.org/1999/xlink"
 xmlns:xodm="http://www.corel.com/coreldraw/odm/2003"
 enable-background="new 0 0 256 256">
 <defs>
  <style type="text/css">
   <![CDATA[
    .fil0 {fill:#787878}
   ]]>
  </style>
 </defs>
 <g id="Layer_x0020_1">
  <metadata id="CorelCorpID_0Corel-Layer"/>
  <g id="_2637268355184">
   <g>
    <g>
     <g>
      <path class="fil0" d="M3497.12 49.8c-46.48,46.48 -49.8,56.44 -49.8,312.11l0 265.63 -229.1 0c-664.06,0 -1195.31,212.5 -1630.27,647.46 -249.02,249.02 -431.64,547.85 -541.21,876.56 -102.93,318.75 -106.25,378.52 -106.25,2320.89l0 1796.29 -421.68 0c-421.68,0 -421.68,0 -471.48,49.8 -63.09,63.09 -63.09,152.74 0,215.82l46.48 49.8 3509.57 0.01 3506.25 0 46.48 -49.8c63.09,-63.09 63.09,-152.74 0,-215.82 -46.48,-49.8 -46.48,-49.8 -471.48,-49.8l-421.68 -0.01 0 -1809.57c0,-1540.62 -3.32,-1836.13 -29.88,-1982.22 -83.01,-478.13 -285.55,-869.92 -617.58,-1201.95 -431.64,-431.64 -966.21,-647.46 -1620.31,-647.46l-242.39 0 0 -265.63c0,-255.67 -3.32,-268.94 -49.8,-312.11 -29.88,-29.88 -69.72,-49.8 -106.25,-49.8 -36.52,0 -73.05,16.6 -99.61,49.8zm-49.8 1155.47c0,255.67 3.32,268.94 49.8,312.11 29.88,29.88 69.73,49.8 106.25,49.8 36.52,0 79.69,-16.6 106.25,-49.8 46.48,-46.48 49.8,-56.44 49.8,-315.43l0 -268.94 308.79 13.28c322.07,13.28 464.84,36.52 687.3,122.85 474.8,189.26 879.88,594.33 1065.82,1065.82 122.85,318.75 116.21,199.22 122.85,2254.49l6.64 1875.98 -2347.45 0 -2350.78 0 6.64 -1875.98c6.64,-1856.05 6.64,-1875.97 49.8,-2022.07 102.93,-358.59 255.67,-624.22 504.69,-869.92 381.83,-381.83 803.52,-551.17 1387.89,-554.49l249.02 -3.32 -0 265.62 -3.32 0z"/>
      <path class="fil0" d="M3420.75 3154.3c-112.89,29.88 -265.63,112.89 -358.59,199.22 -79.69,73.05 -222.46,318.75 -222.46,378.51 0,23.24 -79.69,26.56 -431.64,26.56l-431.64 0 -46.48 49.8 -49.8 46.48 0 999.41 0 999.41 49.8 46.48 46.48 49.8 1626.95 0 1626.95 0 46.48 -49.8 49.8 -46.48 0 -999.41 0 -999.41 -49.8 -46.48 -46.48 -49.8 -431.64 -0c-351.95,0 -431.64,-6.64 -431.64,-26.56 0,-13.28 -29.88,-89.65 -69.73,-162.69 -129.49,-258.98 -368.56,-415.04 -650.78,-428.32 -83,-3.32 -182.61,3.32 -225.78,13.28zm322.07 315.43c116.21,33.2 292.19,202.54 292.19,278.9 0,6.64 -192.58,9.96 -431.64,9.96 -239.06,0 -431.64,-6.64 -431.64,-16.6 0,-33.2 79.69,-139.45 146.09,-192.57 126.17,-99.61 272.27,-126.17 425,-79.69zm1271.68 1387.89l0 783.59 -1411.13 0 -1411.13 0 0 -783.59 0 -783.59 1411.13 0 1411.13 0 0 783.59z"/>
      <path class="fil0" d="M1558.06 6922.85c-106.25,39.84 -235.74,172.66 -275.59,278.91 -63.09,185.94 -26.56,338.67 116.21,481.44 199.22,199.22 448.24,199.22 647.46,0 199.22,-199.22 199.22,-448.24 0,-647.46 -139.46,-139.45 -305.47,-179.3 -488.09,-112.89zm272.26 332.03c99.61,96.29 29.88,265.63 -106.25,265.63 -36.52,0 -79.69,-16.6 -106.25,-49.8 -29.88,-29.88 -49.8,-69.73 -49.8,-106.25 0,-36.52 16.6,-79.69 49.8,-106.25 29.88,-29.88 69.73,-49.8 106.25,-49.8 36.53,-3.32 76.37,16.6 106.25,46.48z"/>
      <path class="fil0" d="M5326.61 6919.53c-96.29,29.88 -258.98,199.22 -288.87,298.83 -56.44,182.62 -16.6,332.03 122.85,468.17 136.13,139.45 285.55,179.3 468.17,122.85 106.25,-29.88 268.94,-192.58 302.15,-302.15 56.44,-182.62 16.6,-332.03 -122.85,-468.17 -139.46,-139.45 -298.83,-175.97 -481.45,-119.53zm265.62 335.35c99.61,96.29 29.88,265.63 -106.25,265.63 -79.69,0 -156.06,-76.37 -156.06,-156.06 0,-79.69 76.37,-156.06 156.06,-156.06 33.2,-3.32 76.37,16.6 106.25,46.48z"/>
     </g>
    </g>
   </g>
  </g>
 </g>
</svg>
