<?xml version="1.0" encoding="UTF-8"?>
<!DOCTYPE svg PUBLIC "-//W3C//DTD SVG 1.1//EN" "http://www.w3.org/Graphics/SVG/1.1/DTD/svg11.dtd">
<!-- Creator: CorelDRAW 2019 (64-Bit) -->
<svg xmlns="http://www.w3.org/2000/svg" xml:space="preserve" width="1.08442in" height="1.02904in" version="1.1" style="shape-rendering:geometricPrecision; text-rendering:geometricPrecision; image-rendering:optimizeQuality; fill-rule:evenodd; clip-rule:evenodd"
viewBox="0 0 1084.42 1029.04"
 xmlns:xlink="http://www.w3.org/1999/xlink"
 xmlns:xodm="http://www.corel.com/coreldraw/odm/2003">
 <defs>
  <style type="text/css">
   <![CDATA[
    .fil0 {fill:#787878;fill-rule:nonzero}
   ]]>
  </style>
 </defs>
 <g id="Layer_x0020_1">
  <metadata id="CorelCorpID_0Corel-Layer"/>
  <path class="fil0" d="M0.65 1010.31c0,10.31 8.35,18.72 18.67,18.72l1045.74 0c10.31,0 18.65,-8.42 18.65,-18.72l0 -621.58c0.93,-2.22 0.93,-4.67 0,-6.89l0 -146.04c0.39,-1.14 0.6,-2.28 0.71,-3.42 -0.11,-65.76 -48.44,-121.49 -113.56,-130.76l0 -82.94c0,-24.9 -37.38,-24.9 -37.38,0l0 82.9c-65.06,9.32 -113.44,65.04 -113.5,130.81 0.11,1.14 0.32,2.28 0.71,3.42l0 214.4c-51.82,-96.57 -150.01,-159.35 -259.39,-165.85l0 -82.36c0,-24.9 -37.38,-24.9 -37.38,0l0 82.42c-109.97,6.5 -208.56,69.87 -260.15,167.21l0 -62.89c0.93,-2.22 0.93,-4.67 0,-6.89l0 -146.04c0.33,-1.14 0.6,-2.28 0.71,-3.42 -0.11,-65.76 -48.44,-121.49 -113.56,-130.76l0 -82.94c0,-24.9 -37.37,-24.9 -37.37,0l0 82.9c-65.06,9.32 -113.44,65.04 -113.56,130.75 0.17,1.14 0.37,2.22 0.65,3.3l0 774.68zm225.75 -643.71l-188.37 0 0 -115.57 188.37 0 0 115.57zm-188.37 37.38l188.37 0 0 587.67 -188.37 0 0 -587.67zm782.61 587.67l-162.06 0 0 -153.86c0,-64.29 -52.14,-116.42 -116.37,-116.42 -64.29,0 -116.43,52.13 -116.43,116.42l0 153.86 -162 0 0 -374.07 556.81 0 0.06 374.07zm-199.43 0l-158.04 0 0 -153.86c-0.22,-21.15 7.97,-41.44 22.83,-56.47 14.86,-15.03 35.1,-23.48 56.21,-23.48 21.11,0 41.35,8.46 56.15,23.48 14.86,15.03 23.06,35.32 22.85,56.47l0 153.86zm236.75 -740.67l188.43 0 0 115.62 -188.43 0 0 -115.62zm94.25 -113.5c45.14,0.06 84.03,31.9 92.98,76.18l-186.04 0c9.01,-44.28 47.86,-76.12 93.06,-76.18zm-94.25 266.5l188.43 0 0 587.67 -188.43 0 0 -587.67zm-315.43 -83.17c146.17,0.21 267.21,113.54 277.08,259.38l-554.21 0c9.93,-145.83 130.97,-259.17 277.13,-259.38zm-410.32 -183.33c45.19,0.06 84.04,31.9 93,76.18l-185.99 0c9.02,-44.28 47.85,-76.12 92.99,-76.18zm0 0z"/>
 </g>
</svg>
