<?xml version="1.0" encoding="UTF-8"?>
<!DOCTYPE svg PUBLIC "-//W3C//DTD SVG 1.1//EN" "http://www.w3.org/Graphics/SVG/1.1/DTD/svg11.dtd">
<!-- Creator: CorelDRAW 2019 (64-Bit) -->
<svg xmlns="http://www.w3.org/2000/svg" xml:space="preserve" width="1.33333in" height="1.31997in" version="1.1" style="shape-rendering:geometricPrecision; text-rendering:geometricPrecision; image-rendering:optimizeQuality; fill-rule:evenodd; clip-rule:evenodd"
viewBox="0 0 1333.33 1319.97"
 xmlns:xlink="http://www.w3.org/1999/xlink"
 xmlns:xodm="http://www.corel.com/coreldraw/odm/2003"
 enable-background="new 0 0 128 128">
 <defs>
  <style type="text/css">
   <![CDATA[
    .fil0 {fill:#787878}
   ]]>
  </style>
 </defs>
 <g id="Layer_x0020_1">
  <metadata id="CorelCorpID_0Corel-Layer"/>
  <g id="_2676045546272">
   <g>
    <g>
     <rect class="fil0" x="492.48" y="433.95" width="41.67" height="89.37"/>
    </g>
    <g>
     <polygon class="fil0" points="913.82,261.96 872.15,261.96 872.15,41.67 486.58,41.67 486.58,0 913.82,0 "/>
    </g>
    <g>
     <path class="fil0" d="M671.94 1319.97l-410.79 0 0 -812.13 410.79 0 0 812.13zm-369.12 -41.67l327.46 0 0 -728.8 -327.46 0 0 728.8z"/>
    </g>
    <g>
     <g>
      <rect class="fil0" x="342.21" y="708.74" width="49.46" height="41.67"/>
     </g>
     <g>
      <rect class="fil0" x="441.02" y="708.74" width="49.48" height="41.67"/>
     </g>
     <g>
      <rect class="fil0" x="539.85" y="708.74" width="49.5" height="41.67"/>
     </g>
    </g>
    <g>
     <g>
      <rect class="fil0" x="342.21" y="803.16" width="49.46" height="41.67"/>
     </g>
     <g>
      <rect class="fil0" x="441.02" y="803.16" width="49.48" height="41.67"/>
     </g>
     <g>
      <rect class="fil0" x="539.85" y="803.16" width="49.5" height="41.67"/>
     </g>
    </g>
    <g>
     <g>
      <rect class="fil0" x="342.21" y="897.6" width="49.46" height="41.67"/>
     </g>
     <g>
      <rect class="fil0" x="441.02" y="897.6" width="49.48" height="41.67"/>
     </g>
     <g>
      <rect class="fil0" x="539.85" y="897.6" width="49.5" height="41.67"/>
     </g>
    </g>
    <g>
     <g>
      <rect class="fil0" x="342.21" y="992.03" width="49.46" height="41.67"/>
     </g>
     <g>
      <rect class="fil0" x="441.02" y="992.03" width="49.48" height="41.67"/>
     </g>
     <g>
      <rect class="fil0" x="539.85" y="992.03" width="49.5" height="41.67"/>
     </g>
    </g>
    <g>
     <g>
      <rect class="fil0" x="342.21" y="1086.46" width="49.46" height="41.67"/>
     </g>
     <g>
      <rect class="fil0" x="441.02" y="1086.46" width="49.48" height="41.67"/>
     </g>
     <g>
      <rect class="fil0" x="539.85" y="1086.46" width="49.5" height="41.67"/>
     </g>
    </g>
    <g>
     <g>
      <rect class="fil0" x="342.21" y="1180.89" width="49.46" height="41.67"/>
     </g>
     <g>
      <rect class="fil0" x="441.02" y="1180.89" width="49.48" height="41.67"/>
     </g>
     <g>
      <rect class="fil0" x="539.85" y="1180.89" width="49.5" height="41.67"/>
     </g>
    </g>
    <g>
     <g>
      <path class="fil0" d="M1208.74 1319.97l-384.07 0 0 -894.15 384.07 0 0 894.15zm-342.41 -41.67l300.74 0 0 -810.82 -300.74 0 0 810.82z"/>
     </g>
     <g>
      <path class="fil0" d="M1161.37 467.2l-289.33 0 0 -128.66 289.33 0 0 128.66zm-247.67 -41.67l206 0 0 -45.33 -206 0 0 45.33z"/>
     </g>
     <g>
      <rect class="fil0" x="916.81" y="527.17" width="199.81" height="41.67"/>
     </g>
     <g>
      <rect class="fil0" x="916.81" y="633.59" width="199.81" height="41.67"/>
     </g>
     <g>
      <rect class="fil0" x="916.81" y="740.03" width="199.81" height="41.67"/>
     </g>
     <g>
      <rect class="fil0" x="916.81" y="846.44" width="199.81" height="41.67"/>
     </g>
     <g>
      <rect class="fil0" x="916.81" y="952.86" width="199.81" height="41.67"/>
     </g>
     <g>
      <rect class="fil0" x="916.81" y="1059.3" width="199.81" height="41.67"/>
     </g>
     <g>
      <rect class="fil0" x="916.81" y="1165.72" width="199.81" height="41.67"/>
     </g>
     <g>
      <rect class="fil0" x="995.87" y="221.46" width="41.67" height="125.87"/>
     </g>
    </g>
    <g>
     <rect class="fil0" x="106.87" y="399.72" width="133.58" height="41.67"/>
    </g>
    <g>
     <rect class="fil0" y="399.72" width="54.26" height="41.67"/>
    </g>
    <g>
     <rect class="fil0" x="764.69" y="97.19" width="54.27" height="41.67"/>
    </g>
    <g>
     <rect class="fil0" x="134.57" y="1278.31" width="1198.76" height="41.67"/>
    </g>
    <g>
     <path class="fil0" d="M333.86 354.7c-50.16,0 -90.97,-41.13 -90.97,-91.67 0,-50.54 40.8,-91.66 90.97,-91.66 20.05,0 39.08,6.46 55.04,18.69l-25.34 33.07c-8.63,-6.6 -18.89,-10.09 -29.7,-10.09 -27.19,0 -49.3,22.42 -49.3,49.99 0,27.57 22.11,50 49.3,50 15.39,0 29.63,-7.1 39.06,-19.49l33.15 25.25c-17.4,22.82 -43.71,35.9 -72.21,35.9z"/>
    </g>
    <g>
     <path class="fil0" d="M485.82 371.55c-75.03,0 -136.06,-61.54 -136.06,-137.19 0,-75.65 61.04,-137.18 136.06,-137.18 59.25,0 111.29,38.18 129.5,94.99l-39.69 12.72c-12.66,-39.5 -48.75,-66.04 -89.81,-66.04 -52.05,0 -94.4,42.84 -94.4,95.51 0,52.67 42.34,95.52 94.4,95.52 26.76,0 52.37,-11.56 70.26,-31.73l31.17 27.65c-25.79,29.07 -62.76,45.75 -101.43,45.75z"/>
    </g>
    <g>
     <path class="fil0" d="M624.43 354.69c-50.16,0 -90.97,-41.13 -90.97,-91.67 0,-50.54 40.8,-91.66 90.97,-91.66 50.17,0 90.98,41.11 90.98,91.66 0,50.54 -40.81,91.67 -90.98,91.67zm0 -141.65c-27.19,0 -49.3,22.42 -49.3,49.99 0,27.57 22.11,50 49.3,50 27.2,0 49.32,-22.43 49.32,-50 0,-27.57 -22.12,-49.99 -49.32,-49.99z"/>
    </g>
    <g>
     <rect class="fil0" x="277.96" y="612.22" width="209.29" height="41.67"/>
    </g>
   </g>
  </g>
 </g>
</svg>
