<?xml version="1.0" encoding="UTF-8"?>
<!DOCTYPE svg PUBLIC "-//W3C//DTD SVG 1.1//EN" "http://www.w3.org/Graphics/SVG/1.1/DTD/svg11.dtd">
<!-- Creator: CorelDRAW 2019 (64-Bit) -->
<svg xmlns="http://www.w3.org/2000/svg" xml:space="preserve" width="0.276858in" height="0.239528in" version="1.1" style="shape-rendering:geometricPrecision; text-rendering:geometricPrecision; image-rendering:optimizeQuality; fill-rule:evenodd; clip-rule:evenodd"
viewBox="0 0 42.9 37.12"
 xmlns:xlink="http://www.w3.org/1999/xlink"
 xmlns:xodm="http://www.corel.com/coreldraw/odm/2003">
 <defs>
  <style type="text/css">
   <![CDATA[
    .fil0 {fill:#787878}
   ]]>
  </style>
 </defs>
 <g id="Layer_x0020_1">
  <metadata id="CorelCorpID_0Corel-Layer"/>
  <g id="_2676040963296">
   <g id="_2334328471920">
    <g>
     <g>
      <path class="fil0" d="M21.51 4.38c-9.03,0 -16.37,7.34 -16.37,16.37 0,9.03 7.34,16.37 16.37,16.37 9.03,0 16.37,-7.34 16.37,-16.37 0,-9.03 -7.34,-16.37 -16.37,-16.37zm0 31.46c-8.32,0 -15.09,-6.77 -15.09,-15.09 0,-8.32 6.77,-15.09 15.09,-15.09 8.32,0 15.09,6.77 15.09,15.09 0,8.32 -6.77,15.09 -15.09,15.09z"/>
     </g>
    </g>
    <g>
     <g>
      <path class="fil0" d="M21.51 10.18c-5.83,0 -10.57,4.74 -10.57,10.57 0,0.94 0.12,1.88 0.37,2.77l1.23 -0.33c-0.21,-0.79 -0.32,-1.61 -0.32,-2.44 0,-5.13 4.17,-9.3 9.3,-9.3 1.49,0 2.92,0.34 4.24,1.02l0.58 -1.13c-1.5,-0.77 -3.12,-1.16 -4.82,-1.16l0 0z"/>
     </g>
    </g>
    <g>
     <g>
      <path class="fil0" d="M13.13 24.8l-1.15 0.56c0.67,1.38 1.65,2.63 2.85,3.6l0.8 -0.99c-1.05,-0.86 -1.92,-1.95 -2.5,-3.17z"/>
     </g>
    </g>
    <g>
     <g>
      <path class="fil0" d="M27.96 12.37l-0.78 1.01c2.31,1.78 3.63,4.46 3.63,7.37 0,5.13 -4.17,9.3 -9.3,9.3 -1.82,0 -3.59,-0.53 -5.11,-1.53l-0.7 1.06c1.73,1.14 3.74,1.74 5.81,1.74 5.83,0 10.57,-4.74 10.57,-10.57 0,-3.31 -1.5,-6.36 -4.13,-8.38l0 -0z"/>
     </g>
    </g>
    <g>
     <g>
      <path class="fil0" d="M5.36 1.14l0 7.38 -1.41 0 0 -7.38 -1.27 0 0 7.38 -1.4 0 0 -7.38 -1.27 0 0 7.38 0 1.1 0 0.18 0 0c0.08,1.53 1.21,2.79 2.67,3.08l0 23.61 1.27 0 0 -23.61c1.47,-0.29 2.59,-1.55 2.67,-3.08l0 0 0 -0.18 0 -1.1 0 -7.38 -1.27 0 0 0zm-2.04 10.52c-1.07,0 -1.95,-0.82 -2.04,-1.87l4.07 0c-0.09,1.04 -0.97,1.87 -2.03,1.87z"/>
     </g>
    </g>
    <g>
     <g>
      <path class="fil0" d="M41.84 0.65c-1.88,1.15 -3.06,3.24 -3.06,5.44l0 13.94 2.84 0 0 16.44 1.27 0 0 -16.44 0 -7.74 0 -12.29 -1.06 0.65 -0 0zm-0.21 11.64l0 6.47 -1.57 0 0 -12.67c0,-1.39 0.58,-2.73 1.57,-3.68l0 9.88z"/>
     </g>
    </g>
   </g>
  </g>
 </g>
</svg>
