<?xml version="1.0" encoding="UTF-8"?>
<!DOCTYPE svg PUBLIC "-//W3C//DTD SVG 1.1//EN" "http://www.w3.org/Graphics/SVG/1.1/DTD/svg11.dtd">
<!-- Creator: CorelDRAW 2019 (64-Bit) -->
<svg xmlns="http://www.w3.org/2000/svg" xml:space="preserve" width="0.256654in" height="0.235449in" version="1.1" style="shape-rendering:geometricPrecision; text-rendering:geometricPrecision; image-rendering:optimizeQuality; fill-rule:evenodd; clip-rule:evenodd"
viewBox="0 0 33.38 30.62"
 xmlns:xlink="http://www.w3.org/1999/xlink"
 xmlns:xodm="http://www.corel.com/coreldraw/odm/2003">
 <defs>
  <style type="text/css">
   <![CDATA[
    .fil0 {fill:#787878}
   ]]>
  </style>
 </defs>
 <g id="Layer_x0020_1">
  <metadata id="CorelCorpID_0Corel-Layer"/>
  <g id="_2676038007680">
   <path class="fil0" d="M16.8 30.57l-0.01 -0.02 -0.1 -0.01 -0.1 0.01 -0.01 0.02 -0.06 -0.02 -0.03 0c-0.41,0.05 -0.84,0.07 -1.27,0.07 0,0 0,0 0,0 -3.75,0 -7.6,-1.72 -10.56,-4.71 -3.32,-3.35 -5.03,-7.81 -4.59,-11.94l0.05 -0.42 0.42 -0.05c0.41,-0.05 0.84,-0.07 1.27,-0.07 1.51,0 3.03,0.28 4.51,0.8 0.15,-1.95 0.67,-3.8 1.57,-5.42l0.2 -0.37 0.4 0.12c0.94,0.29 1.84,0.69 2.7,1.21 0.97,-1.77 2.23,-3.32 3.73,-4.54l1.77 -1.44 1.77 1.44c1.49,1.21 2.75,2.76 3.73,4.54 0.86,-0.51 1.77,-0.92 2.7,-1.21l0.4 -0.12 0.2 0.37c0.9,1.62 1.42,3.47 1.57,5.42 1.48,-0.53 3,-0.8 4.51,-0.8 0.43,0 0.85,0.02 1.27,0.07l0.42 0.05 0.04 0.42c0.44,4.13 -1.28,8.59 -4.59,11.94 -2.96,2.99 -6.81,4.71 -10.56,4.71 0,0 0,0 0,0 -0.43,0 -0.85,-0.02 -1.27,-0.07l-0.03 -0 -0.06 0.02 0 0zm12.84 -17.39c-0.02,-0.3 -0.05,-0.59 -0.09,-0.88l1.03 -0.14c0.04,0.31 0.08,0.64 0.1,0.95l-1.04 0.08 -0 -0zm-25.86 -0.49l-1.04 -0.12c0.04,-0.35 0.09,-0.71 0.16,-1.06l1.02 0.19c-0.06,0.32 -0.11,0.65 -0.14,0.98l0 0zm25.59 -1.37c-0.07,-0.32 -0.15,-0.65 -0.25,-0.96l1 -0.3c0.1,0.34 0.19,0.69 0.27,1.04l-1.02 0.22 0 0zm-25.23 -0.57l-1.01 -0.27c0.09,-0.34 0.2,-0.69 0.31,-1.02l0.98 0.34c-0.11,0.31 -0.21,0.63 -0.29,0.95l0 -0zm24.66 -1.32c-0.12,-0.31 -0.25,-0.61 -0.39,-0.91l0.94 -0.44c0.15,0.32 0.29,0.65 0.42,0.98l-0.97 0.37 0 0zm-24 -0.55l-0.95 -0.42c0.14,-0.33 0.3,-0.65 0.46,-0.97l0.92 0.49c-0.15,0.29 -0.3,0.59 -0.43,0.89zm23.16 -1.24c-0.16,-0.29 -0.34,-0.57 -0.52,-0.84l0.87 -0.58c0.2,0.3 0.39,0.6 0.56,0.91l-0.91 0.52 -0 -0zm-22.23 -0.51l-0.88 -0.56c0.19,-0.3 0.39,-0.6 0.61,-0.88l0.84 0.62c-0.2,0.26 -0.39,0.54 -0.56,0.82l0 0zm21.12 -1.13c-0.2,-0.26 -0.42,-0.51 -0.64,-0.75l0.77 -0.71c0.24,0.26 0.47,0.53 0.69,0.81l-0.82 0.65 0 0zm-19.94 -0.46l-0.79 -0.68c0.23,-0.27 0.48,-0.53 0.73,-0.78l0.73 0.74c-0.23,0.23 -0.46,0.48 -0.68,0.72l-0 0zm18.6 -1c-0.24,-0.22 -0.49,-0.44 -0.75,-0.65l0.65 -0.81c0.28,0.22 0.55,0.46 0.81,0.7l-0.71 0.76 0 0zm-17.19 -0.39l-0.68 -0.79c0.27,-0.23 0.55,-0.45 0.84,-0.66l0.61 0.84c-0.27,0.19 -0.53,0.4 -0.78,0.62l0 0zm15.65 -0.84c-0.27,-0.19 -0.55,-0.36 -0.84,-0.53l0.52 -0.9c0.31,0.18 0.61,0.37 0.91,0.57l-0.59 0.86 0 0zm-14.05 -0.32l-0.55 -0.89c0.3,-0.19 0.62,-0.36 0.93,-0.53l0.48 0.93c-0.29,0.15 -0.58,0.32 -0.86,0.49l0 0zm12.33 -0.67c-0.3,-0.14 -0.6,-0.27 -0.91,-0.39l0.38 -0.97c0.33,0.13 0.66,0.27 0.98,0.43l-0.45 0.94 0 -0zm-10.57 -0.24l-0.41 -0.96c0.33,-0.14 0.66,-0.27 1,-0.38l0.33 0.99c-0.31,0.11 -0.62,0.22 -0.93,0.35l0 0zm8.73 -0.47c-0.31,-0.09 -0.64,-0.18 -0.96,-0.25l0.22 -1.02c0.35,0.08 0.7,0.17 1.04,0.27l-0.3 1 0 0zm-6.85 -0.16l-0.25 -1.01c0.34,-0.09 0.7,-0.16 1.05,-0.22l0.17 1.03c-0.32,0.06 -0.65,0.12 -0.97,0.2zm4.92 -0.26c-0.32,-0.05 -0.66,-0.08 -0.98,-0.1l0.06 -1.04c0.36,0.02 0.71,0.06 1.07,0.11l-0.14 1.03 -0 0zm-2.97 -0.07l-0.1 -1.04c0.35,-0.03 0.71,-0.05 1.07,-0.06l0.02 1.04c-0.33,0 -0.66,0.02 -0.99,0.05l0 -0zm-3.43 9.27c1.85,1.31 3.44,3.11 4.62,5.27 1.18,-2.15 2.77,-3.96 4.62,-5.27 -0.91,-1.68 -2.1,-3.15 -3.51,-4.3l-1.11 -0.91 -1.11 0.91c-1.41,1.15 -2.6,2.61 -3.51,4.3l-0 0zm-2.87 5.27c0.28,-1.74 0.8,-3.4 1.51,-4.92 -0.68,-0.41 -1.39,-0.75 -2.13,-1.01 -0.75,1.49 -1.17,3.17 -1.26,4.94 0.64,0.28 1.27,0.61 1.87,0.98l0 0zm13.46 -4.92c0.72,1.52 1.23,3.18 1.52,4.91 0.61,-0.37 1.23,-0.7 1.87,-0.98 -0.09,-1.76 -0.52,-3.45 -1.26,-4.94 -0.73,0.26 -1.45,0.6 -2.13,1.01l-0 0zm0.56 5.55c-0.24,-1.76 -0.73,-3.44 -1.43,-4.97 -1.84,1.34 -3.41,3.23 -4.52,5.48 0.11,0.24 0.21,0.49 0.31,0.73 0.48,1.21 0.83,2.45 1.02,3.7 0.67,-1.09 1.48,-2.13 2.41,-3.07 0.69,-0.69 1.43,-1.32 2.2,-1.88l0 0zm-11.62 -4.97c-0.71,1.53 -1.19,3.21 -1.44,4.97 0.77,0.55 1.51,1.18 2.2,1.88 0.94,0.95 1.75,1.98 2.41,3.07 0.2,-1.25 0.54,-2.49 1.02,-3.7 0.1,-0.25 0.2,-0.49 0.31,-0.74 -1.1,-2.25 -2.67,-4.14 -4.52,-5.48l0 -0zm2.57 18.22c-2.89,-1.62 -5.3,-4.43 -6.68,-7.9 -0.82,-2.06 -1.23,-4.21 -1.22,-6.29 -1.46,-0.56 -2.97,-0.86 -4.47,-0.86 -0.25,0 -0.49,0.01 -0.73,0.02 -0.25,3.7 1.35,7.65 4.33,10.67 2.49,2.51 5.63,4.06 8.77,4.35zm1.48 -6.68c0.46,0.99 0.81,2.01 1.04,3.04 0.24,-1.06 0.6,-2.11 1.09,-3.13l-0.05 0c-0.1,-1.57 -0.45,-3.13 -1.03,-4.65 -0.6,1.55 -0.95,3.14 -1.04,4.74zm0.32 6.4c0.14,-3.61 -1.45,-7.43 -4.35,-10.36 -1.29,-1.3 -2.76,-2.35 -4.31,-3.09 0.05,1.8 0.42,3.66 1.14,5.45 1.5,3.75 4.27,6.68 7.51,8l0 0zm11.15 -13.9c0.01,2.07 -0.4,4.22 -1.22,6.29 -1.39,3.46 -3.8,6.27 -6.68,7.9 3.13,-0.29 6.28,-1.83 8.77,-4.35 2.98,-3.01 4.58,-6.97 4.33,-10.67 -0.24,-0.02 -0.49,-0.02 -0.73,-0.02 -1.49,0 -3.01,0.3 -4.47,0.86l0 0zm-1.05 0.45c-1.55,0.74 -3.02,1.79 -4.31,3.09 -2.9,2.93 -4.49,6.75 -4.35,10.36 3.25,-1.32 6.01,-4.25 7.51,-8 0.72,-1.79 1.1,-3.65 1.14,-5.45l0 -0z"/>
  </g>
 </g>
</svg>
