<?xml version="1.0" encoding="UTF-8"?>
<!DOCTYPE svg PUBLIC "-//W3C//DTD SVG 1.1//EN" "http://www.w3.org/Graphics/SVG/1.1/DTD/svg11.dtd">
<!-- Creator: CorelDRAW 2019 (64-Bit) -->
<svg xmlns="http://www.w3.org/2000/svg" xml:space="preserve" width="0.318693in" height="0.258319in" version="1.1" style="shape-rendering:geometricPrecision; text-rendering:geometricPrecision; image-rendering:optimizeQuality; fill-rule:evenodd; clip-rule:evenodd"
viewBox="0 0 54.32 44.03"
 xmlns:xlink="http://www.w3.org/1999/xlink"
 xmlns:xodm="http://www.corel.com/coreldraw/odm/2003">
 <defs>
  <style type="text/css">
   <![CDATA[
    .fil0 {fill:#787878}
   ]]>
  </style>
 </defs>
 <g id="Layer_x0020_1">
  <metadata id="CorelCorpID_0Corel-Layer"/>
  <g id="_2676040958752">
   <path class="fil0" d="M42.74 7.56c-1.61,0 -3.03,0.8 -3.89,2.03 -0.87,-1.23 -2.29,-2.03 -3.9,-2.03 -1.61,0 -3.03,0.8 -3.9,2.03 -0.87,-1.23 -2.29,-2.03 -3.89,-2.03 -1.61,0 -3.03,0.8 -3.9,2.03 -0.87,-1.23 -2.29,-2.03 -3.9,-2.03 -1.61,0 -3.03,0.8 -3.9,2.03 -0.87,-1.23 -2.29,-2.03 -3.9,-2.03 -2.63,0 -4.78,2.16 -4.78,4.81l1.7 0c0,-1.71 1.38,-3.11 3.08,-3.11 1.53,0 2.8,1.13 3.04,2.61 -0.02,0.17 -0.02,0.33 -0.02,0.5l0.07 0 1.63 0 0.07 0c0,-0.17 -0.01,-0.34 -0.02,-0.51 0.24,-1.48 1.51,-2.61 3.04,-2.61 1.53,0 2.8,1.13 3.04,2.61 -0.02,0.17 -0.02,0.33 -0.02,0.5l0.07 0 1.63 0 0.07 0c0,-0.17 -0.01,-0.34 -0.02,-0.5 0.24,-1.48 1.51,-2.61 3.04,-2.61 1.53,0 2.8,1.13 3.04,2.61 -0.02,0.17 -0.03,0.34 -0.03,0.51l0.07 0 1.63 0 0.07 0c0,-0.17 -0.01,-0.34 -0.03,-0.51 0.24,-1.48 1.51,-2.61 3.04,-2.61 1.53,0 2.8,1.13 3.04,2.61 -0.02,0.16 -0.02,0.33 -0.02,0.5l0.07 0 1.63 0 0.07 0c0,-0.17 -0.01,-0.34 -0.02,-0.5 0.24,-1.48 1.51,-2.61 3.04,-2.61 1.7,0 3.08,1.4 3.08,3.11l1.7 0c0,-2.65 -2.14,-4.81 -4.78,-4.81zm-39.73 24.6l12.45 0 0 1.7 -12.45 0 0 -1.7zm-3.01 -15.79l17.25 0 0 -1.88 1.7 0 0 1.76 9.5 0 0 1.7 -9.5 0 0 4.56 9.5 0 0 1.7 -9.5 0 0 4.56 9.5 0 0 1.7 -9.5 0 0 4.56 9.5 0 0 1.7 -9.5 0 0 3.85c0,0.97 0.78,1.76 1.74,1.76l2.07 0 0 1.7 -2.07 0c-1.89,0 -3.44,-1.55 -3.44,-3.46l0 -22.5 -17.25 0 0 -1.7 0 -0zm32.41 0l21.91 0 0 1.7 -21.91 0 0 22.5c0,0.97 0.78,1.76 1.74,1.76l2.07 0 0 1.7 -2.07 0c-1.89,0 -3.44,-1.55 -3.44,-3.46l0 -26.08 1.7 0 0 1.88 0 -0zm1.75 15.79l17.15 0 0 1.7 -17.15 0 0 -1.7zm-22.58 -32.15l0 1.7c1.53,0 2.8,1.13 3.04,2.61 -0.02,0.17 -0.02,0.33 -0.02,0.5l0.07 0 1.63 0 0.07 0c0,-0.17 -0.01,-0.34 -0.02,-0.51 0.24,-1.48 1.51,-2.61 3.04,-2.61 1.53,0 2.8,1.13 3.04,2.61 -0.02,0.17 -0.02,0.33 -0.02,0.5l0.07 0 1.63 0 0.07 0c0,-0.17 -0.01,-0.34 -0.02,-0.5 0.24,-1.48 1.51,-2.61 3.04,-2.61 1.53,0 2.8,1.13 3.04,2.61 -0.02,0.17 -0.03,0.34 -0.03,0.51l0.07 0 1.63 0 0.07 0c0,-0.17 -0.01,-0.34 -0.03,-0.51 0.24,-1.48 1.51,-2.61 3.04,-2.61 1.53,0 2.8,1.13 3.04,2.61 -0.02,0.16 -0.02,0.33 -0.02,0.5l0.07 0 1.63 0 0.07 0c0,-0.17 -0.01,-0.34 -0.02,-0.5 0.24,-1.48 1.51,-2.61 3.04,-2.61l0 -1.7c-1.61,0 -3.03,0.8 -3.89,2.03 -0.87,-1.23 -2.29,-2.03 -3.9,-2.03 -1.61,0 -3.03,0.8 -3.9,2.03 -0.87,-1.23 -2.29,-2.03 -3.89,-2.03 -1.61,0 -3.03,0.8 -3.9,2.03 -0.87,-1.23 -2.29,-2.03 -3.9,-2.03 -1.61,0 -3.03,0.8 -3.9,2.03 -0.87,-1.23 -2.29,-2.03 -3.9,-2.03z"/>
  </g>
 </g>
</svg>
