<?xml version="1.0" encoding="UTF-8"?>
<!DOCTYPE svg PUBLIC "-//W3C//DTD SVG 1.1//EN" "http://www.w3.org/Graphics/SVG/1.1/DTD/svg11.dtd">
<!-- Creator: CorelDRAW 2019 (64-Bit) -->
<svg xmlns="http://www.w3.org/2000/svg" xml:space="preserve" width="0.886189in" height="0.922996in" version="1.1" style="shape-rendering:geometricPrecision; text-rendering:geometricPrecision; image-rendering:optimizeQuality; fill-rule:evenodd; clip-rule:evenodd"
viewBox="0 0 886.15 922.96"
 xmlns:xlink="http://www.w3.org/1999/xlink"
 xmlns:xodm="http://www.corel.com/coreldraw/odm/2003">
 <defs>
  <style type="text/css">
   <![CDATA[
    .fil0 {fill:#96989A}
   ]]>
  </style>
 </defs>
 <g id="Layer_x0020_1">
  <metadata id="CorelCorpID_0Corel-Layer"/>
  <g id="_2504049832304">
   <path class="fil0" d="M601.67 881.67c-24.83,-9.18 -43.94,-32.22 -62.69,-65.21l-132.94 102.13c-6.72,7.05 -11.77,4.99 -16.02,-2.1l-13.7 -37.01c-1.26,-6.27 -0.63,-12.2 3.13,-17.46l88.01 -153.96 -97.91 -191.14 -333.22 239.99c-7.71,6.34 -13.33,5.05 -16.5,-5.57l-19.84 -59.55 269.77 -373.27 -86.33 -171.22c-20.56,-54.36 -21.81,-100.3 -2.93,-128.29 10.42,-15.42 17.67,-19.55 35.5,-18.94 34.94,1.28 71.07,32.46 100.54,85.61l74.69 176.6 459.16 35.83 32.57 53.66c5.98,9.26 3.33,14.38 -6.43,16.18l-398.55 98.87 82.33 198.3 174.33 32.51c6.39,0.52 11.33,3.81 15.34,8.92l19.35 34.4c2.68,7.77 0.96,13.02 -8.76,13.57l-163.88 35.28c13.03,35.79 18.24,65.26 9.07,90.24 -0.9,2.26 -1.88,2.46 -4.1,1.64l0 0z"/>
  </g>
 </g>
</svg>
