<?xml version="1.0" encoding="UTF-8"?>
<!DOCTYPE svg PUBLIC "-//W3C//DTD SVG 1.1//EN" "http://www.w3.org/Graphics/SVG/1.1/DTD/svg11.dtd">
<!-- Creator: CorelDRAW 2019 (64-Bit) -->
<svg xmlns="http://www.w3.org/2000/svg" xml:space="preserve" width="0.251496in" height="0.251346in" version="1.1" style="shape-rendering:geometricPrecision; text-rendering:geometricPrecision; image-rendering:optimizeQuality; fill-rule:evenodd; clip-rule:evenodd"
viewBox="0 0 161.4 161.3"
 xmlns:xlink="http://www.w3.org/1999/xlink"
 xmlns:xodm="http://www.corel.com/coreldraw/odm/2003">
 <defs>
  <style type="text/css">
   <![CDATA[
    .fil0 {fill:#606062}
   ]]>
  </style>
 </defs>
 <g id="Layer_x0020_1">
  <metadata id="CorelCorpID_0Corel-Layer"/>
  <g id="_2298841759616">
   <path class="fil0" d="M157.6 153.75l-15.76 0 0 -94.87 15.76 0c0.01,0 0.01,0 0.02,0 2.09,0 3.78,-1.69 3.78,-3.78 0,-1.68 -1.1,-3.15 -2.71,-3.63 -41.14,-12.3 -74.86,-49.9 -75.16,-50.25 -0.74,-0.78 -1.76,-1.22 -2.83,-1.22 -1.07,0 -2.1,0.44 -2.83,1.22 -0.33,0.37 -34.02,37.95 -75.15,50.25 -1.61,0.47 -2.71,1.95 -2.71,3.63 0,2.09 1.69,3.78 3.78,3.78 0.01,0 0.01,0 0.02,0l15.76 0 0 94.87 -15.76 0c-2.09,0 -3.78,1.69 -3.78,3.78 0,2.09 1.69,3.78 3.78,3.78l153.8 0c2.09,0 3.78,-1.69 3.78,-3.78 0,-2.09 -1.69,-3.78 -3.78,-3.78l0 0zm-121.23 7.56l-9.24 0 0 -102.42 9.25 0 -0.01 102.42zm81.11 0l-73.55 0 0 -102.42 73.55 0 0 102.42zm16.8 0l-9.25 0 0 -102.42 9.24 0 0.01 102.42zm-110.42 -110c21.15,-10.66 40.43,-24.93 56.83,-42.03 16.42,17.1 35.69,31.38 56.84,42.04l-113.67 -0.01z"/>
  </g>
 </g>
</svg>
