<?xml version="1.0" encoding="UTF-8"?>
<!DOCTYPE svg PUBLIC "-//W3C//DTD SVG 1.1//EN" "http://www.w3.org/Graphics/SVG/1.1/DTD/svg11.dtd">
<!-- Creator: CorelDRAW 2019 (64-Bit) -->
<svg xmlns="http://www.w3.org/2000/svg" xml:space="preserve" width="0.728854in" height="0.728886in" version="1.1" style="shape-rendering:geometricPrecision; text-rendering:geometricPrecision; image-rendering:optimizeQuality; fill-rule:evenodd; clip-rule:evenodd"
viewBox="0 0 742.97 743"
 xmlns:xlink="http://www.w3.org/1999/xlink"
 xmlns:xodm="http://www.corel.com/coreldraw/odm/2003">
 <defs>
  <style type="text/css">
   <![CDATA[
    .fil1 {fill:#FEFEFE;fill-rule:nonzero}
    .fil0 {fill:#3179BD;fill-rule:nonzero}
   ]]>
  </style>
 </defs>
 <g id="Layer_x0020_1">
  <metadata id="CorelCorpID_0Corel-Layer"/>
  <g id="_2288928169280">
   <path class="fil0" d="M742.97 371.5c0,-205.17 -166.31,-371.5 -371.47,-371.5 -205.19,0 -371.5,166.33 -371.5,371.5 0,185.42 135.84,339.09 313.44,366.98l0 -259.62 -94.32 0 0 -107.36 94.32 0 0 -81.86c0,-93.11 55.48,-144.53 140.34,-144.53 40.63,0 83.13,7.26 83.13,7.26l0 91.41 -46.83 0c-46.16,0 -60.54,28.64 -60.54,58.02l0 69.7 103.02 0 -16.47 107.36 -86.55 0 0 259.62c177.59,-27.89 313.43,-181.56 313.43,-366.98z"/>
   <path class="fil1" d="M516.1 478.86l16.47 -107.36 -103.02 0 0 -69.7c0,-29.37 14.38,-58.02 60.54,-58.02l46.83 0 0 -91.41c0,0 -42.5,-7.26 -83.13,-7.26 -84.86,0 -140.34,51.43 -140.34,144.53l0 81.86 -94.32 0 0 107.36 94.32 0 0 259.62c18.91,2.96 38.3,4.51 58.06,4.51 19.74,0 39.12,-1.55 58.04,-4.51l0 -259.62 86.55 0z"/>
  </g>
 </g>
</svg>
