<?xml version="1.0" encoding="UTF-8"?>
<!DOCTYPE svg PUBLIC "-//W3C//DTD SVG 1.1//EN" "http://www.w3.org/Graphics/SVG/1.1/DTD/svg11.dtd">
<!-- Creator: CorelDRAW 2019 (64-Bit) -->
<svg xmlns="http://www.w3.org/2000/svg" xml:space="preserve" width="0.728854in" height="0.728886in" version="1.1" style="shape-rendering:geometricPrecision; text-rendering:geometricPrecision; image-rendering:optimizeQuality; fill-rule:evenodd; clip-rule:evenodd"
viewBox="0 0 742.97 743"
 xmlns:xlink="http://www.w3.org/1999/xlink"
 xmlns:xodm="http://www.corel.com/coreldraw/odm/2003">
 <defs>
  <style type="text/css">
   <![CDATA[
    .fil1 {fill:#FEFEFE}
    .fil0 {fill:url(#id0)}
   ]]>
  </style>
  <linearGradient id="id0" gradientUnits="userSpaceOnUse" x1="23.5" y1="77.59" x2="766.33" y2="704.99">
   <stop offset="0" style="stop-opacity:1; stop-color:#F9D889"/>
   <stop offset="0" style="stop-opacity:1; stop-color:#F9D889"/>
   <stop offset="0.211765" style="stop-opacity:1; stop-color:#FBB257"/>
   <stop offset="0.380392" style="stop-opacity:1; stop-color:#F0647C"/>
   <stop offset="0.521569" style="stop-opacity:1; stop-color:#E5509A"/>
   <stop offset="0.741176" style="stop-opacity:1; stop-color:#7A57A2"/>
   <stop offset="1" style="stop-opacity:1; stop-color:#5261AA"/>
  </linearGradient>
 </defs>
 <g id="Layer_x0020_1">
  <metadata id="CorelCorpID_0Corel-Layer"/>
  <g id="_2288928168512">
   <path class="fil0" d="M742.97 371.5c0,205.16 -166.31,371.5 -371.47,371.5 -205.19,0 -371.5,-166.34 -371.5,-371.5 0,-205.18 166.31,-371.49 371.5,-371.49 205.16,0 371.47,166.31 371.47,371.49z"/>
   <path class="fil1" d="M486.8 230.95c-14.11,0 -25.54,11.45 -25.54,25.54 0,14.11 11.43,25.54 25.54,25.54 14.11,0 25.54,-11.43 25.54,-25.54 0,-14.09 -11.42,-25.54 -25.54,-25.54z"/>
   <path class="fil1" d="M373.28 439.69c-37.91,0 -68.71,-30.83 -68.71,-68.71 0,-37.88 30.81,-68.71 68.71,-68.71 37.88,0 68.69,30.83 68.69,68.71 0,37.88 -30.81,68.71 -68.69,68.71zm0 -175.98c-59.16,0 -107.29,48.11 -107.29,107.27 0,59.15 48.13,107.26 107.29,107.26 59.13,0 107.26,-48.11 107.26,-107.26 0,-59.16 -48.13,-107.27 -107.26,-107.27z"/>
   <path class="fil1" d="M284.52 194.16c-49.54,0 -89.84,40.3 -89.84,89.85l0 173.92c0,49.54 40.3,89.86 89.84,89.86l173.91 0c49.56,0 89.86,-40.32 89.86,-89.86l0 -173.92c0,-49.55 -40.29,-89.85 -89.86,-89.85l-173.91 0zm173.91 394.59l-173.91 0c-72.13,0 -130.82,-58.69 -130.82,-130.82l0 -173.92c0,-72.13 58.69,-130.82 130.82,-130.82l173.91 0c72.13,0 130.85,58.69 130.85,130.82l0 173.92c0,72.13 -58.71,130.82 -130.85,130.82z"/>
  </g>
 </g>
</svg>
