<?xml version="1.0" encoding="UTF-8"?>
<!DOCTYPE svg PUBLIC "-//W3C//DTD SVG 1.1//EN" "http://www.w3.org/Graphics/SVG/1.1/DTD/svg11.dtd">
<!-- Creator: CorelDRAW 2019 (64-Bit) -->
<svg xmlns="http://www.w3.org/2000/svg" xml:space="preserve" width="8.5in" height="11in" version="1.1" style="shape-rendering:geometricPrecision; text-rendering:geometricPrecision; image-rendering:optimizeQuality; fill-rule:evenodd; clip-rule:evenodd"
viewBox="0 0 8500 11000"
 xmlns:xlink="http://www.w3.org/1999/xlink"
 xmlns:xodm="http://www.corel.com/coreldraw/odm/2003">
 <defs>
  <style type="text/css">
   <![CDATA[
    .str2 {stroke:#96989A;stroke-width:10.42;stroke-miterlimit:2.61313}
    .str0 {stroke:#96989A;stroke-width:10.42;stroke-miterlimit:2.61313}
    .str1 {stroke:#96989A;stroke-width:27.78;stroke-miterlimit:2.61313}
    .str3 {stroke:#96989A;stroke-width:6.94;stroke-miterlimit:2.61313}
    .fil0 {fill:none}
    .fil6 {fill:#96989A}
    .fil2 {fill:#848688}
    .fil5 {fill:whitesmoke}
    .fil7 {fill:whitesmoke}
    .fil3 {fill:#FEFEFE;fill-rule:nonzero}
    .fil1 {fill:#96989A;fill-rule:nonzero}
    .fil4 {fill:#96989A;fill-rule:nonzero}
   ]]>
  </style>
 </defs>
 <g id="Layer_x0020_1">
  <metadata id="CorelCorpID_0Corel-Layer"/>
  <g id="_2539967283488">
   <path class="fil0 str0" d="M7433.23 4593.49c-279.08,98.43 -558.02,197.17 -807.18,360.24 -322.06,136.85 -314.2,375.46 -734.53,111.85 -171.36,-142.59 -446.01,-180.51 -683.28,-80.24 -177.33,90.28 -372.16,219.97 -557.69,329.59 -61.8,48.64 -106.87,49.7 -157.98,84.22 -66.7,49.92 -139.91,80.41 -218.28,95.46 -90.92,10.26 -177.26,33.71 -259.26,69.68 -57.21,27.61 -114.43,55.21 -171.64,82.82 -49.3,19.68 -99.47,36.14 -151.52,46.65 -45.98,6.83 -84.67,29.41 -117.57,64.5 -24.94,41.14 -53.64,76.2 -96.5,88.3 -18.02,7.44 -35.8,15.05 -53.64,19.24 -125.93,22.43 -46.89,-21.76 -225.28,-20.99 -34.11,13.18 -194.19,67.9 -228.3,81.07l-437.12 172.91 -134.25 72.03c-258.81,114.55 -338.33,317.37 -269.26,593.34 52.67,140.71 107.87,280.25 160.54,420.96 24.14,62.76 23.33,125.12 -4.28,175.85 -60.32,64.11 -124.22,88.35 -191.38,76.58l-325.69 -145.37"/>
   <path class="fil0 str1" d="M5792.74 5677.33c-188.28,-256.08 -378.11,-510.8 -633.11,-696.88l-512.51 -451.88c-40.75,-45.72 -26.19,-67.26 -45.83,-109.61 -18.41,-42.19 -36.83,-84.37 -55.24,-126.56 -34.5,-38.09 -54.02,-87.98 -65.61,-144.13 -2.6,-30.43 -23.75,-70.72 -69.82,-124.28 -28.44,-36.89 -50.62,-20.1 -90.38,-96.31 -74.02,-94.75 -119.18,-83.72 -181.03,-144.95"/>
   <path class="fil0 str2" d="M5294.89 5092.89c70.47,22.75 76.2,95.04 197.31,61.91 78.28,-27.83 113.61,-189.39 26.77,-200.32 -43.92,-15.65 -107.98,-27.78 -183.07,-9.43"/>
   <path class="fil0 str2" d="M5649.48 4948.24c-46.8,-32.83 -121.31,-31.96 -203.01,-38.02 -72.83,5.78 -143.68,6.29 -215.97,1.54 -69.84,1.06 -120.5,-18.81 -166.55,-43.71l-188.7 -138.6"/>
   <path class="fil0 str2" d="M4665.06 5306.22c114.48,-64.2 179.57,-128.74 181.04,-195.81 4.78,-57.35 -31.69,-63.49 16.28,-128.9 64.4,-70.83 80.07,-136.62 40.73,-196.72 -29.7,-36.4 -59.39,-72.8 -89.09,-109.21"/>
   <path class="fil0 str2" d="M5112.5 4938.99c-28.89,-14.96 -58.3,-29.69 -87.19,-44.65 -32.1,-7.7 -63.49,-6.59 -93.38,13.02 -32.31,40.07 -61.86,81.83 -85.85,127 0.6,55.04 28.97,80.42 76.41,85.44 46.62,-13.26 92.02,-31.48 136.45,-52.68"/>
   <path class="fil0 str2" d="M3906.82 5616.11l-254.12 49.41c-66.95,37.38 -115.58,4.63 -181.57,-11.02 -36.67,-12.74 -119.84,20.87 -172.39,61.91 -32.3,33.97 -23.57,68.52 -92.57,108.85 -43.5,24.24 -76.33,37.32 -132.62,64.12 21.56,-5.89 104.74,-39.94 157.23,-84.67 48.61,-41.42 58.42,-95.01 4.94,-109.54 -56.65,-27.31 -88.69,-66.67 -88.26,-121.9 6.22,-46.56 38.36,-68.43 79.39,-84.85 59.09,-21.18 43.35,-77.22 23.61,-154.67"/>
   <path class="fil0 str2" d="M3565.07 5770.89c-34.45,50.11 -54.86,101.98 -51.35,156.89 19.51,87.17 39.01,174.34 58.52,261.52"/>
   <path class="fil0 str2" d="M3329.95 5545.27c-13.67,-25.06 -49.68,-49.74 -91.96,-50.27 -49.07,3.81 -92.7,45.32 -84.42,105.35 9.87,45.35 45.04,73.06 93.99,85.41 26.71,4.92 39.88,13.51 115.99,-8.83"/>
   <path class="fil0 str2" d="M3450.47 5857.85c-58.89,25.59 -117.78,51.17 -176.68,76.76 -54.48,48.07 -68.8,102.22 -52.83,160.93 20.02,44.12 50.98,78.31 104.57,91.98 54.11,14.1 104.45,-7.34 151.46,-60.05 29.7,-69.54 18.12,-132.49 -6.31,-193.39"/>
   <g>
    <path class="fil1" d="M2857.31 4289.52l-281.24 -721.9 41.31 -16.09 281.24 721.9 0.52 1.5 -41.83 14.59zm41.31 -16.09l0.3 0.76 0.23 0.74 -0.52 -1.5zm44.9 209.79l-41.3 16.11 0.98 2.17 -6.84 -13.41 -6.11 -12.5 -5.42 -11.65 -4.77 -10.86 -4.15 -10.13 -3.58 -9.45 -3.04 -8.85 -2.55 -8.3 -2.07 -7.8 -1.63 -7.35 -1.22 -6.95 -0.84 -6.59 -0.49 -6.23 -0.18 -5.9 0.09 -5.56 0.3 -5.22 0.45 -4.89 0.54 -4.57 0.57 -4.28 0.56 -4.03 0.5 -3.83 0.41 -3.72 0.31 -3.69 0.18 -3.76 0.02 -3.94 -0.16 -4.22 -0.38 -4.59 -0.65 -5.04 -0.96 -5.57 -1.33 -6.17 -1.74 -6.84 -2.21 -7.56 42.35 -13.09 2.61 8.95 2.14 8.4 1.69 7.88 1.28 7.42 0.9 6.98 0.55 6.58 0.24 6.2 -0.03 5.83 -0.26 5.47 -0.42 5.1 -0.53 4.76 -0.57 4.43 -0.56 4.11 -0.52 3.85 -0.43 3.67 -0.33 3.55 -0.2 3.54 -0.06 3.62 0.11 3.79 0.32 4.09 0.57 4.47 0.87 4.95 1.22 5.5 1.62 6.1 2.07 6.78 2.58 7.49 3.13 8.26 3.72 9.07 4.36 9.92 5.04 10.83 5.76 11.77 6.52 12.78 0.98 2.17zm-0.98 -2.17l0.54 1.05 0.44 1.13 -0.98 -2.17zm270.56 814.64l-310.88 -796.35 41.3 -16.11 310.88 796.35 0.1 0.26 -41.4 15.85zm41.3 -16.11l0.06 0.15 0.04 0.1 -0.1 -0.26zm66.92 303.9l-108.32 -288.05 41.5 -15.6 108.32 288.05 0.09 0.23 -41.58 15.37zm41.5 -15.6l0.07 0.17 0.02 0.06 -0.09 -0.23zm429.74 1311.9l-471.33 -1296.54 41.67 -15.13 471.33 1296.54 -41.67 15.13z"/>
   </g>
   <line class="fil0 str2" x1="2275.96" y1="5382.97" x2="2717.99" y2= "6631.94" />
   <path class="fil0 str2" d="M2740.8 6016.04c-43.46,18.41 -79,42 -111.76,67.4 -46.01,38.16 -51.98,91.5 -52.64,146.86"/>
   <path class="fil0 str2" d="M2576.17 6230.12c10.8,-5 23.6,-0.28 28.61,10.53 5,10.81 0.31,23.63 -10.48,28.63 -10.8,5 -23.61,0.28 -28.61,-10.53 -5,-10.81 -0.31,-23.62 10.49,-28.62z"/>
   <path class="fil0 str2" d="M2577.84 6276.13c-9.75,-2.64 -13.29,-10.79 -29.25,-7.92 -24.31,-0.21 -35.37,16.01 -69.24,5.44 -14.56,-9.16 -32.95,-24.31 -54.66,-29.47 -27.02,-4.89 -46,8.96 -62.81,27.87"/>
   <path class="fil0 str2" d="M2564.88 6241.92c-9.63,-0.3 -19.26,-0.59 -28.89,-0.89 -16.46,5.78 -31.81,6.77 -46.53,5.04 -14.7,-6.78 -27.76,-14.76 -39.68,-23.58 -17.03,-12.66 -29.9,-16.34 -41.24,-16.7 -94.29,3.88 -178.23,85.49 -237.54,146.53"/>
   <path class="fil0 str2" d="M2494.5 6119.67c-16.69,13.39 -28.48,29.98 -34.49,50.36 -1.59,27.54 7.37,49.49 39.88,59 27.23,0.85 44.26,-12.7 50.01,-42.17 0.14,-17.49 -3.04,-35.61 -8.61,-54.18"/>
   <path class="fil0 str2" d="M2599.44 6072.65c-42.93,16.83 -85.66,32.74 -128.47,35.27 -20,4.43 -40.39,-5.69 -49.01,-24.3 -10.13,-21.88 -0.63,-47.81 21.21,-57.92 19.52,-9.04 42.73,-2.46 54.64,15.49 11.69,11.06 18.13,23.37 23.11,36.05"/>
   <path class="fil0 str2" d="M2319.45 6211.79c34.35,-18.43 61.5,-40.3 74.83,-68.76 12.13,-30.44 7.69,-62.12 12.91,-91.55 17.53,-40.66 31.92,-28.24 53.48,-52.16 19.4,-27.14 13.37,-50.44 5.11,-73.4 53.41,118.58 125.89,129.12 315.74,74.34"/>
   <path class="fil0 str2" d="M1757.26 4379.73c91.39,18.54 182.79,37.09 274.19,55.63 41.97,7.72 78.74,18.56 249.15,-50.72 105.15,-11.04 169.26,-59.44 203.8,-134.74 107.24,-157.08 196.48,-207.81 286.15,-244.35 44.58,-30.6 98.45,-54.2 140.26,-35.04 47.11,28.79 47.25,57.59 39.87,108.78 -6.2,78.94 -122,52.7 -89.9,160.37 -25.44,-26.19 -33.26,-55.29 -80.17,-36.4 -58.64,10.41 -74.53,-12.31 -57.17,-60.78 17.26,-42.41 13.31,-126.32 -110.48,-41.76"/>
   <path class="fil2" d="M2914.65 4526.89l135.51 -113.15c9.89,11.86 18.2,24.97 24.69,38.99 41.02,88.61 2.55,193.64 -85.92,234.6 -88.47,40.95 -193.44,2.33 -234.46,-86.28 -6.49,-14.01 -11.11,-28.83 -13.76,-44.04l173.95 -30.11z"/>
   <path class="fil3" d="M2958.03 4632.79l-43.63 -94.26 -19.17 8.87 -6.78 65.89 -0.29 0.13 -54.76 -37.4 -19.75 9.14 43.64 94.26 20.03 -9.28 -25.32 -54.7 0.72 -0.33 46.75 31.82 5.78 -2.67 5.99 -56.24 0.72 -0.33 25.33 54.71 20.76 -9.61zm8.38 -38.58l40.22 -18.62 -8.29 -17.9 -40.21 18.62 8.28 17.9zm40.46 -50.99l15.07 -16.96 29.33 63.36 19.74 -9.14 -37.95 -81.98 -17.72 8.2 -20.01 22.57 11.54 13.94z"/>
   <path class="fil2" d="M3629 6355.67l135.51 -113.15c9.89,11.87 18.19,24.98 24.68,38.99 41.02,88.61 2.55,193.64 -85.92,234.59 -88.48,40.96 -193.45,2.33 -234.47,-86.28 -6.49,-14.01 -11.11,-28.83 -13.76,-44.04l173.96 -30.11z"/>
   <path class="fil3" d="M3650.07 6470l-43.64 -94.26 -17.22 7.97 -3.67 64.45 -0.26 0.12 -51.65 -38.85 -17.74 8.22 43.63 94.26 18 -8.33 -25.33 -54.71 0.65 -0.3 44.08 33.05 5.18 -2.4 3.33 -55 0.65 -0.3 25.33 54.7 18.65 -8.63zm6.2 -37.57l36.14 -16.73 -8.29 -17.91 -36.15 16.74 8.29 17.9zm62.19 5.91l62.95 -29.15 -7.22 -15.59 -45.08 20.87 -0.4 -0.87c-3.41,-7.36 1.07,-14.34 10.14,-23.27 10.43,-10.09 24.67,-23.51 16.04,-42.13 -8.02,-17.32 -26.7,-17.26 -41.74,-10.3 -15.67,7.25 -21.32,19.16 -26.97,31.77l15.73 8.49c4.17,-10.34 8.69,-19.27 19.32,-24.19 5.82,-2.7 13.24,-3.67 16.11,2.53 3.41,7.36 -4.58,14.92 -8.25,18.2 -15.34,13.76 -26.08,30.3 -16.73,50.51l6.08 13.14z"/>
   <path class="fil2" d="M5520.17 5328.49l135.51 -113.15c9.9,11.87 18.19,24.98 24.68,39 41.02,88.6 2.55,193.63 -85.92,234.59 -88.47,40.96 -193.44,2.33 -234.46,-86.28 -6.49,-14.02 -11.12,-28.83 -13.76,-44.05l173.95 -30.11z"/>
   <path class="fil3" d="M5478.75 5359.2l27.06 58.46 -0.12 0.06 -70.48 -38.36 -16.04 7.43 43.63 94.26 18.77 -8.69 -27 -58.31 0.14 -0.06 70.27 38.28 16.17 -7.48 -43.64 -94.26 -18.78 8.69zm68.74 47.93l36.38 -16.84 -8.28 -17.89 -36.38 16.84 8.28 17.9zm99.05 -7.64c18.52,-8.57 34.19,-26.35 24.04,-48.29 -8.56,-18.48 -28.14,-19.75 -43.26,-12.75 -9.79,4.53 -14.11,10.91 -18.09,18.37l-8.89 -19.2 44.33 -20.52 -7.55 -16.31 -60.37 27.95 19.71 42.58 14.24 3.4c4.98,-7.39 10.93,-14.7 21.1,-19.41 7.69,-3.56 16.73,-3.54 20.47,4.54 4.48,9.67 -3.1,18.61 -13.27,23.32 -13.95,6.46 -27.57,5.41 -34.79,4.19l-1.61 17.4c8.85,1.33 25.04,3.48 43.94,-5.27z"/>
   <path class="fil2" d="M4520.16 4256.49l135.51 -113.15c9.9,11.87 18.19,24.98 24.68,39 41.02,88.61 2.55,193.64 -85.92,234.59 -88.47,40.96 -193.44,2.33 -234.46,-86.28 -6.49,-14.02 -11.12,-28.83 -13.76,-44.05l173.95 -30.11z"/>
   <path class="fil3" d="M4478.74 4287.2l27.06 58.46 -0.13 0.06 -70.48 -38.36 -16.04 7.43 43.63 94.26 18.78 -8.69 -27 -58.31 0.13 -0.06 70.28 38.28 16.17 -7.49 -43.64 -94.26 -18.77 8.69zm68.73 47.94l36.38 -16.84 -8.29 -17.9 -36.38 16.84 8.29 17.91zm99.05 -7.65c18.52,-8.57 34.19,-26.34 24.04,-48.28 -8.56,-18.48 -28.14,-19.76 -43.26,-12.76 -9.78,4.53 -14.11,10.91 -18.1,18.37l-8.89 -19.2 44.33 -20.52 -7.55 -16.31 -60.37 27.94 19.71 42.58 14.24 3.41c4.97,-7.39 10.93,-14.7 21.1,-19.41 7.69,-3.56 16.72,-3.53 20.47,4.56 4.48,9.67 -3.1,18.61 -13.27,23.31 -13.95,6.46 -27.57,5.41 -34.79,4.19l-1.61 17.39c8.85,1.33 25.04,3.48 43.94,-5.27z"/>
   <path class="fil0 str3" d="M3257.99 5326.76c244.06,105.13 29.46,353.8 630.53,293.65"/>
   <path class="fil0 str2" d="M5156.91 5006.87c-40.79,49.61 -102.31,108.83 -103.46,169.9 -26.65,67.64 53.88,127.3 94.78,172.35 37.87,30.2 80.96,46.57 134.86,34.35 54.57,-12.07 89.63,-54.1 107.52,-122.47 -5.17,-75.49 -44.08,-126.31 -93.5,-169.45"/>
   <path class="fil4" d="M2263.53 4110.6c-12.87,5.96 -25.5,6.64 -37.91,2.05 -12.41,-4.59 -21.51,-13.15 -27.31,-25.69 -5.8,-12.54 -6.44,-25.02 -1.91,-37.45 4.53,-12.43 13.22,-21.62 26.09,-27.57 7.73,-3.58 15.72,-5.06 23.98,-4.43 8.25,0.63 15.66,3.23 22.22,7.81l-8.93 12.73c-4.24,-3.18 -9.11,-5 -14.62,-5.46 -5.5,-0.47 -10.94,0.54 -16.32,3.03 -9.12,4.22 -15.17,10.53 -18.15,18.93 -2.98,8.4 -2.43,17.04 1.69,25.91 4.11,8.87 10.33,14.89 18.67,18.06 8.33,3.16 17.06,2.63 26.18,-1.59 5.37,-2.49 9.68,-5.99 12.93,-10.51 3.24,-4.52 4.99,-9.4 5.23,-14.65l15.44 1.31c-0.69,7.93 -3.44,15.26 -8.28,22 -4.83,6.74 -11.17,11.91 -18.98,15.53zm39.56 -124.04c8.06,-3.73 16.04,-4.16 23.94,-1.3 7.9,2.87 13.7,8.29 17.39,16.26 3.66,7.9 4.03,15.81 1.12,23.73 -2.91,7.93 -8.39,13.74 -16.45,17.48l-17.46 8.09 13.57 29.31 -14.04 6.5 -39.57 -85.48 31.51 -14.59zm19.9 42.99c4.15,-1.92 6.92,-4.91 8.3,-8.96 1.39,-4.05 1.08,-8.24 -0.91,-12.55 -2,-4.31 -4.99,-7.25 -8.98,-8.82 -3.99,-1.57 -8.06,-1.39 -12.21,0.53l-17.46 8.09 13.8 29.8 17.46 -8.08zm68.04 3.79l37.85 -17.52 6.22 13.43 -51.9 24.03 -39.57 -85.48 51.29 -23.74 6.22 13.43 -37.24 17.24 10.29 22.23 34.2 -15.83 6.16 13.31 -34.19 15.83 10.69 23.08zm97.32 -26.81c-12.86,5.96 -25.5,6.64 -37.9,2.05 -12.41,-4.59 -21.51,-13.15 -27.32,-25.69 -5.8,-12.54 -6.44,-25.02 -1.91,-37.45 4.53,-12.43 13.22,-21.62 26.09,-27.57 7.74,-3.58 15.72,-5.05 23.98,-4.43 8.25,0.63 15.66,3.23 22.23,7.81l-8.93 12.73c-4.24,-3.18 -9.11,-5 -14.62,-5.46 -5.51,-0.47 -10.94,0.54 -16.32,3.03 -9.12,4.22 -15.17,10.53 -18.15,18.93 -2.98,8.4 -2.42,17.04 1.69,25.91 4.11,8.87 10.33,14.89 18.67,18.05 8.33,3.16 17.06,2.63 26.18,-1.59 5.37,-2.48 9.69,-5.99 12.93,-10.51 3.24,-4.52 4.99,-9.41 5.23,-14.66l15.43 1.31c-0.68,7.93 -3.44,15.26 -8.28,22 -4.84,6.74 -11.17,11.91 -18.98,15.53z"/>
   <path class="fil4" d="M3323.81 4715.64l39.57 85.48 -14.04 6.5 -28.21 -60.94 -6.11 55.03 -1.71 0.8 -45.97 -31.07 28.27 61.06 -14.04 6.5 -39.57 -85.49 15.14 -7.01 45.57 30.8 6.07 -54.71 15.04 -6.96zm85.37 66.21c-8.95,4.15 -18,4.57 -27.13,1.3 -9.13,-3.29 -15.79,-9.45 -19.98,-18.48 -4.18,-9.04 -4.57,-18.11 -1.17,-27.2 3.41,-9.09 9.59,-15.7 18.54,-19.85 9.04,-4.18 18.1,-4.62 27.2,-1.32 9.09,3.31 15.73,9.48 19.91,18.52 4.18,9.04 4.59,18.09 1.23,27.16 -3.37,9.07 -9.57,15.7 -18.61,19.88zm-22.04 -12.04c5.36,1.97 10.72,1.71 16.1,-0.78 5.37,-2.49 9.05,-6.41 11.02,-11.77 1.96,-5.36 1.67,-10.81 -0.89,-16.34 -2.56,-5.54 -6.53,-9.29 -11.88,-11.26 -5.37,-1.97 -10.73,-1.7 -16.1,0.78 -5.37,2.49 -9.04,6.41 -11.01,11.77 -1.97,5.36 -1.67,10.81 0.89,16.35 2.56,5.53 6.52,9.29 11.88,11.25zm75.97 -73.58l-15.14 7.01 13.57 29.31c1.17,2.52 2.57,4.07 4.22,4.64 1.65,0.57 3.62,0.4 5.91,-0.52 2.3,-0.91 5.07,-2.22 8.34,-3.93l5.48 11.85c-9.53,5.89 -17.18,8.37 -22.95,7.44 -5.78,-0.94 -10.51,-5.39 -14.2,-13.37l-13.57 -29.31 -11.24 5.2 -5.88 -12.7 11.24 -5.2 -6.11 -13.19 11.39 -10.01 7.91 17.1 15.14 -7.01 5.88 12.7zm61.47 32.2c-8.95,4.15 -18,4.57 -27.13,1.29 -9.13,-3.28 -15.8,-9.44 -19.98,-18.48 -4.19,-9.04 -4.57,-18.11 -1.17,-27.2 3.41,-9.09 9.59,-15.7 18.54,-19.85 9.04,-4.19 18.1,-4.62 27.2,-1.32 9.09,3.31 15.73,9.48 19.91,18.52 4.18,9.04 4.59,18.09 1.23,27.16 -3.37,9.07 -9.57,15.7 -18.61,19.88zm-22.04 -12.04c5.36,1.97 10.73,1.71 16.1,-0.78 5.37,-2.49 9.05,-6.41 11.02,-11.77 1.97,-5.36 1.67,-10.81 -0.89,-16.34 -2.56,-5.54 -6.52,-9.29 -11.88,-11.26 -5.36,-1.97 -10.73,-1.71 -16.1,0.78 -5.37,2.49 -9.04,6.41 -11.01,11.77 -1.97,5.36 -1.67,10.81 0.89,16.35 2.56,5.53 6.53,9.28 11.88,11.25zm55.18 -66.92c-0.17,-9.11 4.35,-15.8 13.55,-20.06l6.61 14.29c-5.2,2.01 -9.04,5.25 -11.52,9.71 -2.48,4.46 -2.27,9.82 0.63,16.09l14.25 30.78 -13.19 6.11 -28.27 -61.06 13.19 -6.11 4.75 10.26zm94.17 -56.05l13.93 -6.44 9.09 69.94 -12.94 5.99 -32.24 -35.69 6.35 47.68 -13.98 6.47 -46.04 -52.83 13.96 -6.46 31.31 36.67 -6.68 -48.07 12.64 -5.85 32.2 36.23 -7.59 -47.63zm69.61 -32.22l13.19 -6.1 28.27 61.06 -13.19 6.11 -4.07 -8.79c-1.77,9.22 -7.29,15.97 -16.57,20.27 -8.39,3.88 -16.99,4.09 -25.82,0.61 -8.83,-3.48 -15.31,-9.69 -19.46,-18.65 -4.19,-9.04 -4.74,-18.03 -1.66,-26.97 3.08,-8.93 8.81,-15.35 17.2,-19.23 9.28,-4.3 17.98,-4.17 26.12,0.37l-4.01 -8.67zm-12.49 59.83c5.38,2.01 10.84,1.74 16.37,-0.83 5.54,-2.56 9.28,-6.54 11.22,-11.94 1.95,-5.4 1.63,-10.91 -0.97,-16.52 -2.6,-5.62 -6.59,-9.43 -11.97,-11.44 -5.38,-2.01 -10.84,-1.73 -16.37,0.83 -5.54,2.56 -9.28,6.54 -11.23,11.94 -1.95,5.4 -1.62,10.91 0.98,16.53 2.6,5.62 6.59,9.43 11.97,11.44zm82.22 -92.11l14.04 -6.5 5.72 73.87c1.45,18.51 -5.02,30.6 -19.4,36.27l-5.71 -12.33c4.27,-1.68 7.2,-4.1 8.8,-7.26 1.6,-3.16 2.24,-7.24 1.91,-12.22l0.04 -1.5 -53.65 -47.98 14.41 -6.67 38.74 35.89 -4.91 -51.56zm-424.44 348.49l6.22 13.43 -24.06 11.14 33.35 72.05 -14.04 6.5 -33.35 -72.05 -24.18 11.19 -6.22 -13.43 62.28 -28.83zm67.66 74.41c-8.95,4.15 -18,4.57 -27.13,1.3 -9.13,-3.29 -15.8,-9.45 -19.98,-18.48 -4.19,-9.04 -4.57,-18.11 -1.17,-27.19 3.41,-9.09 9.59,-15.71 18.54,-19.85 9.04,-4.19 18.1,-4.63 27.2,-1.33 9.09,3.31 15.73,9.48 19.91,18.52 4.18,9.04 4.59,18.09 1.23,27.16 -3.37,9.07 -9.57,15.69 -18.61,19.88zm-22.04 -12.04c5.37,1.97 10.73,1.71 16.1,-0.78 5.37,-2.49 9.04,-6.41 11.01,-11.77 1.97,-5.36 1.67,-10.81 -0.89,-16.34 -2.57,-5.54 -6.53,-9.29 -11.89,-11.26 -5.36,-1.97 -10.73,-1.7 -16.1,0.78 -5.37,2.48 -9.04,6.41 -11.01,11.77 -1.96,5.36 -1.67,10.81 0.89,16.35 2.56,5.53 6.53,9.29 11.88,11.25zm65.51 -10.01l-41.27 -89.15 13.19 -6.11 41.27 89.15 -13.19 6.11zm28.45 -13.17l-41.27 -89.15 13.19 -6.11 41.27 89.15 -13.19 6.11zm51.78 -127.77c8.06,-3.73 16.04,-4.16 23.94,-1.3 7.9,2.87 13.7,8.29 17.39,16.26 3.66,7.9 4.03,15.81 1.13,23.73 -2.91,7.92 -8.39,13.74 -16.45,17.48l-17.46 8.08 13.57 29.31 -14.05 6.5 -39.57 -85.48 31.51 -14.59zm19.9 42.99c4.15,-1.93 6.92,-4.91 8.31,-8.96 1.39,-4.06 1.08,-8.24 -0.92,-12.56 -2,-4.31 -4.99,-7.25 -8.98,-8.81 -3.99,-1.57 -8.06,-1.39 -12.21,0.53l-17.46 8.09 13.8 29.8 17.46 -8.08zm59.36 24.12l-41.27 -89.15 13.19 -6.11 41.27 89.15 -13.19 6.11zm48.55 -96.62l13.19 -6.1 28.27 61.06 -13.19 6.11 -4.07 -8.79c-1.76,9.22 -7.28,15.97 -16.57,20.27 -8.39,3.88 -16.99,4.09 -25.82,0.61 -8.83,-3.48 -15.31,-9.69 -19.46,-18.65 -4.19,-9.04 -4.74,-18.03 -1.66,-26.97 3.08,-8.93 8.81,-15.35 17.2,-19.23 9.28,-4.3 17.99,-4.17 26.12,0.37l-4.02 -8.67zm-12.49 59.83c5.38,2.01 10.84,1.74 16.38,-0.83 5.53,-2.56 9.28,-6.54 11.22,-11.94 1.95,-5.4 1.63,-10.91 -0.97,-16.53 -2.6,-5.62 -6.59,-9.43 -11.97,-11.44 -5.38,-2.01 -10.84,-1.73 -16.37,0.83 -5.54,2.56 -9.28,6.54 -11.23,11.94 -1.94,5.4 -1.62,10.91 0.98,16.53 2.6,5.62 6.59,9.43 11.96,11.44zm79.32 -31.75l29.68 -13.74 5.77 12.46 -47.63 22.05 -4.07 -8.79 10.15 -53.04 -27.36 12.66 -5.76 -12.46 45.17 -20.91 4.07 8.79 -10.01 52.98zm64.21 -88.74l13.19 -6.11 28.27 61.06 -13.19 6.1 -4.07 -8.79c-1.77,9.22 -7.29,15.98 -16.57,20.27 -8.39,3.88 -16.99,4.09 -25.82,0.61 -8.83,-3.48 -15.31,-9.69 -19.46,-18.65 -4.19,-9.04 -4.74,-18.03 -1.66,-26.97 3.08,-8.94 8.81,-15.35 17.2,-19.23 9.28,-4.3 17.98,-4.17 26.12,0.36l-4.01 -8.67zm-12.49 59.83c5.38,2.01 10.84,1.73 16.37,-0.83 5.54,-2.56 9.28,-6.55 11.22,-11.95 1.95,-5.4 1.63,-10.91 -0.97,-16.52 -2.6,-5.62 -6.59,-9.43 -11.97,-11.44 -5.38,-2.01 -10.84,-1.74 -16.37,0.83 -5.54,2.56 -9.28,6.55 -11.23,11.95 -1.95,5.4 -1.62,10.91 0.98,16.53 2.6,5.61 6.59,9.43 11.97,11.44z"/>
   <path class="fil4" d="M3498.34 5254.99l39.57 85.48 -14.04 6.5 -28.21 -60.94 -6.11 55.03 -1.71 0.8 -45.96 -31.07 28.27 61.06 -14.05 6.5 -39.57 -85.48 15.14 -7.01 45.57 30.8 6.07 -54.71 15.04 -6.96zm85.37 66.21c-8.95,4.15 -18,4.57 -27.13,1.29 -9.13,-3.29 -15.79,-9.45 -19.97,-18.48 -4.19,-9.04 -4.57,-18.1 -1.17,-27.19 3.41,-9.09 9.59,-15.7 18.54,-19.85 9.04,-4.19 18.1,-4.62 27.2,-1.32 9.09,3.31 15.73,9.48 19.91,18.52 4.18,9.04 4.59,18.09 1.23,27.16 -3.37,9.07 -9.57,15.7 -18.61,19.88zm-22.04 -12.04c5.36,1.97 10.72,1.71 16.1,-0.78 5.37,-2.49 9.05,-6.41 11.02,-11.77 1.97,-5.36 1.67,-10.81 -0.89,-16.34 -2.56,-5.54 -6.53,-9.29 -11.88,-11.26 -5.36,-1.97 -10.73,-1.71 -16.1,0.78 -5.37,2.49 -9.04,6.41 -11.01,11.77 -1.97,5.35 -1.67,10.81 0.89,16.34 2.56,5.54 6.52,9.29 11.88,11.26zm75.97 -73.58l-15.14 7.01 13.57 29.31c1.17,2.52 2.57,4.07 4.22,4.65 1.65,0.57 3.62,0.4 5.92,-0.52 2.29,-0.91 5.07,-2.22 8.33,-3.93l5.48 11.85c-9.53,5.89 -17.18,8.37 -22.95,7.44 -5.78,-0.94 -10.5,-5.39 -14.2,-13.37l-13.57 -29.31 -11.24 5.2 -5.88 -12.7 11.24 -5.2 -6.11 -13.19 11.38 -10.01 7.91 17.09 15.14 -7.01 5.88 12.7zm61.47 32.2c-8.95,4.14 -18,4.57 -27.13,1.29 -9.13,-3.29 -15.8,-9.45 -19.98,-18.48 -4.19,-9.04 -4.57,-18.1 -1.17,-27.19 3.41,-9.09 9.59,-15.7 18.54,-19.85 9.04,-4.19 18.1,-4.62 27.2,-1.32 9.09,3.3 15.73,9.48 19.91,18.52 4.19,9.04 4.59,18.09 1.23,27.16 -3.37,9.07 -9.57,15.7 -18.61,19.88zm-22.04 -12.04c5.37,1.97 10.73,1.71 16.1,-0.78 5.37,-2.49 9.04,-6.41 11.01,-11.77 1.97,-5.36 1.67,-10.81 -0.89,-16.34 -2.57,-5.54 -6.53,-9.29 -11.89,-11.26 -5.36,-1.97 -10.73,-1.7 -16.1,0.78 -5.37,2.49 -9.04,6.41 -11.01,11.77 -1.96,5.35 -1.67,10.81 0.89,16.34 2.56,5.54 6.53,9.29 11.88,11.26zm55.18 -66.92c-0.17,-9.11 4.35,-15.81 13.55,-20.06l6.61 14.29c-5.2,2.01 -9.04,5.24 -11.52,9.7 -2.48,4.46 -2.27,9.83 0.63,16.09l14.24 30.78 -13.19 6.11 -28.27 -61.06 13.19 -6.11 4.75 10.26zm94.17 -56.05l13.92 -6.44 9.09 69.94 -12.94 5.99 -32.24 -35.69 6.35 47.68 -13.98 6.47 -46.04 -52.83 13.96 -6.46 31.31 36.67 -6.69 -48.07 12.64 -5.85 32.2 36.23 -7.59 -47.62zm69.61 -32.22l13.19 -6.11 28.27 61.06 -13.19 6.11 -4.07 -8.8c-1.77,9.22 -7.28,15.98 -16.57,20.28 -8.39,3.88 -16.99,4.09 -25.82,0.61 -8.83,-3.48 -15.31,-9.69 -19.46,-18.65 -4.19,-9.04 -4.74,-18.03 -1.65,-26.97 3.07,-8.93 8.81,-15.35 17.2,-19.23 9.28,-4.3 17.98,-4.17 26.12,0.36l-4.02 -8.67zm-12.49 59.83c5.38,2.01 10.84,1.73 16.37,-0.83 5.54,-2.56 9.28,-6.55 11.22,-11.94 1.95,-5.4 1.63,-10.91 -0.97,-16.53 -2.6,-5.62 -6.59,-9.43 -11.97,-11.44 -5.38,-2.01 -10.83,-1.73 -16.37,0.83 -5.54,2.57 -9.28,6.55 -11.23,11.95 -1.95,5.4 -1.62,10.91 0.98,16.53 2.6,5.62 6.59,9.43 11.96,11.44zm82.22 -92.12l14.04 -6.5 5.72 73.87c1.45,18.51 -5.02,30.6 -19.4,36.26l-5.71 -12.33c4.27,-1.68 7.2,-4.1 8.8,-7.26 1.6,-3.16 2.24,-7.24 1.91,-12.22l0.04 -1.5 -53.65 -47.98 14.41 -6.67 38.74 35.9 -4.91 -51.56zm-424.44 348.49l6.22 13.43 -24.06 11.14 33.35 72.05 -14.04 6.5 -33.35 -72.05 -24.18 11.19 -6.22 -13.43 62.28 -28.83zm67.66 74.41c-8.95,4.15 -18,4.57 -27.13,1.29 -9.13,-3.28 -15.79,-9.44 -19.98,-18.48 -4.19,-9.04 -4.57,-18.11 -1.17,-27.2 3.41,-9.09 9.59,-15.7 18.54,-19.85 9.04,-4.18 18.11,-4.62 27.2,-1.32 9.09,3.31 15.73,9.48 19.91,18.52 4.19,9.04 4.59,18.09 1.23,27.16 -3.37,9.07 -9.57,15.7 -18.61,19.88zm-22.03 -12.04c5.36,1.97 10.72,1.71 16.1,-0.78 5.37,-2.49 9.04,-6.41 11.01,-11.77 1.97,-5.36 1.67,-10.81 -0.89,-16.34 -2.56,-5.54 -6.53,-9.29 -11.89,-11.26 -5.36,-1.97 -10.73,-1.71 -16.1,0.78 -5.37,2.49 -9.04,6.41 -11.01,11.77 -1.96,5.36 -1.67,10.81 0.89,16.35 2.56,5.53 6.53,9.29 11.89,11.25zm65.51 -10.01l-41.27 -89.15 13.19 -6.11 41.27 89.15 -13.19 6.11zm28.45 -13.17l-41.27 -89.15 13.19 -6.11 41.27 89.15 -13.19 6.11zm51.78 -127.77c8.06,-3.73 16.04,-4.17 23.94,-1.3 7.9,2.87 13.7,8.29 17.39,16.27 3.66,7.9 4.03,15.81 1.13,23.73 -2.91,7.92 -8.39,13.74 -16.45,17.48l-17.46 8.08 13.57 29.31 -14.04 6.5 -39.57 -85.49 31.51 -14.58zm19.9 42.98c4.15,-1.92 6.92,-4.91 8.31,-8.96 1.39,-4.05 1.08,-8.24 -0.92,-12.55 -2,-4.31 -4.99,-7.25 -8.98,-8.81 -3.99,-1.57 -8.06,-1.39 -12.21,0.53l-17.46 8.09 13.8 29.8 17.46 -8.09zm59.36 24.13l-41.27 -89.15 13.19 -6.11 41.27 89.15 -13.19 6.11zm48.55 -96.62l13.19 -6.11 28.27 61.06 -13.19 6.11 -4.07 -8.8c-1.77,9.22 -7.29,15.98 -16.57,20.28 -8.38,3.88 -16.99,4.09 -25.81,0.61 -8.83,-3.48 -15.32,-9.69 -19.46,-18.65 -4.19,-9.04 -4.74,-18.03 -1.66,-26.97 3.08,-8.93 8.81,-15.35 17.2,-19.23 9.28,-4.3 17.99,-4.17 26.12,0.36l-4.02 -8.67zm-12.49 59.83c5.38,2.01 10.83,1.73 16.37,-0.83 5.54,-2.56 9.28,-6.55 11.22,-11.94 1.95,-5.4 1.63,-10.91 -0.97,-16.53 -2.6,-5.62 -6.59,-9.43 -11.97,-11.44 -5.38,-2.01 -10.84,-1.73 -16.37,0.83 -5.54,2.56 -9.28,6.55 -11.22,11.95 -1.95,5.4 -1.63,10.91 0.98,16.53 2.6,5.62 6.59,9.43 11.97,11.44zm79.32 -31.75l29.67 -13.74 5.77 12.46 -47.63 22.05 -4.07 -8.79 10.15 -53.04 -27.35 12.67 -5.77 -12.46 45.17 -20.91 4.07 8.79 -10 52.98zm64.21 -88.75l13.19 -6.1 28.27 61.06 -13.19 6.1 -4.07 -8.79c-1.77,9.22 -7.28,15.98 -16.57,20.27 -8.39,3.88 -16.99,4.09 -25.82,0.61 -8.83,-3.47 -15.31,-9.69 -19.46,-18.64 -4.19,-9.04 -4.74,-18.03 -1.66,-26.97 3.08,-8.94 8.81,-15.35 17.2,-19.23 9.28,-4.3 17.98,-4.18 26.12,0.36l-4.02 -8.67zm-12.49 59.84c5.38,2.01 10.84,1.73 16.37,-0.83 5.54,-2.56 9.28,-6.55 11.22,-11.95 1.95,-5.4 1.63,-10.91 -0.97,-16.52 -2.6,-5.62 -6.59,-9.43 -11.97,-11.44 -5.38,-2.01 -10.83,-1.73 -16.37,0.83 -5.54,2.56 -9.28,6.55 -11.23,11.95 -1.95,5.4 -1.62,10.91 0.98,16.53 2.6,5.61 6.59,9.43 11.96,11.44z"/>
   <path class="fil4" d="M4519.09 5009.17l2.71 5.87c5.43,11.72 6,23.1 1.71,34.13 -4.28,11.03 -12.66,19.43 -25.11,25.19 -13.19,6.11 -26.06,6.87 -38.6,2.3 -12.55,-4.57 -21.7,-13.08 -27.47,-25.54 -5.73,-12.37 -6.29,-24.84 -1.67,-37.41 4.61,-12.56 13.27,-21.78 25.97,-27.67 7.98,-3.69 16.12,-5.23 24.41,-4.63 8.3,0.61 15.7,3.17 22.23,7.65l-8.87 12.56c-4.17,-3.02 -9.06,-4.73 -14.69,-5.14 -5.63,-0.41 -11.21,0.67 -16.75,3.23 -8.96,4.15 -14.97,10.49 -18.04,19.02 -3.07,8.54 -2.56,17.2 1.5,26 4.07,8.8 10.36,14.73 18.85,17.82 8.5,3.08 17.47,2.44 26.91,-1.93 7.57,-3.51 12.92,-8.13 16.05,-13.88 3.12,-5.74 3.96,-11.89 2.51,-18.44l-28.58 13.23 -5.82 -12.58 42.74 -19.79zm19.04 7.5l-5.88 -12.7 45.19 -20.92 5.88 12.7 -45.18 20.92zm52.46 -90.72l12.21 -5.65 39.57 85.48 -14.05 6.5 -32.62 -70.46 -14.96 12.85 -8.96 -10.39 18.8 -18.34zm69.74 6.87c8.19,-3.79 16.21,-4.56 24.1,-2.34 7.88,2.24 13.81,7.63 17.77,16.17 3.96,8.55 4.18,16.61 0.66,24.17 -3.52,7.56 -9.47,13.28 -17.85,17.17 -6.76,3.13 -13.47,4.33 -20.13,3.61 -6.66,-0.72 -12.46,-3.54 -17.42,-8.47l8.87 -12.56c5.86,6.68 13.31,7.93 22.35,3.74 4.8,-2.22 8.07,-5.25 9.81,-9.07 1.74,-3.82 1.63,-7.85 -0.33,-12.08 -1.96,-4.24 -4.93,-6.91 -8.91,-8.04 -3.98,-1.12 -8.33,-0.59 -13.05,1.59l-24.91 11.53 -17.66 -47.58 47.33 -21.91 6.11 13.19 -34.69 16.06 7.15 19.83 10.81 -5z"/>
   <path class="fil4" d="M5475.93 4566.21l2.71 5.86c5.43,11.72 6,23.1 1.71,34.13 -4.28,11.03 -12.65,19.43 -25.11,25.19 -13.19,6.1 -26.06,6.87 -38.6,2.3 -12.55,-4.57 -21.71,-13.09 -27.48,-25.54 -5.72,-12.37 -6.28,-24.84 -1.67,-37.41 4.61,-12.56 13.27,-21.79 25.97,-27.67 7.98,-3.69 16.11,-5.24 24.41,-4.63 8.29,0.61 15.7,3.17 22.23,7.65l-8.87 12.56c-4.17,-3.02 -9.06,-4.73 -14.69,-5.14 -5.63,-0.41 -11.21,0.67 -16.74,3.23 -8.96,4.15 -14.97,10.49 -18.04,19.03 -3.07,8.54 -2.57,17.2 1.5,25.99 4.07,8.8 10.35,14.74 18.85,17.82 8.5,3.09 17.47,2.44 26.91,-1.93 7.57,-3.5 12.92,-8.13 16.04,-13.88 3.13,-5.74 3.96,-11.89 2.52,-18.44l-28.58 13.23 -5.82 -12.58 42.74 -19.79zm19.04 7.5l-5.88 -12.7 45.19 -20.92 5.88 12.7 -45.19 20.92zm52.47 -90.72l12.21 -5.65 39.57 85.48 -14.04 6.5 -32.62 -70.46 -14.96 12.86 -8.96 -10.39 18.8 -18.34zm116.53 15.31l6.05 13.07 -9.77 4.52 7.12 15.39 -14.17 6.56 -7.12 -15.39 -42.01 19.45 -6.05 -13.06 3.03 -70.66 15.27 -7.07 -3.03 70.65 26.74 -12.38 -10.29 -22.23 14.17 -6.56 10.29 22.23 9.77 -4.52z"/>
   <path class="fil4" d="M5919.25 4360.98l2.72 5.86c5.43,11.72 6,23.1 1.71,34.13 -4.28,11.03 -12.66,19.43 -25.11,25.19 -13.19,6.11 -26.06,6.87 -38.6,2.3 -12.55,-4.57 -21.7,-13.09 -27.47,-25.54 -5.73,-12.37 -6.29,-24.84 -1.67,-37.41 4.61,-12.57 13.27,-21.79 25.97,-27.67 7.98,-3.69 16.11,-5.24 24.41,-4.63 8.29,0.61 15.7,3.17 22.23,7.65l-8.87 12.56c-4.17,-3.02 -9.06,-4.73 -14.69,-5.14 -5.63,-0.41 -11.21,0.67 -16.75,3.23 -8.96,4.15 -14.96,10.49 -18.03,19.03 -3.07,8.54 -2.57,17.2 1.5,25.99 4.07,8.8 10.35,14.73 18.85,17.82 8.5,3.09 17.47,2.44 26.91,-1.93 7.57,-3.5 12.92,-8.13 16.04,-13.88 3.12,-5.74 3.96,-11.89 2.51,-18.44l-28.58 13.23 -5.82 -12.58 42.74 -19.79zm19.04 7.5l-5.88 -12.7 45.19 -20.92 5.88 12.7 -45.19 20.92zm52.46 -90.72l12.21 -5.65 39.57 85.48 -14.05 6.5 -32.62 -70.46 -14.96 12.86 -8.96 -10.39 18.8 -18.34zm78.38 6.15c6.85,-1.39 13.2,-0.85 19.05,1.64 5.83,2.49 10.23,6.93 13.2,13.36 3.96,8.55 4.18,16.61 0.66,24.17 -3.52,7.56 -9.47,13.28 -17.86,17.17 -6.52,3.02 -13.05,4.22 -19.61,3.6 -6.57,-0.62 -12.32,-3.3 -17.28,-8.02l8.74 -12.5c5.92,6.16 13.19,7.24 21.82,3.24 4.89,-2.26 8.18,-5.3 9.88,-9.1 1.7,-3.8 1.57,-7.82 -0.39,-12.05 -1.96,-4.23 -4.93,-6.91 -8.91,-8.04 -3.98,-1.12 -8.41,-0.56 -13.3,1.71l-3.17 1.47 -9.52 -5.83 7.19 -32.84 -35.78 16.57 -6.11 -13.19 52.52 -24.31 5.54 11.96 -6.67 30.99z"/>
   <path class="fil4" d="M6692.69 5118.17l39.32 -18.2 6.22 13.43 -56.54 26.17 -5.37 -11.6 10.36 -78.2 -37.49 17.36 -6.22 -13.43 54.78 -25.36 5.31 11.48 -10.37 78.35zm53.18 -38.56c3.12,4.19 7.01,6.72 11.66,7.58 4.65,0.86 9.5,0.12 14.55,-2.21 7,-3.24 11.09,-8.2 12.25,-14.87l13.81 1.32c-1.92,11.66 -8.78,20.22 -20.58,25.69 -9.93,4.6 -19.35,5.28 -28.27,2.04 -8.91,-3.24 -15.52,-9.5 -19.81,-18.78 -4.22,-9.12 -4.74,-18.15 -1.56,-27.09 3.18,-8.93 9.49,-15.59 18.93,-19.96 8.96,-4.15 17.76,-4.41 26.4,-0.8 8.64,3.61 15.04,9.89 19.18,18.85 0.64,1.38 1.33,3.29 2.06,5.72l-48.6 22.5zm-5.1 -10.69l35.91 -16.62c-3.19,-4.55 -6.98,-7.34 -11.37,-8.38 -4.38,-1.03 -8.73,-0.56 -13.05,1.44 -4.88,2.26 -8.33,5.49 -10.35,9.68 -2.01,4.2 -2.39,8.82 -1.14,13.88zm67 -49.41c-0.17,-9.11 4.35,-15.8 13.55,-20.06l6.62 14.29c-5.2,2.01 -9.04,5.24 -11.52,9.71 -2.48,4.46 -2.27,9.82 0.63,16.09l14.25 30.78 -13.19 6.11 -28.27 -61.06 13.19 -6.11 4.75 10.26zm78.84 27.12c-8.95,4.14 -18,4.57 -27.13,1.29 -9.13,-3.29 -15.79,-9.45 -19.98,-18.48 -4.19,-9.04 -4.57,-18.1 -1.17,-27.19 3.41,-9.09 9.59,-15.7 18.54,-19.85 9.04,-4.19 18.1,-4.62 27.2,-1.32 9.09,3.31 15.73,9.48 19.91,18.52 4.19,9.04 4.6,18.09 1.24,27.16 -3.37,9.07 -9.57,15.7 -18.61,19.88zm-22.04 -12.04c5.36,1.97 10.72,1.71 16.1,-0.78 5.37,-2.49 9.05,-6.41 11.02,-11.77 1.96,-5.36 1.67,-10.81 -0.89,-16.34 -2.56,-5.54 -6.53,-9.29 -11.89,-11.26 -5.36,-1.97 -10.73,-1.71 -16.1,0.78 -5.37,2.49 -9.04,6.41 -11.01,11.77 -1.97,5.35 -1.67,10.81 0.89,16.34 2.56,5.54 6.52,9.29 11.88,11.26zm88.83 -124.61c8.06,-3.73 16.04,-4.16 23.94,-1.3 7.9,2.87 13.7,8.29 17.39,16.27 3.66,7.9 4.03,15.81 1.13,23.73 -2.91,7.92 -8.39,13.74 -16.45,17.48l-17.46 8.08 13.57 29.31 -14.04 6.5 -39.57 -85.48 31.51 -14.59zm19.9 42.99c4.15,-1.93 6.92,-4.91 8.31,-8.96 1.39,-4.06 1.08,-8.24 -0.92,-12.56 -2,-4.31 -4.99,-7.25 -8.98,-8.81 -3.99,-1.57 -8.06,-1.39 -12.21,0.53l-17.46 8.09 13.8 29.8 17.46 -8.08zm84.65 14.35c-8.96,4.15 -18,4.57 -27.13,1.29 -9.13,-3.28 -15.79,-9.44 -19.98,-18.48 -4.19,-9.04 -4.57,-18.11 -1.17,-27.2 3.41,-9.09 9.59,-15.7 18.54,-19.85 9.04,-4.19 18.1,-4.62 27.2,-1.32 9.09,3.31 15.73,9.48 19.91,18.52 4.19,9.04 4.6,18.09 1.24,27.16 -3.37,9.07 -9.57,15.7 -18.61,19.88zm-22.04 -12.04c5.36,1.97 10.72,1.71 16.1,-0.78 5.37,-2.49 9.05,-6.41 11.02,-11.77 1.96,-5.36 1.67,-10.81 -0.89,-16.34 -2.56,-5.54 -6.53,-9.29 -11.89,-11.26 -5.36,-1.97 -10.73,-1.71 -16.1,0.78 -5.37,2.49 -9.04,6.41 -11.01,11.77 -1.96,5.36 -1.67,10.81 0.9,16.35 2.56,5.53 6.52,9.29 11.88,11.25zm44.36 -88.53c-0.9,2.44 -2.49,4.19 -4.77,5.24 -2.28,1.06 -4.64,1.13 -7.08,0.24 -2.44,-0.9 -4.19,-2.49 -5.24,-4.77 -1.06,-2.28 -1.16,-4.63 -0.3,-7.05 0.86,-2.42 2.46,-4.18 4.83,-5.28 2.36,-1.09 4.74,-1.18 7.14,-0.26 2.4,0.91 4.13,2.51 5.19,4.79 1.06,2.28 1.13,4.64 0.24,7.08zm21.15 78.52l-28.27 -61.06 13.19 -6.11 28.27 61.06 -13.19 6.11zm31.57 -90.69c7,-3.24 13.7,-3.63 20.09,-1.15 6.39,2.48 11.39,7.63 15.01,15.44l17.35 37.49 -13.19 6.11 -16.74 -36.15c-2.11,-4.56 -4.95,-7.5 -8.53,-8.81 -3.57,-1.31 -7.48,-0.99 -11.71,0.97 -4.64,2.15 -7.72,5.33 -9.23,9.54 -1.51,4.21 -0.89,9.29 1.86,15.23l15.15 32.73 -13.19 6.11 -28.27 -61.06 13.19 -6.11 3.62 7.82c1.09,-8.12 5.94,-14.17 14.57,-18.17zm78.3 -18.9l-15.14 7.01 13.57 29.31c1.17,2.52 2.57,4.07 4.22,4.64 1.65,0.57 3.62,0.4 5.92,-0.52 2.3,-0.91 5.07,-2.22 8.33,-3.93l5.48 11.85c-9.53,5.89 -17.18,8.37 -22.95,7.44 -5.77,-0.94 -10.5,-5.39 -14.2,-13.37l-13.57 -29.31 -11.24 5.2 -5.88 -12.7 11.24 -5.2 -6.11 -13.19 11.38 -10.01 7.91 17.1 15.14 -7.01 5.88 12.7zm-507.16 342.14l14.04 -6.5 39.57 85.49 -14.04 6.5 -39.57 -85.48zm61.2 21.69c0.93,2.02 2.78,3.09 5.58,3.2 2.8,0.12 6,-0.06 9.61,-0.54 3.6,-0.51 7.3,-1.01 11.09,-1.5 3.79,-0.52 7.44,0.09 10.93,1.81 3.5,1.74 6.23,4.7 8.17,8.89 2.71,5.86 2.59,11.51 -0.39,16.94 -2.97,5.43 -7.88,9.72 -14.72,12.89 -6.03,2.79 -11.78,3.92 -17.26,3.4 -5.48,-0.53 -10.24,-2.58 -14.27,-6.15l8.31 -11.85c4.83,4.88 10.71,5.72 17.63,2.52 6.92,-3.2 9.33,-7.08 7.22,-11.64 -0.91,-1.95 -2.76,-3.02 -5.57,-3.21 -2.8,-0.19 -6.02,-0.03 -9.63,0.45 -3.61,0.48 -7.3,0.99 -11.09,1.5 -3.79,0.52 -7.4,-0.03 -10.87,-1.65 -3.46,-1.61 -6.13,-4.44 -8.02,-8.52 -2.6,-5.61 -2.56,-11.12 0.14,-16.52 2.69,-5.4 7.21,-9.56 13.56,-12.5 5.05,-2.33 10.06,-3.3 15.06,-2.89 4.98,0.41 9.46,2.12 13.42,5.13l-8.23 11.37c-4.27,-3.66 -9.17,-4.21 -14.71,-1.65 -2.52,1.17 -4.39,2.7 -5.59,4.57 -1.21,1.87 -1.33,3.85 -0.36,5.95zm64.22 24.05l-41.27 -89.15 13.19 -6.11 41.27 89.15 -13.19 6.11zm48.55 -96.62l13.19 -6.11 28.26 61.06 -13.19 6.11 -4.07 -8.8c-1.76,9.22 -7.28,15.98 -16.57,20.28 -8.39,3.88 -16.99,4.09 -25.82,0.61 -8.83,-3.48 -15.31,-9.69 -19.46,-18.65 -4.19,-9.04 -4.74,-18.03 -1.65,-26.97 3.08,-8.93 8.81,-15.35 17.2,-19.23 9.28,-4.3 17.98,-4.17 26.12,0.36l-4.02 -8.67zm-12.49 59.83c5.38,2.01 10.84,1.73 16.37,-0.83 5.54,-2.56 9.28,-6.55 11.22,-11.94 1.95,-5.4 1.63,-10.91 -0.97,-16.53 -2.6,-5.62 -6.59,-9.43 -11.97,-11.44 -5.37,-2.01 -10.83,-1.73 -16.37,0.83 -5.54,2.57 -9.28,6.55 -11.23,11.95 -1.94,5.4 -1.62,10.91 0.98,16.53 2.6,5.62 6.59,9.43 11.96,11.44zm107.02 -105.52c6.92,-3.2 13.53,-3.55 19.84,-1.03 6.31,2.52 11.21,7.56 14.72,15.13l17.52 37.86 -13.19 6.11 -17.13 -37c-1.96,-4.23 -4.54,-7.02 -7.73,-8.36 -3.19,-1.34 -6.62,-1.16 -10.28,0.54 -4.07,1.88 -6.68,4.72 -7.84,8.52 -1.16,3.8 -0.49,8.39 2,13.76l15.83 34.19 -13.19 6.11 -17.13 -37c-1.96,-4.23 -4.47,-7.05 -7.54,-8.44 -3.07,-1.4 -6.43,-1.25 -10.1,0.45 -3.99,1.85 -6.61,4.72 -7.87,8.61 -1.26,3.9 -0.67,8.49 1.78,13.78l15.83 34.2 -13.19 6.11 -28.27 -61.06 13.19 -6.11 3.39 7.33c1.16,-7.75 5.6,-13.42 13.34,-17 7.81,-3.62 15.09,-3.08 21.81,1.62 1.09,-8.31 5.83,-14.42 14.22,-18.3zm86.34 -38.04l13.19 -6.11 28.27 61.06 -13.19 6.1 -4.07 -8.79c-1.76,9.22 -7.28,15.98 -16.57,20.27 -8.39,3.88 -16.99,4.09 -25.82,0.61 -8.83,-3.48 -15.31,-9.69 -19.46,-18.65 -4.18,-9.04 -4.74,-18.03 -1.65,-26.97 3.08,-8.94 8.81,-15.35 17.2,-19.23 9.28,-4.3 17.98,-4.17 26.12,0.36l-4.02 -8.67zm-12.49 59.83c5.38,2.01 10.84,1.73 16.38,-0.83 5.53,-2.56 9.28,-6.55 11.22,-11.94 1.95,-5.41 1.63,-10.91 -0.98,-16.53 -2.6,-5.62 -6.59,-9.43 -11.97,-11.44 -5.37,-2.01 -10.83,-1.74 -16.37,0.83 -5.54,2.56 -9.28,6.55 -11.23,11.95 -1.94,5.4 -1.62,10.91 0.98,16.53 2.6,5.62 6.59,9.43 11.96,11.44zm74.9 -90.65c8.38,-3.88 16.98,-4.11 25.79,-0.67 8.81,3.44 15.3,9.68 19.49,18.72 4.15,8.95 4.69,17.92 1.63,26.9 -3.06,8.98 -8.78,15.41 -17.17,19.29 -9.28,4.3 -18.01,4.14 -26.18,-0.48l4.07 8.79 -13.19 6.11 -39.57 -85.48 13.19 -6.11 15.32 33.09c1.8,-9.14 7.34,-15.85 16.63,-20.15zm5.46 53.45c5.38,2.01 10.84,1.73 16.38,-0.83 5.53,-2.56 9.28,-6.55 11.22,-11.94 1.95,-5.4 1.63,-10.91 -0.98,-16.53 -2.6,-5.62 -6.59,-9.43 -11.97,-11.44 -5.37,-2.01 -10.83,-1.74 -16.37,0.83 -5.54,2.56 -9.28,6.55 -11.23,11.95 -1.94,5.4 -1.62,10.91 0.98,16.53 2.6,5.62 6.59,9.43 11.96,11.44zm86.01 -93.87l13.19 -6.11 28.27 61.06 -13.19 6.11 -4.07 -8.8c-1.76,9.22 -7.28,15.98 -16.57,20.28 -8.39,3.88 -16.99,4.09 -25.82,0.61 -8.83,-3.48 -15.31,-9.69 -19.46,-18.65 -4.18,-9.04 -4.74,-18.03 -1.65,-26.97 3.08,-8.93 8.81,-15.35 17.2,-19.23 9.28,-4.3 17.98,-4.17 26.12,0.36l-4.02 -8.67zm-12.49 59.83c5.38,2.01 10.84,1.73 16.38,-0.83 5.53,-2.56 9.28,-6.55 11.22,-11.94 1.95,-5.4 1.63,-10.91 -0.98,-16.53 -2.6,-5.62 -6.59,-9.43 -11.97,-11.44 -5.37,-2.01 -10.83,-1.73 -16.37,0.83 -5.54,2.56 -9.28,6.55 -11.23,11.95 -1.94,5.4 -1.62,10.91 0.98,16.53 2.6,5.62 6.59,9.43 11.96,11.44zm78.13 -119.87l13.19 -6.11 39.57 85.48 -13.19 6.11 -4.07 -8.8c-1.77,9.22 -7.29,15.98 -16.57,20.28 -8.39,3.88 -17,4.09 -25.82,0.61 -8.83,-3.48 -15.31,-9.69 -19.46,-18.65 -4.19,-9.04 -4.74,-18.03 -1.66,-26.97 3.08,-8.93 8.81,-15.35 17.2,-19.23 9.28,-4.3 17.98,-4.17 26.12,0.37l-15.32 -33.09zm-1.19 84.26c5.38,2.01 10.84,1.73 16.37,-0.83 5.54,-2.56 9.28,-6.54 11.22,-11.94 1.95,-5.4 1.63,-10.91 -0.97,-16.53 -2.6,-5.62 -6.59,-9.43 -11.97,-11.44 -5.38,-2.01 -10.84,-1.73 -16.37,0.83 -5.54,2.57 -9.28,6.55 -11.23,11.95 -1.95,5.4 -1.63,10.91 0.98,16.53 2.6,5.62 6.59,9.43 11.97,11.44z"/>
   <path class="fil4" d="M4015.06 5844.24c-8.22,3.81 -16.07,5.17 -23.54,4.08 -7.47,-1.09 -13.86,-4.36 -19.15,-9.82l8.81 -12.68c7.86,8.02 17.17,9.55 27.92,4.57 5.29,-2.45 8.78,-5.33 10.46,-8.63 1.7,-3.28 1.76,-6.6 0.22,-9.94 -1.61,-3.48 -4.27,-5.49 -7.97,-6 -3.69,-0.49 -9.69,-0.16 -17.95,0.99 -4.67,0.39 -8.49,0.67 -11.5,0.9 -3.01,0.23 -6.35,0.05 -10.05,-0.56 -3.69,-0.61 -6.89,-2.02 -9.6,-4.23 -2.7,-2.21 -4.94,-5.23 -6.71,-9.06 -3.5,-7.57 -3.6,-14.82 -0.28,-21.74 3.32,-6.93 8.77,-12.14 16.34,-15.65 6.83,-3.17 13.59,-4.27 20.27,-3.3 6.67,0.96 12.75,3.73 18.23,8.31l-8.68 12.32c-7.28,-6.32 -15.11,-7.54 -23.49,-3.65 -4.07,1.89 -6.89,4.35 -8.44,7.39 -1.56,3.04 -1.58,6.2 -0.07,9.45 1.44,3.11 3.81,4.98 7.15,5.61 3.34,0.65 8.74,0.45 16.21,-0.61 3.76,-0.26 6.5,-0.47 8.25,-0.61 1.75,-0.12 4.23,-0.3 7.51,-0.54 3.24,-0.24 5.83,-0.11 7.75,0.41 1.91,0.53 4.04,1.3 6.43,2.29 2.37,1 4.4,2.46 6.06,4.39 1.69,1.94 3.17,4.29 4.47,7.1 3.58,7.73 3.63,15.15 0.15,22.25 -3.49,7.1 -9.75,12.74 -18.79,16.93zm30.58 -77.78c-0.17,-9.11 4.35,-15.8 13.55,-20.06l6.62 14.29c-5.2,2.01 -9.04,5.25 -11.52,9.71 -2.48,4.46 -2.27,9.82 0.63,16.09l14.25 30.78 -13.19 6.11 -28.27 -61.06 13.19 -6.11 4.75 10.26zm30.94 -40.94c-0.89,2.44 -2.48,4.19 -4.76,5.24 -2.28,1.06 -4.64,1.13 -7.08,0.24 -2.44,-0.9 -4.19,-2.48 -5.24,-4.76 -1.06,-2.28 -1.15,-4.63 -0.3,-7.06 0.85,-2.42 2.46,-4.18 4.82,-5.28 2.36,-1.09 4.74,-1.18 7.15,-0.26 2.4,0.91 4.13,2.51 5.19,4.79 1.06,2.28 1.13,4.64 0.24,7.08zm21.15 78.52l-28.27 -61.06 13.19 -6.11 28.27 61.06 -13.19 6.11zm31.57 -90.69c7,-3.24 13.7,-3.63 20.09,-1.14 6.38,2.48 11.39,7.63 15,15.44l17.36 37.49 -13.19 6.11 -16.73 -36.15c-2.11,-4.56 -4.95,-7.5 -8.53,-8.81 -3.57,-1.31 -7.48,-0.98 -11.71,0.97 -4.64,2.15 -7.71,5.33 -9.23,9.54 -1.51,4.21 -0.89,9.29 1.86,15.23l15.15 32.73 -13.19 6.11 -28.27 -61.06 13.19 -6.11 3.62 7.82c1.09,-8.12 5.95,-14.17 14.58,-18.17zm86.71 -38.22l13.19 -6.11 28.27 61.06 -13.19 6.11 -4.07 -8.8c-1.77,9.22 -7.29,15.98 -16.57,20.28 -8.38,3.88 -16.99,4.09 -25.82,0.61 -8.83,-3.48 -15.31,-9.69 -19.46,-18.65 -4.19,-9.04 -4.74,-18.03 -1.66,-26.97 3.08,-8.93 8.81,-15.35 17.2,-19.23 9.28,-4.3 17.99,-4.17 26.12,0.36l-4.02 -8.67zm-12.49 59.83c5.38,2.01 10.83,1.73 16.37,-0.83 5.54,-2.56 9.28,-6.55 11.22,-11.94 1.95,-5.4 1.63,-10.91 -0.97,-16.53 -2.6,-5.62 -6.59,-9.43 -11.97,-11.44 -5.38,-2.01 -10.84,-1.73 -16.37,0.83 -5.54,2.56 -9.28,6.55 -11.22,11.95 -1.95,5.4 -1.63,10.91 0.98,16.53 2.6,5.62 6.59,9.43 11.97,11.44zm89.67 -95.57l12.94 -5.99 26.97 58.26c4.3,9.28 4.54,17.82 0.74,25.61 -3.81,7.8 -10.07,13.7 -18.78,17.74 -14.08,6.52 -26.01,6.06 -35.78,-1.38l8.3 -11.85c6.08,4.8 13.47,5.19 22.19,1.15 5.7,-2.64 9.47,-6.19 11.31,-10.65 1.84,-4.46 1.54,-9.33 -0.92,-14.63l-3.44 -7.45c-1.69,9.38 -7.13,16.2 -16.33,20.46 -8.63,4 -17.34,4.3 -26.13,0.9 -8.79,-3.39 -15.2,-9.44 -19.24,-18.16 -4.03,-8.71 -4.5,-17.52 -1.4,-26.42 3.1,-8.9 8.96,-15.34 17.59,-19.34 9.2,-4.26 17.93,-4 26.17,0.78l-4.18 -9.04zm-13.1 59.01c5.4,1.94 10.87,1.64 16.41,-0.93 5.54,-2.56 9.31,-6.54 11.32,-11.91 2.01,-5.38 1.75,-10.8 -0.78,-16.25 -2.52,-5.46 -6.49,-9.16 -11.89,-11.11 -5.4,-1.94 -10.87,-1.64 -16.41,0.92 -5.54,2.57 -9.31,6.54 -11.32,11.91 -2.01,5.38 -1.75,10.8 0.78,16.25 2.52,5.45 6.48,9.16 11.89,11.11zm89.79 -94.51l13.19 -6.1 28.27 61.06 -13.19 6.11 -4.07 -8.79c-1.77,9.22 -7.29,15.97 -16.57,20.27 -8.38,3.88 -16.99,4.09 -25.81,0.61 -8.83,-3.48 -15.32,-9.69 -19.46,-18.65 -4.19,-9.04 -4.74,-18.03 -1.66,-26.97 3.08,-8.93 8.81,-15.35 17.2,-19.23 9.28,-4.3 17.99,-4.17 26.12,0.37l-4.02 -8.67zm-12.49 59.83c5.38,2.01 10.83,1.74 16.37,-0.83 5.54,-2.56 9.28,-6.54 11.22,-11.94 1.95,-5.4 1.63,-10.91 -0.97,-16.53 -2.6,-5.62 -6.59,-9.43 -11.97,-11.44 -5.38,-2.01 -10.84,-1.73 -16.37,0.83 -5.54,2.56 -9.28,6.54 -11.22,11.94 -1.95,5.4 -1.63,10.91 0.98,16.53 2.6,5.62 6.59,9.43 11.97,11.44zm59 -68.91c-0.17,-9.12 4.35,-15.81 13.55,-20.07l6.62 14.29c-5.2,2.01 -9.04,5.25 -11.52,9.71 -2.48,4.46 -2.27,9.82 0.63,16.09l14.25 30.78 -13.19 6.11 -28.27 -61.06 13.19 -6.11 4.75 10.26zm94.59 -85.9l14.04 -6.5 39.57 85.49 -14.04 6.5 -17.13 -37 -36.64 16.96 17.13 37 -14.04 6.5 -39.57 -85.48 14.05 -6.5 16.22 35.05 36.63 -16.96 -16.22 -35.05zm48.71 -7.06c-0.9,2.44 -2.49,4.19 -4.77,5.24 -2.28,1.06 -4.63,1.13 -7.08,0.24 -2.44,-0.9 -4.19,-2.48 -5.24,-4.76 -1.06,-2.28 -1.16,-4.63 -0.3,-7.06 0.86,-2.42 2.46,-4.18 4.83,-5.28 2.36,-1.09 4.74,-1.18 7.14,-0.26 2.4,0.91 4.13,2.51 5.19,4.79 1.06,2.28 1.13,4.64 0.24,7.08zm21.15 78.52l-28.27 -61.06 13.19 -6.11 28.27 61.06 -13.19 6.11zm48.8 -96.74l12.94 -5.99 26.97 58.25c4.3,9.28 4.54,17.82 0.74,25.61 -3.81,7.79 -10.07,13.7 -18.78,17.74 -14.08,6.52 -26.01,6.06 -35.78,-1.38l8.3 -11.85c6.08,4.8 13.47,5.18 22.19,1.15 5.7,-2.64 9.47,-6.19 11.31,-10.65 1.84,-4.46 1.54,-9.34 -0.92,-14.63l-3.44 -7.45c-1.69,9.38 -7.13,16.2 -16.33,20.46 -8.63,4 -17.34,4.29 -26.13,0.9 -8.79,-3.4 -15.2,-9.45 -19.24,-18.16 -4.03,-8.72 -4.5,-17.52 -1.4,-26.42 3.1,-8.89 8.96,-15.34 17.59,-19.33 9.2,-4.26 17.93,-4 26.17,0.78l-4.18 -9.04zm-13.1 59c5.4,1.95 10.87,1.64 16.41,-0.92 5.54,-2.56 9.31,-6.54 11.32,-11.91 2.01,-5.37 1.75,-10.8 -0.78,-16.25 -2.52,-5.46 -6.49,-9.15 -11.89,-11.11 -5.4,-1.95 -10.87,-1.64 -16.41,0.92 -5.54,2.56 -9.31,6.54 -11.32,11.91 -2.01,5.38 -1.75,10.8 0.78,16.25 2.52,5.45 6.48,9.16 11.89,11.1zm72.81 -88.57c7,-3.24 13.7,-3.63 20.09,-1.14 6.38,2.48 11.39,7.63 15,15.44l17.36 37.49 -13.19 6.11 -16.73 -36.15c-2.11,-4.56 -4.95,-7.49 -8.53,-8.81 -3.57,-1.31 -7.48,-0.98 -11.71,0.98 -4.64,2.15 -7.71,5.33 -9.23,9.54 -1.51,4.21 -0.89,9.29 1.86,15.23l15.15 32.73 -13.19 6.11 -39.57 -85.48 13.19 -6.11 14.93 32.24c1.09,-8.12 5.94,-14.17 14.57,-18.17zm107.71 -47.94l13.92 -6.44 9.09 69.94 -12.94 5.99 -32.24 -35.69 6.35 47.67 -13.98 6.47 -46.04 -52.83 13.96 -6.46 31.31 36.67 -6.69 -48.07 12.64 -5.85 32.2 36.23 -7.59 -47.62zm69.61 -32.22l13.19 -6.11 28.26 61.06 -13.19 6.1 -4.07 -8.79c-1.76,9.22 -7.28,15.98 -16.57,20.27 -8.39,3.88 -16.99,4.09 -25.82,0.61 -8.83,-3.47 -15.31,-9.69 -19.46,-18.64 -4.19,-9.04 -4.74,-18.03 -1.65,-26.97 3.08,-8.94 8.81,-15.35 17.2,-19.23 9.28,-4.3 17.98,-4.18 26.12,0.36l-4.02 -8.67zm-12.49 59.83c5.38,2.01 10.84,1.73 16.37,-0.83 5.54,-2.56 9.28,-6.55 11.22,-11.95 1.95,-5.4 1.63,-10.91 -0.97,-16.52 -2.6,-5.62 -6.59,-9.43 -11.97,-11.44 -5.37,-2.01 -10.83,-1.73 -16.37,0.83 -5.54,2.56 -9.28,6.55 -11.23,11.95 -1.94,5.4 -1.62,10.91 0.98,16.53 2.6,5.61 6.59,9.43 11.96,11.44zm82.22 -92.12l14.04 -6.5 5.72 73.87c1.45,18.51 -5.02,30.59 -19.4,36.26l-5.71 -12.33c4.27,-1.68 7.2,-4.1 8.8,-7.26 1.6,-3.17 2.24,-7.24 1.91,-12.23l0.04 -1.5 -53.65 -47.98 14.41 -6.67 38.74 35.9 -4.91 -51.56z"/>
   <path class="fil4" d="M6175.26 5059.16c-8.22,3.81 -16.07,5.17 -23.54,4.08 -7.48,-1.08 -13.86,-4.36 -19.15,-9.82l8.81 -12.68c7.87,8.02 17.18,9.55 27.92,4.57 5.29,-2.45 8.78,-5.33 10.46,-8.63 1.7,-3.28 1.76,-6.6 0.22,-9.94 -1.61,-3.48 -4.27,-5.49 -7.97,-6 -3.69,-0.49 -9.69,-0.16 -17.95,0.99 -4.67,0.38 -8.49,0.67 -11.5,0.9 -3.01,0.23 -6.35,0.05 -10.05,-0.56 -3.7,-0.61 -6.89,-2.02 -9.6,-4.23 -2.7,-2.21 -4.94,-5.23 -6.71,-9.06 -3.5,-7.57 -3.6,-14.82 -0.28,-21.74 3.32,-6.93 8.76,-12.14 16.33,-15.65 6.84,-3.17 13.59,-4.27 20.27,-3.3 6.68,0.96 12.76,3.73 18.24,8.31l-8.68 12.32c-7.28,-6.32 -15.11,-7.54 -23.49,-3.65 -4.07,1.88 -6.89,4.35 -8.44,7.39 -1.56,3.04 -1.58,6.2 -0.07,9.45 1.44,3.11 3.81,4.98 7.15,5.61 3.34,0.65 8.74,0.45 16.2,-0.61 3.76,-0.26 6.51,-0.47 8.25,-0.61 1.75,-0.12 4.24,-0.3 7.52,-0.54 3.24,-0.24 5.83,-0.11 7.75,0.41 1.9,0.53 4.04,1.3 6.42,2.29 2.37,1 4.4,2.46 6.06,4.39 1.69,1.94 3.17,4.29 4.47,7.1 3.58,7.73 3.63,15.15 0.14,22.25 -3.48,7.1 -9.74,12.74 -18.78,16.93zm30.58 -77.78c-0.17,-9.11 4.35,-15.8 13.55,-20.06l6.61 14.29c-5.2,2.01 -9.04,5.25 -11.52,9.71 -2.48,4.46 -2.27,9.82 0.63,16.09l14.24 30.78 -13.19 6.11 -28.27 -61.06 13.19 -6.11 4.75 10.26zm30.94 -40.94c-0.9,2.44 -2.49,4.19 -4.76,5.24 -2.28,1.06 -4.64,1.13 -7.08,0.24 -2.44,-0.9 -4.19,-2.48 -5.24,-4.76 -1.06,-2.28 -1.15,-4.63 -0.3,-7.06 0.86,-2.42 2.46,-4.18 4.83,-5.28 2.36,-1.09 4.74,-1.18 7.14,-0.26 2.4,0.91 4.13,2.51 5.19,4.79 1.06,2.28 1.13,4.64 0.24,7.08zm21.15 78.52l-28.27 -61.06 13.19 -6.11 28.27 61.06 -13.19 6.11zm31.57 -90.69c7,-3.24 13.7,-3.63 20.09,-1.15 6.39,2.48 11.39,7.63 15.01,15.44l17.36 37.49 -13.19 6.11 -16.74 -36.15c-2.11,-4.56 -4.95,-7.5 -8.53,-8.81 -3.57,-1.31 -7.48,-0.98 -11.71,0.97 -4.64,2.15 -7.72,5.33 -9.23,9.54 -1.51,4.21 -0.89,9.29 1.86,15.23l15.15 32.73 -13.19 6.11 -28.27 -61.06 13.19 -6.11 3.62 7.82c1.09,-8.12 5.95,-14.17 14.57,-18.17zm86.71 -38.22l13.19 -6.11 28.27 61.06 -13.19 6.11 -4.07 -8.8c-1.76,9.22 -7.28,15.98 -16.57,20.28 -8.39,3.88 -16.99,4.09 -25.82,0.61 -8.83,-3.48 -15.31,-9.69 -19.46,-18.65 -4.18,-9.04 -4.74,-18.03 -1.65,-26.97 3.08,-8.93 8.81,-15.35 17.2,-19.23 9.28,-4.3 17.98,-4.17 26.12,0.36l-4.02 -8.67zm-12.49 59.83c5.38,2.01 10.84,1.73 16.38,-0.83 5.53,-2.56 9.28,-6.55 11.22,-11.94 1.95,-5.4 1.63,-10.91 -0.98,-16.53 -2.6,-5.62 -6.59,-9.43 -11.97,-11.44 -5.38,-2.01 -10.84,-1.73 -16.37,0.83 -5.54,2.56 -9.28,6.55 -11.23,11.95 -1.94,5.4 -1.62,10.91 0.98,16.53 2.6,5.62 6.59,9.43 11.96,11.44zm89.67 -95.57l12.94 -5.99 26.97 58.26c4.3,9.28 4.54,17.82 0.74,25.61 -3.81,7.8 -10.07,13.7 -18.78,17.74 -14.08,6.52 -26.01,6.06 -35.78,-1.38l8.3 -11.85c6.08,4.8 13.47,5.19 22.19,1.15 5.7,-2.64 9.47,-6.19 11.31,-10.65 1.84,-4.46 1.54,-9.33 -0.91,-14.63l-3.45 -7.45c-1.69,9.38 -7.13,16.2 -16.33,20.46 -8.63,4 -17.34,4.3 -26.13,0.9 -8.79,-3.39 -15.2,-9.44 -19.24,-18.16 -4.03,-8.71 -4.5,-17.52 -1.4,-26.42 3.1,-8.9 8.96,-15.34 17.59,-19.34 9.2,-4.26 17.93,-4 26.17,0.78l-4.19 -9.04zm-13.09 59.01c5.4,1.94 10.87,1.64 16.41,-0.93 5.54,-2.56 9.31,-6.54 11.32,-11.91 2,-5.38 1.75,-10.8 -0.78,-16.25 -2.53,-5.46 -6.49,-9.16 -11.89,-11.11 -5.4,-1.94 -10.87,-1.64 -16.41,0.92 -5.54,2.57 -9.31,6.54 -11.32,11.91 -2.01,5.38 -1.75,10.8 0.78,16.25 2.52,5.45 6.48,9.16 11.89,11.11zm89.79 -94.51l13.19 -6.1 28.27 61.06 -13.19 6.11 -4.07 -8.79c-1.76,9.22 -7.28,15.97 -16.57,20.27 -8.39,3.88 -16.99,4.09 -25.82,0.61 -8.83,-3.48 -15.31,-9.69 -19.46,-18.65 -4.18,-9.04 -4.74,-18.03 -1.65,-26.97 3.08,-8.93 8.81,-15.35 17.2,-19.23 9.28,-4.3 17.98,-4.17 26.12,0.37l-4.02 -8.67zm-12.49 59.83c5.38,2.01 10.84,1.74 16.38,-0.83 5.53,-2.56 9.28,-6.54 11.22,-11.94 1.95,-5.4 1.63,-10.91 -0.98,-16.53 -2.6,-5.62 -6.59,-9.43 -11.97,-11.44 -5.38,-2.01 -10.84,-1.73 -16.37,0.83 -5.54,2.57 -9.28,6.55 -11.23,11.95 -1.94,5.4 -1.62,10.91 0.98,16.53 2.6,5.62 6.59,9.43 11.96,11.44zm59.01 -68.91c-0.17,-9.11 4.35,-15.8 13.55,-20.06l6.62 14.29c-5.2,2.01 -9.04,5.25 -11.52,9.71 -2.48,4.46 -2.27,9.82 0.63,16.09l14.25 30.78 -13.19 6.11 -28.27 -61.06 13.19 -6.11 4.75 10.26zm94.59 -85.9l14.04 -6.5 39.57 85.49 -14.05 6.5 -17.13 -37 -36.63 16.96 17.13 37 -14.04 6.5 -39.57 -85.48 14.04 -6.5 16.23 35.05 36.63 -16.96 -16.22 -35.05zm48.71 -7.06c-0.9,2.44 -2.49,4.19 -4.77,5.24 -2.28,1.06 -4.64,1.13 -7.08,0.24 -2.44,-0.9 -4.19,-2.48 -5.24,-4.76 -1.06,-2.28 -1.16,-4.63 -0.3,-7.06 0.86,-2.42 2.46,-4.18 4.83,-5.28 2.36,-1.09 4.74,-1.18 7.14,-0.26 2.4,0.91 4.13,2.51 5.19,4.79 1.06,2.28 1.13,4.64 0.24,7.08zm21.15 78.52l-28.27 -61.06 13.19 -6.11 28.27 61.06 -13.19 6.11zm48.79 -96.74l12.94 -5.99 26.97 58.25c4.3,9.28 4.54,17.82 0.74,25.61 -3.81,7.79 -10.07,13.7 -18.78,17.74 -14.08,6.52 -26.01,6.06 -35.78,-1.38l8.3 -11.85c6.08,4.8 13.47,5.18 22.19,1.15 5.7,-2.64 9.47,-6.19 11.31,-10.65 1.84,-4.46 1.54,-9.34 -0.91,-14.63l-3.45 -7.45c-1.69,9.38 -7.13,16.2 -16.33,20.46 -8.63,3.99 -17.34,4.29 -26.13,0.9 -8.79,-3.4 -15.2,-9.45 -19.24,-18.16 -4.03,-8.72 -4.5,-17.52 -1.4,-26.42 3.1,-8.89 8.96,-15.34 17.59,-19.33 9.2,-4.26 17.93,-4 26.17,0.78l-4.19 -9.04zm-13.09 59c5.4,1.95 10.87,1.64 16.41,-0.92 5.54,-2.56 9.31,-6.54 11.32,-11.91 2,-5.37 1.75,-10.8 -0.78,-16.25 -2.53,-5.46 -6.49,-9.16 -11.89,-11.11 -5.4,-1.95 -10.87,-1.64 -16.41,0.92 -5.54,2.56 -9.31,6.54 -11.32,11.91 -2.01,5.38 -1.75,10.8 0.78,16.25 2.52,5.45 6.48,9.16 11.89,11.1zm72.81 -88.57c7,-3.24 13.7,-3.63 20.09,-1.14 6.38,2.48 11.39,7.63 15,15.44l17.36 37.49 -13.19 6.11 -16.73 -36.15c-2.11,-4.56 -4.96,-7.49 -8.53,-8.81 -3.57,-1.31 -7.47,-0.98 -11.71,0.98 -4.64,2.15 -7.72,5.33 -9.23,9.54 -1.51,4.21 -0.89,9.29 1.86,15.23l15.15 32.73 -13.19 6.11 -39.57 -85.48 13.19 -6.11 14.93 32.24c1.09,-8.12 5.95,-14.17 14.57,-18.17zm107.72 -47.94l13.92 -6.44 9.09 69.94 -12.94 5.99 -32.24 -35.69 6.35 47.67 -13.98 6.47 -46.04 -52.83 13.96 -6.46 31.31 36.67 -6.68 -48.07 12.64 -5.85 32.2 36.23 -7.59 -47.62zm69.61 -32.23l13.19 -6.1 28.27 61.06 -13.19 6.1 -4.07 -8.79c-1.77,9.22 -7.29,15.98 -16.57,20.27 -8.39,3.88 -16.99,4.09 -25.82,0.61 -8.83,-3.47 -15.31,-9.69 -19.46,-18.64 -4.19,-9.04 -4.74,-18.03 -1.66,-26.97 3.08,-8.94 8.81,-15.35 17.2,-19.23 9.28,-4.3 17.98,-4.18 26.12,0.36l-4.01 -8.67zm-12.49 59.84c5.38,2.01 10.84,1.73 16.37,-0.83 5.54,-2.56 9.28,-6.55 11.22,-11.95 1.95,-5.4 1.63,-10.91 -0.97,-16.52 -2.6,-5.62 -6.59,-9.43 -11.97,-11.44 -5.38,-2.01 -10.84,-1.73 -16.37,0.83 -5.54,2.56 -9.28,6.55 -11.23,11.95 -1.95,5.4 -1.62,10.91 0.98,16.53 2.6,5.61 6.59,9.43 11.97,11.44zm82.22 -92.12l14.04 -6.5 5.72 73.87c1.45,18.51 -5.02,30.59 -19.4,36.26l-5.71 -12.33c4.27,-1.68 7.2,-4.1 8.8,-7.26 1.6,-3.17 2.24,-7.24 1.91,-12.23l0.04 -1.5 -53.65 -47.98 14.41 -6.67 38.74 35.9 -4.91 -51.56z"/>
   <path class="fil4" d="M995.53 7031.55l14.04 -6.5 39.57 85.48 -10.99 5.09 -67.15 -39.35 26.85 58.01 -14.04 6.5 -39.57 -85.49 10.7 -4.95 67.62 39.6 -27.03 -58.39zm68.71 41.75c3.13,4.19 7.02,6.71 11.67,7.57 4.65,0.86 9.5,0.13 14.55,-2.21 7,-3.24 11.09,-8.19 12.25,-14.86l13.81 1.32c-1.92,11.66 -8.78,20.22 -20.59,25.69 -9.93,4.6 -19.35,5.28 -28.27,2.04 -8.91,-3.24 -15.52,-9.5 -19.82,-18.78 -4.22,-9.12 -4.74,-18.15 -1.56,-27.09 3.18,-8.93 9.49,-15.59 18.94,-19.96 8.96,-4.15 17.76,-4.42 26.39,-0.8 8.65,3.61 15.04,9.89 19.19,18.85 0.64,1.38 1.33,3.29 2.06,5.72l-48.61 22.5zm-5.09 -10.69l35.9 -16.62c-3.19,-4.56 -6.98,-7.35 -11.37,-8.38 -4.38,-1.04 -8.73,-0.56 -13.05,1.44 -4.89,2.26 -8.33,5.49 -10.35,9.69 -2.01,4.19 -2.39,8.82 -1.14,13.87zm116.95 -84.99l13.93 -6.44 9.09 69.94 -12.94 6 -32.24 -35.69 6.35 47.68 -13.98 6.47 -46.04 -52.83 13.96 -6.46 31.31 36.67 -6.68 -48.07 12.64 -5.85 32.19 36.23 -7.59 -47.62zm43.77 -49.92l14.05 -6.5 39.57 85.48 -14.04 6.5 -39.57 -85.49zm61.2 21.69c0.93,2.02 2.79,3.09 5.59,3.2 2.8,0.11 6,-0.06 9.61,-0.54 3.59,-0.51 7.3,-1.01 11.09,-1.5 3.79,-0.52 7.44,0.09 10.93,1.81 3.5,1.74 6.23,4.7 8.17,8.89 2.72,5.86 2.59,11.51 -0.39,16.94 -2.98,5.43 -7.88,9.73 -14.72,12.89 -6.02,2.79 -11.78,3.92 -17.26,3.4 -5.48,-0.53 -10.24,-2.58 -14.26,-6.15l8.3 -11.85c4.83,4.88 10.71,5.72 17.63,2.52 6.92,-3.2 9.32,-7.08 7.21,-11.64 -0.91,-1.96 -2.76,-3.02 -5.56,-3.21 -2.81,-0.19 -6.02,-0.03 -9.63,0.45 -3.61,0.48 -7.3,0.98 -11.09,1.5 -3.79,0.52 -7.41,-0.04 -10.87,-1.65 -3.46,-1.61 -6.14,-4.45 -8.02,-8.52 -2.6,-5.62 -2.56,-11.13 0.14,-16.52 2.69,-5.4 7.21,-9.56 13.56,-12.5 5.05,-2.34 10.06,-3.3 15.05,-2.89 4.98,0.41 9.46,2.12 13.42,5.13l-8.23 11.37c-4.27,-3.66 -9.17,-4.21 -14.7,-1.65 -2.52,1.17 -4.39,2.7 -5.59,4.57 -1.21,1.87 -1.33,3.86 -0.36,5.95zm64.22 24.05l-41.27 -89.15 13.19 -6.11 41.27 89.15 -13.19 6.11zm48.55 -96.62l13.19 -6.11 28.27 61.06 -13.19 6.1 -4.07 -8.79c-1.77,9.22 -7.29,15.98 -16.57,20.27 -8.39,3.88 -17,4.09 -25.82,0.61 -8.83,-3.48 -15.31,-9.69 -19.46,-18.65 -4.19,-9.04 -4.74,-18.03 -1.66,-26.97 3.08,-8.94 8.81,-15.35 17.2,-19.23 9.28,-4.3 17.99,-4.17 26.12,0.36l-4.01 -8.67zm-12.49 59.83c5.38,2.01 10.83,1.73 16.37,-0.83 5.54,-2.56 9.28,-6.55 11.22,-11.95 1.95,-5.4 1.63,-10.91 -0.97,-16.52 -2.6,-5.62 -6.59,-9.43 -11.97,-11.44 -5.38,-2.01 -10.84,-1.74 -16.37,0.83 -5.54,2.56 -9.28,6.55 -11.22,11.95 -1.95,5.4 -1.63,10.91 0.98,16.53 2.6,5.61 6.59,9.43 11.97,11.44zm107.01 -105.52c6.92,-3.2 13.53,-3.55 19.84,-1.03 6.3,2.52 11.21,7.56 14.72,15.13l17.52 37.86 -13.19 6.1 -17.13 -37c-1.96,-4.24 -4.54,-7.02 -7.72,-8.36 -3.19,-1.34 -6.62,-1.16 -10.28,0.53 -4.07,1.89 -6.69,4.73 -7.85,8.53 -1.16,3.8 -0.49,8.38 2,13.76l15.83 34.2 -13.19 6.11 -17.13 -37c-1.96,-4.23 -4.48,-7.05 -7.54,-8.45 -3.07,-1.39 -6.43,-1.25 -10.1,0.45 -3.99,1.84 -6.61,4.72 -7.87,8.61 -1.26,3.9 -0.67,8.49 1.78,13.78l15.83 34.19 -13.19 6.11 -28.27 -61.06 13.19 -6.11 3.39 7.33c1.15,-7.76 5.6,-13.42 13.33,-17 7.82,-3.62 15.09,-3.08 21.81,1.62 1.09,-8.31 5.83,-14.41 14.22,-18.3zm86.35 -38.05l13.19 -6.1 28.27 61.06 -13.19 6.1 -4.07 -8.79c-1.77,9.22 -7.29,15.98 -16.57,20.27 -8.39,3.88 -17,4.09 -25.82,0.61 -8.83,-3.47 -15.31,-9.69 -19.46,-18.64 -4.19,-9.04 -4.74,-18.03 -1.66,-26.97 3.08,-8.94 8.81,-15.35 17.2,-19.23 9.28,-4.3 17.98,-4.18 26.12,0.36l-4.01 -8.67zm-12.49 59.84c5.38,2.01 10.84,1.73 16.37,-0.83 5.54,-2.56 9.28,-6.55 11.22,-11.95 1.95,-5.4 1.63,-10.91 -0.97,-16.52 -2.6,-5.62 -6.59,-9.43 -11.97,-11.44 -5.38,-2.01 -10.84,-1.73 -16.37,0.83 -5.54,2.56 -9.28,6.55 -11.23,11.95 -1.95,5.4 -1.63,10.91 0.98,16.53 2.6,5.61 6.59,9.43 11.97,11.44zm74.89 -90.65c8.39,-3.88 16.98,-4.1 25.79,-0.67 8.81,3.44 15.3,9.67 19.49,18.71 4.15,8.95 4.69,17.92 1.63,26.9 -3.06,8.98 -8.78,15.41 -17.17,19.29 -9.28,4.3 -18.01,4.14 -26.18,-0.48l4.07 8.79 -13.19 6.11 -39.57 -85.48 13.19 -6.11 15.32 33.09c1.8,-9.14 7.34,-15.85 16.62,-20.15zm5.46 53.45c5.38,2.01 10.83,1.73 16.37,-0.83 5.54,-2.56 9.28,-6.55 11.22,-11.95 1.95,-5.4 1.63,-10.91 -0.97,-16.52 -2.6,-5.62 -6.59,-9.43 -11.97,-11.44 -5.38,-2.01 -10.84,-1.73 -16.37,0.83 -5.54,2.56 -9.28,6.55 -11.23,11.95 -1.95,5.4 -1.63,10.91 0.98,16.53 2.6,5.61 6.59,9.43 11.97,11.44zm86.01 -93.87l13.19 -6.11 28.27 61.06 -13.19 6.1 -4.07 -8.79c-1.77,9.22 -7.29,15.98 -16.57,20.27 -8.39,3.88 -17,4.09 -25.82,0.61 -8.83,-3.48 -15.31,-9.69 -19.46,-18.65 -4.19,-9.04 -4.74,-18.03 -1.66,-26.97 3.08,-8.94 8.81,-15.35 17.2,-19.23 9.28,-4.3 17.98,-4.17 26.12,0.36l-4.01 -8.67zm-12.49 59.83c5.38,2.01 10.84,1.73 16.37,-0.83 5.54,-2.56 9.28,-6.55 11.22,-11.95 1.95,-5.4 1.63,-10.91 -0.97,-16.52 -2.6,-5.62 -6.59,-9.43 -11.97,-11.44 -5.38,-2.01 -10.84,-1.74 -16.37,0.83 -5.54,2.56 -9.28,6.55 -11.23,11.95 -1.95,5.4 -1.63,10.91 0.98,16.53 2.6,5.61 6.59,9.43 11.97,11.44zm78.12 -119.88l13.19 -6.1 39.57 85.48 -13.19 6.1 -4.07 -8.79c-1.76,9.22 -7.28,15.98 -16.57,20.27 -8.39,3.88 -16.99,4.09 -25.82,0.61 -8.83,-3.48 -15.31,-9.69 -19.46,-18.65 -4.18,-9.04 -4.74,-18.03 -1.65,-26.97 3.08,-8.94 8.81,-15.35 17.2,-19.23 9.28,-4.3 17.98,-4.17 26.12,0.36l-15.32 -33.09zm-1.19 84.26c5.38,2.01 10.84,1.73 16.38,-0.83 5.53,-2.56 9.28,-6.55 11.22,-11.94 1.95,-5.41 1.63,-10.91 -0.98,-16.53 -2.6,-5.62 -6.59,-9.43 -11.97,-11.44 -5.37,-2.01 -10.83,-1.74 -16.37,0.83 -5.54,2.56 -9.28,6.55 -11.23,11.95 -1.94,5.4 -1.62,10.91 0.98,16.53 2.6,5.62 6.59,9.43 11.96,11.44zm-792.67 430.45l14.04 -6.5 39.57 85.48 -14.04 6.5 -39.57 -85.48zm72.97 -6.05c7,-3.24 13.7,-3.63 20.09,-1.14 6.39,2.48 11.39,7.63 15.01,15.44l17.35 37.49 -13.19 6.1 -16.74 -36.15c-2.11,-4.56 -4.95,-7.49 -8.53,-8.81 -3.57,-1.31 -7.48,-0.98 -11.71,0.98 -4.64,2.15 -7.72,5.33 -9.23,9.54 -1.51,4.21 -0.89,9.29 1.86,15.23l15.15 32.73 -13.19 6.11 -28.27 -61.06 13.19 -6.11 3.62 7.81c1.09,-8.12 5.95,-14.17 14.57,-18.17zm78.3 -18.9l-15.14 7.01 13.57 29.31c1.17,2.52 2.57,4.07 4.22,4.65 1.65,0.57 3.62,0.4 5.92,-0.52 2.3,-0.91 5.07,-2.22 8.33,-3.93l5.48 11.85c-9.53,5.9 -17.18,8.38 -22.95,7.44 -5.77,-0.94 -10.5,-5.39 -14.2,-13.37l-13.57 -29.31 -11.24 5.2 -5.88 -12.7 11.24 -5.2 -6.11 -13.19 11.38 -10.01 7.91 17.09 15.14 -7.01 5.88 12.7zm30.76 14.23c3.13,4.19 7.01,6.71 11.67,7.57 4.65,0.86 9.5,0.13 14.54,-2.21 7,-3.24 11.09,-8.2 12.25,-14.87l13.81 1.32c-1.92,11.66 -8.78,20.22 -20.59,25.69 -9.93,4.6 -19.35,5.28 -28.27,2.04 -8.92,-3.24 -15.52,-9.5 -19.82,-18.78 -4.22,-9.12 -4.74,-18.15 -1.56,-27.09 3.18,-8.93 9.49,-15.59 18.94,-19.96 8.96,-4.15 17.76,-4.42 26.39,-0.8 8.65,3.61 15.04,9.89 19.19,18.85 0.64,1.39 1.33,3.29 2.05,5.72l-48.6 22.5zm-5.09 -10.69l35.9 -16.62c-3.19,-4.56 -6.98,-7.35 -11.37,-8.38 -4.38,-1.04 -8.73,-0.56 -13.05,1.44 -4.89,2.26 -8.33,5.49 -10.35,9.69 -2.01,4.19 -2.39,8.82 -1.14,13.87zm66.99 -49.4c-0.17,-9.12 4.35,-15.81 13.55,-20.07l6.61 14.29c-5.2,2.01 -9.04,5.25 -11.52,9.71 -2.48,4.46 -2.27,9.82 0.63,16.09l14.25 30.78 -13.19 6.11 -28.27 -61.06 13.19 -6.11 4.75 10.26zm55.21 -39.94c7,-3.24 13.7,-3.63 20.09,-1.15 6.39,2.48 11.39,7.63 15.01,15.44l17.35 37.49 -13.19 6.11 -16.74 -36.15c-2.11,-4.56 -4.95,-7.5 -8.53,-8.81 -3.57,-1.31 -7.48,-0.99 -11.71,0.97 -4.64,2.15 -7.72,5.33 -9.23,9.54 -1.51,4.21 -0.89,9.29 1.86,15.23l15.15 32.73 -13.19 6.11 -28.27 -61.06 13.19 -6.11 3.62 7.82c1.09,-8.12 5.94,-14.17 14.57,-18.17zm86.71 -38.22l13.19 -6.11 28.27 61.06 -13.19 6.1 -4.07 -8.79c-1.77,9.22 -7.29,15.98 -16.57,20.27 -8.39,3.88 -16.99,4.09 -25.82,0.61 -8.83,-3.48 -15.31,-9.69 -19.46,-18.65 -4.19,-9.04 -4.74,-18.03 -1.66,-26.97 3.08,-8.94 8.81,-15.35 17.2,-19.23 9.28,-4.3 17.98,-4.17 26.12,0.36l-4.01 -8.67zm-12.49 59.83c5.38,2.01 10.84,1.73 16.37,-0.83 5.54,-2.56 9.28,-6.55 11.22,-11.94 1.95,-5.41 1.63,-10.91 -0.97,-16.53 -2.6,-5.62 -6.59,-9.43 -11.97,-11.44 -5.38,-2.01 -10.84,-1.74 -16.37,0.83 -5.54,2.56 -9.28,6.55 -11.23,11.95 -1.95,5.4 -1.62,10.91 0.98,16.53 2.6,5.62 6.59,9.43 11.97,11.44zm81.02 -76.14l-15.14 7.01 13.57 29.31c1.17,2.52 2.57,4.07 4.22,4.64 1.65,0.57 3.62,0.4 5.92,-0.52 2.3,-0.91 5.07,-2.22 8.33,-3.93l5.48 11.85c-9.53,5.89 -17.18,8.37 -22.95,7.44 -5.78,-0.94 -10.51,-5.39 -14.2,-13.37l-13.57 -29.31 -11.24 5.2 -5.88 -12.7 11.24 -5.2 -6.11 -13.19 11.38 -10.01 7.92 17.1 15.14 -7.01 5.88 12.7zm13.21 -35.7c-0.9,2.44 -2.48,4.19 -4.76,5.24 -2.28,1.06 -4.64,1.13 -7.08,0.24 -2.44,-0.9 -4.19,-2.49 -5.24,-4.77 -1.06,-2.28 -1.15,-4.63 -0.3,-7.05 0.86,-2.42 2.46,-4.18 4.83,-5.28 2.36,-1.09 4.74,-1.18 7.14,-0.26 2.4,0.91 4.13,2.51 5.19,4.79 1.06,2.28 1.13,4.64 0.24,7.08zm21.15 78.52l-28.27 -61.06 13.19 -6.11 28.27 61.06 -13.19 6.11zm58.01 -24.93c-8.95,4.15 -18,4.57 -27.13,1.29 -9.13,-3.28 -15.79,-9.44 -19.98,-18.48 -4.18,-9.04 -4.57,-18.11 -1.17,-27.2 3.41,-9.09 9.59,-15.7 18.54,-19.85 9.04,-4.19 18.1,-4.62 27.2,-1.32 9.09,3.31 15.73,9.48 19.91,18.52 4.18,9.04 4.59,18.09 1.23,27.16 -3.37,9.07 -9.57,15.7 -18.61,19.88zm-22.04 -12.04c5.36,1.97 10.72,1.71 16.1,-0.78 5.37,-2.49 9.05,-6.41 11.02,-11.77 1.96,-5.36 1.67,-10.81 -0.89,-16.34 -2.56,-5.54 -6.53,-9.29 -11.89,-11.26 -5.36,-1.97 -10.73,-1.71 -16.1,0.78 -5.37,2.49 -9.04,6.41 -11.01,11.77 -1.97,5.36 -1.67,10.81 0.89,16.35 2.56,5.53 6.52,9.29 11.88,11.25zm68.63 -87.53c7,-3.24 13.7,-3.62 20.09,-1.14 6.39,2.48 11.39,7.63 15.01,15.44l17.35 37.49 -13.19 6.1 -16.74 -36.15c-2.11,-4.56 -4.95,-7.49 -8.53,-8.8 -3.57,-1.31 -7.48,-0.99 -11.71,0.97 -4.64,2.15 -7.72,5.33 -9.23,9.54 -1.51,4.21 -0.89,9.29 1.86,15.23l15.15 32.73 -13.19 6.11 -28.27 -61.06 13.19 -6.11 3.62 7.81c1.09,-8.11 5.94,-14.17 14.57,-18.17zm86.71 -38.22l13.19 -6.1 28.26 61.06 -13.19 6.1 -4.07 -8.79c-1.76,9.22 -7.28,15.98 -16.57,20.27 -8.39,3.88 -16.99,4.09 -25.82,0.61 -8.83,-3.47 -15.31,-9.69 -19.46,-18.64 -4.19,-9.04 -4.74,-18.03 -1.65,-26.97 3.08,-8.94 8.81,-15.35 17.2,-19.23 9.28,-4.3 17.98,-4.18 26.12,0.36l-4.02 -8.67zm-12.49 59.84c5.38,2.01 10.84,1.73 16.37,-0.83 5.54,-2.56 9.28,-6.55 11.22,-11.95 1.95,-5.4 1.63,-10.91 -0.97,-16.52 -2.6,-5.62 -6.59,-9.43 -11.97,-11.44 -5.37,-2.01 -10.83,-1.73 -16.37,0.83 -5.54,2.56 -9.28,6.55 -11.23,11.95 -1.94,5.4 -1.62,10.91 0.98,16.53 2.6,5.61 6.59,9.43 11.96,11.44zm69.33 -12l-41.27 -89.15 13.19 -6.11 41.27 89.15 -13.19 6.11zm-585.52 418.26l-14 -14.43 -36.35 16.83 1.99 19.99 -15.26 7.07 -8.56 -99.84 16.85 -7.8 70.47 71.18 -15.14 7.01zm-51.81 -12.94l27.09 -12.54 -31.38 -32.33 4.29 44.88zm54.11 -76.44c-0.89,2.44 -2.48,4.19 -4.76,5.24 -2.28,1.06 -4.64,1.14 -7.08,0.24 -2.44,-0.9 -4.19,-2.48 -5.24,-4.76 -1.06,-2.28 -1.15,-4.63 -0.3,-7.06 0.85,-2.42 2.46,-4.18 4.82,-5.28 2.36,-1.09 4.74,-1.18 7.15,-0.26 2.4,0.91 4.13,2.51 5.19,4.79 1.06,2.28 1.13,4.64 0.24,7.08zm21.15 78.52l-28.27 -61.06 13.19 -6.11 28.27 61.06 -13.19 6.11zm18.12 -70.08c-0.17,-9.11 4.35,-15.81 13.55,-20.06l6.61 14.29c-5.2,2.01 -9.04,5.24 -11.52,9.7 -2.48,4.46 -2.27,9.83 0.63,16.09l14.24 30.78 -13.19 6.11 -28.27 -61.06 13.19 -6.11 4.75 10.26zm57.66 -41.07c8.39,-3.88 16.99,-4.09 25.82,-0.61 8.83,3.48 15.31,9.69 19.46,18.65 4.18,9.04 4.74,18.02 1.66,26.96 -3.08,8.94 -8.81,15.35 -17.2,19.23 -9.28,4.3 -17.99,4.18 -26.12,-0.36l15.32 33.09 -13.19 6.11 -39.57 -85.48 13.19 -6.11 4.07 8.79c1.76,-9.22 7.28,-15.98 16.57,-20.27zm5.46 53.45c5.38,2.01 10.84,1.73 16.38,-0.83 5.53,-2.56 9.28,-6.55 11.22,-11.95 1.95,-5.4 1.63,-10.91 -0.97,-16.52 -2.6,-5.62 -6.59,-9.43 -11.97,-11.44 -5.38,-2.01 -10.84,-1.74 -16.37,0.83 -5.54,2.56 -9.28,6.55 -11.23,11.95 -1.94,5.4 -1.62,10.91 0.98,16.53 2.6,5.61 6.59,9.43 11.96,11.44zm95.47 -22.18c-8.95,4.15 -18,4.58 -27.13,1.3 -9.13,-3.29 -15.79,-9.45 -19.97,-18.48 -4.19,-9.04 -4.57,-18.11 -1.17,-27.19 3.41,-9.09 9.59,-15.7 18.54,-19.85 9.04,-4.19 18.1,-4.62 27.2,-1.32 9.09,3.3 15.73,9.48 19.91,18.52 4.18,9.04 4.59,18.09 1.23,27.16 -3.37,9.07 -9.57,15.7 -18.61,19.88zm-22.04 -12.04c5.36,1.97 10.72,1.7 16.1,-0.78 5.37,-2.48 9.05,-6.41 11.02,-11.77 1.97,-5.35 1.67,-10.81 -0.89,-16.34 -2.56,-5.54 -6.53,-9.29 -11.88,-11.26 -5.36,-1.97 -10.73,-1.7 -16.1,0.78 -5.37,2.49 -9.04,6.41 -11.01,11.77 -1.97,5.36 -1.67,10.81 0.89,16.35 2.56,5.54 6.52,9.29 11.88,11.26zm55.18 -66.92c-0.17,-9.12 4.35,-15.81 13.55,-20.07l6.61 14.29c-5.2,2.01 -9.04,5.25 -11.52,9.71 -2.48,4.46 -2.27,9.82 0.63,16.09l14.25 30.78 -13.19 6.11 -28.27 -61.06 13.19 -6.11 4.75 10.26zm65.37 -27.3l-15.14 7.01 13.57 29.31c1.17,2.52 2.57,4.07 4.22,4.65 1.65,0.57 3.62,0.4 5.92,-0.52 2.3,-0.91 5.07,-2.22 8.33,-3.93l5.48 11.85c-9.53,5.89 -17.18,8.37 -22.95,7.44 -5.78,-0.94 -10.51,-5.39 -14.2,-13.37l-13.57 -29.31 -11.24 5.2 -5.88 -12.7 11.24 -5.2 -6.11 -13.19 11.38 -10.01 7.92 17.09 15.14 -7.01 5.88 12.7z"/>
   <path class="fil4" d="M2262.01 6771.14c-7.52,3.48 -14.71,4.73 -21.55,3.73 -6.84,-0.99 -12.68,-3.99 -17.53,-8.99l8.06 -11.6c7.2,7.34 15.72,8.74 25.56,4.19 4.85,-2.24 8.04,-4.87 9.58,-7.89 1.55,-3 1.61,-6.05 0.2,-9.1 -1.48,-3.19 -3.91,-5.02 -7.3,-5.49 -3.38,-0.45 -8.87,-0.15 -16.43,0.91 -4.28,0.35 -7.78,0.61 -10.53,0.82 -2.75,0.21 -5.81,0.05 -9.2,-0.52 -3.38,-0.56 -6.31,-1.85 -8.78,-3.87 -2.48,-2.02 -4.52,-4.78 -6.15,-8.29 -3.21,-6.93 -3.29,-13.56 -0.26,-19.9 3.04,-6.34 8.02,-11.11 14.96,-14.32 6.26,-2.9 12.44,-3.91 18.55,-3.03 6.11,0.89 11.67,3.42 16.69,7.61l-7.95 11.28c-6.66,-5.79 -13.83,-6.9 -21.5,-3.35 -3.73,1.73 -6.3,3.98 -7.73,6.77 -1.43,2.79 -1.44,5.67 -0.07,8.65 1.32,2.85 3.49,4.56 6.54,5.13 3.06,0.6 8,0.42 14.83,-0.56 3.44,-0.23 5.96,-0.43 7.55,-0.55 1.6,-0.11 3.87,-0.28 6.87,-0.49 2.97,-0.22 5.34,-0.1 7.1,0.38 1.74,0.48 3.69,1.19 5.88,2.09 2.17,0.92 4.03,2.25 5.55,4.02 1.54,1.77 2.91,3.93 4.09,6.49 3.28,7.08 3.32,13.87 0.13,20.37 -3.19,6.5 -8.92,11.67 -17.19,15.5zm65.95 -30.53c-8.19,3.79 -16.48,4.19 -24.83,1.18 -8.36,-3.01 -14.46,-8.65 -18.28,-16.92 -3.83,-8.27 -4.19,-16.57 -1.07,-24.89 3.11,-8.32 8.78,-14.38 16.97,-18.17 8.27,-3.83 16.57,-4.23 24.89,-1.21 8.32,3.02 14.4,8.67 18.23,16.94 3.83,8.27 4.2,16.56 1.13,24.86 -3.08,8.3 -8.76,14.37 -17.03,18.2zm-20.17 -11.02c4.91,1.8 9.82,1.56 14.74,-0.71 4.92,-2.28 8.28,-5.87 10.08,-10.78 1.8,-4.91 1.53,-9.9 -0.81,-14.96 -2.35,-5.07 -5.97,-8.5 -10.88,-10.31 -4.91,-1.8 -9.81,-1.56 -14.74,0.72 -4.92,2.28 -8.28,5.87 -10.08,10.77 -1.8,4.91 -1.53,9.9 0.82,14.96 2.35,5.06 5.97,8.5 10.88,10.3zm59.96 -9.17l-37.78 -81.6 12.07 -5.59 37.78 81.6 -12.07 5.59zm6.69 -83.93c-0.82,2.24 -2.28,3.83 -4.36,4.8 -2.08,0.97 -4.24,1.04 -6.48,0.22 -2.24,-0.82 -3.83,-2.27 -4.8,-4.36 -0.97,-2.09 -1.06,-4.24 -0.28,-6.46 0.78,-2.22 2.26,-3.83 4.42,-4.83 2.16,-1 4.34,-1.09 6.54,-0.25 2.2,0.84 3.78,2.3 4.75,4.39 0.96,2.09 1.04,4.24 0.22,6.48zm19.36 71.87l-25.87 -55.89 12.07 -5.59 25.87 55.89 -12.07 5.59zm36.74 -70.76l-13.86 6.41 12.42 26.83c1.07,2.31 2.36,3.73 3.87,4.25 1.51,0.52 3.31,0.36 5.42,-0.47 2.1,-0.84 4.65,-2.04 7.63,-3.6l5.02 10.84c-8.72,5.4 -15.72,7.67 -21.01,6.81 -5.28,-0.86 -9.61,-4.94 -12.99,-12.24l-12.42 -26.83 -10.28 4.76 -5.38 -11.63 10.28 -4.76 -5.59 -12.07 10.42 -9.17 7.24 15.65 13.86 -6.41 5.38 11.63zm47.6 -36.16l12.07 -5.59 25.87 55.89 -12.07 5.59 -3.73 -8.05c-1.61,8.44 -6.67,14.63 -15.16,18.56 -7.68,3.56 -15.56,3.74 -23.63,0.56 -8.08,-3.18 -14.02,-8.87 -17.81,-17.07 -3.83,-8.27 -4.34,-16.5 -1.52,-24.68 2.82,-8.18 8.06,-14.05 15.74,-17.6 8.5,-3.93 16.46,-3.82 23.91,0.33l-3.68 -7.94zm-11.43 54.77c4.93,1.84 9.92,1.59 14.99,-0.76 5.07,-2.35 8.49,-5.99 10.28,-10.94 1.78,-4.94 1.48,-9.98 -0.89,-15.13 -2.38,-5.14 -6.03,-8.63 -10.96,-10.47 -4.92,-1.84 -9.92,-1.59 -14.98,0.76 -5.07,2.35 -8.5,5.99 -10.28,10.94 -1.78,4.94 -1.48,9.98 0.89,15.13 2.38,5.14 6.04,8.63 10.96,10.47zm44.1 -82.85c-0.82,2.23 -2.27,3.83 -4.36,4.8 -2.09,0.96 -4.25,1.04 -6.48,0.22 -2.23,-0.82 -3.83,-2.28 -4.8,-4.36 -0.97,-2.09 -1.06,-4.24 -0.28,-6.46 0.78,-2.22 2.26,-3.83 4.42,-4.83 2.16,-1 4.34,-1.08 6.54,-0.24 2.2,0.84 3.78,2.3 4.74,4.39 0.97,2.09 1.04,4.24 0.22,6.48zm19.36 71.87l-25.87 -55.89 12.07 -5.59 25.88 55.89 -12.07 5.59zm16.59 -64.15c-0.15,-8.34 3.98,-14.47 12.41,-18.37l6.06 13.08c-4.76,1.85 -8.28,4.8 -10.55,8.89 -2.27,4.08 -2.08,8.99 0.58,14.73l13.04 28.17 -12.07 5.59 -25.87 -55.89 12.07 -5.59 4.35 9.39zm44.06 8.38c2.86,3.83 6.42,6.15 10.67,6.94 4.26,0.79 8.69,0.11 13.31,-2.03 6.41,-2.97 10.15,-7.5 11.21,-13.61l12.64 1.21c-1.75,10.68 -8.03,18.52 -18.84,23.52 -9.09,4.2 -17.72,4.83 -25.87,1.87 -8.16,-2.96 -14.21,-8.7 -18.14,-17.19 -3.86,-8.35 -4.34,-16.61 -1.43,-24.79 2.91,-8.18 8.69,-14.27 17.33,-18.27 8.2,-3.8 16.25,-4.04 24.16,-0.74 7.91,3.31 13.76,9.06 17.56,17.26 0.59,1.27 1.22,3.01 1.89,5.24l-44.49 20.6zm-4.67 -9.78l32.87 -15.22c-2.92,-4.17 -6.39,-6.72 -10.41,-7.67 -4.02,-0.94 -8,-0.5 -11.94,1.32 -4.47,2.07 -7.63,5.03 -9.47,8.87 -1.84,3.84 -2.19,8.07 -1.04,12.7zm-289.33 213.3l12.85 -5.95 36.22 78.25 -12.85 5.95 -15.68 -33.87 -33.54 15.53 15.68 33.87 -12.85 5.95 -36.22 -78.25 12.85 -5.95 14.85 32.08 33.54 -15.52 -14.85 -32.08zm91 54.66c-8.2,3.8 -16.48,4.19 -24.83,1.18 -8.36,-3.01 -14.46,-8.65 -18.29,-16.92 -3.83,-8.27 -4.19,-16.57 -1.07,-24.89 3.11,-8.32 8.77,-14.38 16.97,-18.17 8.27,-3.83 16.57,-4.23 24.89,-1.21 8.32,3.02 14.4,8.68 18.23,16.94 3.83,8.27 4.2,16.56 1.13,24.86 -3.08,8.3 -8.76,14.37 -17.03,18.2zm-20.17 -11.02c4.91,1.8 9.82,1.56 14.74,-0.71 4.92,-2.28 8.28,-5.87 10.08,-10.78 1.8,-4.91 1.53,-9.89 -0.81,-14.96 -2.35,-5.07 -5.97,-8.5 -10.88,-10.3 -4.91,-1.8 -9.81,-1.57 -14.74,0.71 -4.92,2.28 -8.28,5.87 -10.08,10.78 -1.8,4.91 -1.53,9.89 0.82,14.96 2.35,5.07 5.97,8.5 10.88,10.3zm69.54 -67.35l-13.86 6.42 12.42 26.83c1.07,2.31 2.36,3.73 3.87,4.25 1.51,0.53 3.31,0.37 5.42,-0.46 2.1,-0.84 4.64,-2.04 7.63,-3.6l5.02 10.84c-8.72,5.39 -15.72,7.67 -21.01,6.81 -5.28,-0.86 -9.61,-4.94 -12.99,-12.24l-12.42 -26.83 -10.28 4.76 -5.39 -11.63 10.29 -4.76 -5.59 -12.07 10.41 -9.17 7.24 15.65 13.86 -6.41 5.38 11.62zm28.16 13.03c2.86,3.83 6.42,6.15 10.67,6.94 4.26,0.79 8.7,0.11 13.32,-2.03 6.41,-2.97 10.15,-7.5 11.21,-13.61l12.64 1.21c-1.75,10.68 -8.03,18.52 -18.84,23.52 -9.09,4.21 -17.71,4.83 -25.87,1.87 -8.16,-2.96 -14.2,-8.7 -18.14,-17.19 -3.87,-8.35 -4.34,-16.61 -1.43,-24.78 2.91,-8.18 8.69,-14.28 17.33,-18.28 8.2,-3.8 16.25,-4.04 24.16,-0.74 7.91,3.31 13.76,9.06 17.56,17.26 0.59,1.27 1.22,3.01 1.88,5.24l-44.49 20.59zm-4.67 -9.78l32.86 -15.22c-2.92,-4.17 -6.39,-6.72 -10.41,-7.67 -4.01,-0.94 -8,-0.5 -11.94,1.32 -4.47,2.07 -7.63,5.03 -9.47,8.87 -1.84,3.84 -2.19,8.07 -1.04,12.7zm70.78 6.87l-37.78 -81.6 12.07 -5.59 37.78 81.6 -12.07 5.59z"/>
   <path class="fil4" d="M2826.49 6504.13l5.69 12.3 -22.02 10.2 30.53 65.95 -12.85 5.95 -30.54 -65.95 -22.13 10.25 -5.69 -12.3 57.01 -26.39zm61.94 68.11c-8.2,3.8 -16.48,4.19 -24.84,1.18 -8.36,-3 -14.45,-8.65 -18.28,-16.92 -3.83,-8.27 -4.19,-16.57 -1.07,-24.89 3.12,-8.32 8.78,-14.38 16.97,-18.17 8.27,-3.83 16.57,-4.23 24.89,-1.21 8.32,3.02 14.4,8.68 18.23,16.95 3.83,8.27 4.2,16.56 1.13,24.86 -3.08,8.3 -8.76,14.37 -17.03,18.2zm-20.17 -11.02c4.91,1.8 9.81,1.57 14.74,-0.71 4.92,-2.28 8.28,-5.87 10.08,-10.78 1.8,-4.91 1.53,-9.89 -0.82,-14.96 -2.34,-5.07 -5.97,-8.5 -10.88,-10.3 -4.91,-1.8 -9.82,-1.56 -14.74,0.71 -4.92,2.28 -8.28,5.87 -10.08,10.78 -1.8,4.91 -1.53,9.89 0.81,14.96 2.35,5.07 5.98,8.5 10.88,10.3zm65.05 -81.15c7.67,-3.56 15.55,-3.74 23.63,-0.56 8.08,3.18 14.02,8.87 17.81,17.07 3.83,8.27 4.33,16.5 1.52,24.68 -2.81,8.18 -8.06,14.05 -15.74,17.6 -8.5,3.93 -16.46,3.82 -23.91,-0.33l14.02 30.29 -12.07 5.59 -36.22 -78.25 12.07 -5.59 3.73 8.05c1.61,-8.44 6.67,-14.63 15.17,-18.56zm5 48.93c4.93,1.84 9.92,1.59 14.99,-0.76 5.07,-2.35 8.49,-5.99 10.28,-10.94 1.78,-4.94 1.48,-9.98 -0.89,-15.13 -2.38,-5.14 -6.03,-8.63 -10.96,-10.47 -4.92,-1.84 -9.92,-1.59 -14.98,0.76 -5.07,2.35 -8.5,5.99 -10.28,10.94 -1.78,4.94 -1.48,9.98 0.89,15.13 2.38,5.14 6.04,8.63 10.96,10.47zm126.73 -38.51c-11.77,5.45 -23.34,6.07 -34.69,1.87 -11.35,-4.2 -19.69,-12.04 -25,-23.52 -5.31,-11.48 -5.89,-22.9 -1.75,-34.28 4.15,-11.37 12.11,-19.79 23.88,-25.24 7.08,-3.28 14.4,-4.63 21.95,-4.06 7.55,0.57 14.33,2.96 20.34,7.15l-8.18 11.65c-3.88,-2.91 -8.34,-4.57 -13.38,-5 -5.04,-0.43 -10.02,0.5 -14.94,2.78 -8.34,3.87 -13.88,9.64 -16.61,17.33 -2.73,7.69 -2.22,15.6 1.54,23.72 3.76,8.12 9.46,13.63 17.09,16.52 7.63,2.89 15.61,2.41 23.96,-1.46 4.92,-2.28 8.87,-5.48 11.83,-9.62 2.97,-4.13 4.57,-8.61 4.79,-13.41l14.13 1.2c-0.62,7.26 -3.15,13.97 -7.57,20.13 -4.43,6.17 -10.22,10.91 -17.38,14.22zm24.01 -93.72c-0.81,2.24 -2.27,3.83 -4.36,4.8 -2.09,0.96 -4.25,1.04 -6.48,0.22 -2.23,-0.82 -3.83,-2.27 -4.8,-4.36 -0.97,-2.09 -1.06,-4.24 -0.27,-6.46 0.78,-2.22 2.25,-3.82 4.41,-4.82 2.16,-1 4.34,-1.09 6.54,-0.25 2.2,0.84 3.78,2.3 4.75,4.39 0.96,2.09 1.04,4.24 0.21,6.48zm19.36 71.87l-25.87 -55.89 12.07 -5.59 25.87 55.89 -12.07 5.59zm36.74 -70.76l-13.86 6.42 12.42 26.83c1.07,2.31 2.36,3.73 3.87,4.25 1.51,0.52 3.31,0.37 5.41,-0.47 2.1,-0.84 4.65,-2.04 7.63,-3.6l5.02 10.84c-8.72,5.39 -15.72,7.67 -21.01,6.81 -5.28,-0.86 -9.61,-4.94 -13,-12.24l-12.42 -26.83 -10.29 4.76 -5.38 -11.63 10.29 -4.76 -5.59 -12.07 10.42 -9.17 7.24 15.65 13.86 -6.42 5.38 11.63zm44.36 -34.65l12.85 -5.95 5.24 67.61c1.33,16.94 -4.59,28.01 -17.75,33.2l-5.22 -11.29c3.9,-1.54 6.59,-3.75 8.05,-6.65 1.46,-2.9 2.05,-6.63 1.74,-11.19l0.04 -1.38 -49.1 -43.91 13.19 -6.11 35.46 32.86 -4.5 -47.19zm31.83 18.93l-5.38 -11.63 41.36 -19.15 5.38 11.63 -41.36 19.15zm48.03 -83.04l11.18 -5.18 36.22 78.25 -12.86 5.95 -29.86 -64.5 -13.69 11.76 -8.2 -9.5 17.2 -16.79z"/>
   <path class="fil4" d="M2359.61 5997.7l-4.64 -12.57 76.52 -28.25 4.64 12.57 -76.52 28.24zm-0.18 -63.4c-2.31,-6.27 -2.18,-12.07 0.4,-17.42 2.58,-5.34 7.37,-9.3 14.37,-11.89l33.56 -12.39 4.36 11.81 -32.35 11.94c-4.08,1.51 -6.81,3.76 -8.19,6.75 -1.38,2.99 -1.37,6.38 0.03,10.17 1.54,4.16 4.07,7.03 7.59,8.63 3.53,1.59 7.96,1.41 13.27,-0.55l29.3 -10.81 4.35 11.8 -54.65 20.18 -4.36 -11.8 7 -2.58c-6.93,-1.5 -11.82,-6.11 -14.67,-13.83zm-10.9 -68.89l5 13.55 26.23 -9.69c2.26,-0.83 3.69,-1.94 4.3,-3.32 0.61,-1.39 0.59,-3.1 -0.04,-5.15 -0.63,-2.04 -1.57,-4.53 -2.82,-7.46l10.6 -3.91c4.43,8.63 6.04,15.41 4.83,20.32 -1.2,4.92 -5.38,8.69 -12.52,11.33l-26.24 9.69 3.72 10.06 -11.37 4.2 -3.71 -10.06 -11.8 4.35 -7.86 -10.51 15.3 -5.65 -5 -13.56 11.37 -4.19zm14.41 -25.57c3.83,-2.41 6.28,-5.59 7.35,-9.54 1.07,-3.95 0.77,-8.19 -0.9,-12.71 -2.31,-6.26 -6.31,-10.13 -11.98,-11.6l2.09 -11.83c9.93,2.46 16.85,8.97 20.75,19.54 3.28,8.89 3.22,17.07 -0.19,24.54 -3.41,7.47 -9.27,12.74 -17.58,15.81 -8.17,3.01 -15.99,2.84 -23.48,-0.52 -7.5,-3.36 -12.8,-9.27 -15.92,-17.72 -2.96,-8.02 -2.58,-15.63 1.13,-22.84 3.71,-7.21 9.58,-12.3 17.59,-15.26 1.24,-0.46 2.93,-0.91 5.08,-1.37l16.06 43.5zm-9.57 3.66l-11.87 -32.13c-4.15,2.44 -6.82,5.52 -8.02,9.23 -1.2,3.71 -1.08,7.5 0.35,11.36 1.61,4.37 4.16,7.58 7.64,9.6 3.48,2.03 7.44,2.67 11.9,1.94zm-38.01 -61.24c-7.88,-0.48 -13.34,-4.85 -16.38,-13.08l12.79 -4.72c1.38,4.63 3.91,8.17 7.58,10.62 3.68,2.45 8.33,2.64 13.94,0.57l27.55 -10.17 4.35 11.8 -54.65 20.18 -4.36 -11.8 9.18 -3.39zm28.86 -66.17c3.04,8.23 2.81,16.12 -0.7,23.67 -3.51,7.54 -9.31,12.81 -17.39,15.8 -8.17,3.01 -16.01,2.78 -23.54,-0.69 -7.53,-3.47 -12.82,-9.33 -15.86,-17.56 -1.96,-5.32 -2.48,-10.64 -1.54,-15.95 0.94,-5.31 3.15,-9.86 6.65,-13.63l9.65 7.99c-2.17,2.21 -3.53,4.84 -4.1,7.91 -0.56,3.06 -0.24,6.24 0.97,9.52 1.78,4.81 4.9,8.23 9.38,10.26 4.48,2.03 9.16,2.15 14.04,0.35 4.88,-1.8 8.37,-4.93 10.45,-9.39 2.08,-4.45 2.24,-9.08 0.46,-13.9 -1.18,-3.2 -3.02,-5.82 -5.5,-7.84 -2.48,-2.02 -5.24,-3.22 -8.28,-3.59l2.04 -12.3c5.23,0.72 9.93,2.8 14.1,6.22 4.16,3.43 7.23,7.8 9.19,13.13zm-80.34 -40.64c-2.31,-6.27 -2.18,-12.07 0.41,-17.42 2.58,-5.34 7.37,-9.3 14.37,-11.89l33.56 -12.39 4.36 11.81 -32.35 11.94c-4.08,1.51 -6.81,3.76 -8.19,6.75 -1.38,2.99 -1.37,6.38 0.03,10.17 1.54,4.16 4.07,7.03 7.59,8.63 3.53,1.59 7.95,1.41 13.27,-0.55l29.3 -10.81 4.36 11.8 -76.52 28.25 -4.36 -11.81 28.86 -10.65c-6.93,-1.5 -11.82,-6.11 -14.67,-13.83zm-26.98 -77.48l-4.36 -11.8 54.65 -20.18 4.36 11.8 -7.87 2.91c7.83,2.16 13.29,7.39 16.35,15.7 2.77,7.5 2.35,14.94 -1.26,22.33 -3.61,7.38 -9.43,12.54 -17.44,15.5 -8.09,2.98 -15.89,2.84 -23.39,-0.43 -7.5,-3.28 -12.64,-8.67 -15.41,-16.17 -3.07,-8.31 -2.36,-15.81 2.12,-22.52l-7.76 2.87zm50.78 14.91c2.1,-4.5 2.24,-9.23 0.41,-14.19 -1.83,-4.96 -5.01,-8.46 -9.54,-10.52 -4.53,-2.06 -9.3,-2.15 -14.33,-0.3 -5.03,1.86 -8.59,5.04 -10.7,9.54 -2.1,4.5 -2.24,9.23 -0.41,14.19 1.83,4.95 5,8.46 9.53,10.52 4.53,2.06 9.31,2.15 14.33,0.3 5.03,-1.86 8.59,-5.04 10.7,-9.54zm-72.26 -68.71c-2.31,-6.27 -2.18,-12.07 0.4,-17.41 2.58,-5.34 7.37,-9.31 14.37,-11.89l33.56 -12.39 4.36 11.81 -32.35 11.94c-4.08,1.5 -6.81,3.76 -8.19,6.75 -1.38,2.99 -1.37,6.38 0.03,10.17 1.53,4.15 4.07,7.03 7.59,8.62 3.53,1.6 7.95,1.41 13.27,-0.55l29.3 -10.81 4.36 11.8 -54.66 20.18 -4.35 -11.8 6.99 -2.58c-6.93,-1.5 -11.82,-6.11 -14.67,-13.83zm-27.07 -77.7l-4.28 -11.59 52.14 -19.25c8.31,-3.07 15.69,-2.69 22.16,1.14 6.46,3.83 11.13,9.63 14.01,17.43 4.66,12.61 3.43,22.87 -3.66,30.79l-9.65 -7.99c4.56,-4.91 5.41,-11.27 2.52,-19.07 -1.88,-5.1 -4.69,-8.59 -8.41,-10.5 -3.72,-1.89 -7.95,-1.97 -12.69,-0.22l-6.67 2.46c7.98,2.11 13.49,7.28 16.53,15.51 2.85,7.72 2.51,15.26 -1.03,22.61 -3.54,7.35 -9.2,12.46 -17,15.34 -7.8,2.88 -15.43,2.67 -22.89,-0.61 -7.46,-3.29 -12.63,-8.8 -15.48,-16.52 -3.04,-8.24 -2.21,-15.75 2.49,-22.53l-8.09 2.98zm50.02 15.38c2.06,-4.53 2.17,-9.27 0.34,-14.22 -1.83,-4.96 -5,-8.48 -9.5,-10.59 -4.5,-2.1 -9.2,-2.26 -14.08,-0.45 -4.88,1.8 -8.35,4.97 -10.41,9.5 -2.06,4.53 -2.17,9.26 -0.34,14.22 1.83,4.96 5,8.48 9.5,10.59 4.5,2.11 9.2,2.26 14.08,0.45 4.89,-1.8 8.35,-4.96 10.41,-9.49zm-30.46 -61.97c3.83,-2.41 6.28,-5.59 7.35,-9.54 1.07,-3.95 0.76,-8.19 -0.91,-12.71 -2.31,-6.26 -6.31,-10.13 -11.98,-11.59l2.09 -11.83c9.93,2.46 16.85,8.97 20.75,19.54 3.28,8.89 3.22,17.07 -0.19,24.54 -3.41,7.47 -9.27,12.74 -17.58,15.81 -8.16,3.02 -15.99,2.84 -23.48,-0.52 -7.49,-3.36 -12.8,-9.26 -15.92,-17.72 -2.96,-8.02 -2.58,-15.63 1.13,-22.83 3.71,-7.21 9.58,-12.3 17.6,-15.26 1.24,-0.46 2.93,-0.91 5.07,-1.37l16.06 43.5zm-9.58 3.66l-11.86 -32.14c-4.15,2.44 -6.82,5.52 -8.02,9.24 -1.2,3.71 -1.08,7.5 0.34,11.36 1.61,4.37 4.16,7.57 7.64,9.6 3.48,2.03 7.44,2.67 11.9,1.94z"/>
   <path class="fil4" d="M1895.35 5288.24l36.22 78.25 -12.85 5.95 -25.82 -55.78 -5.59 50.37 -1.56 0.72 -42.08 -28.44 25.87 55.89 -12.85 5.95 -36.23 -78.25 13.86 -6.42 41.72 28.2 5.54 -50.08 13.77 -6.37zm62.89 -1.96l12.07 -5.59 25.87 55.89 -12.07 5.59 -3.31 -7.15c-0.99,7.43 -5.44,12.97 -13.34,16.63 -6.41,2.96 -12.54,3.31 -18.39,1.04 -5.85,-2.27 -10.43,-6.98 -13.74,-14.14l-15.89 -34.31 12.07 -5.59 15.32 33.09c1.93,4.17 4.53,6.86 7.8,8.06 3.27,1.2 6.85,0.91 10.72,-0.89 4.25,-1.97 7.06,-4.88 8.44,-8.73 1.39,-3.85 0.82,-8.5 -1.7,-13.94l-13.87 -29.96zm86.52 -41.82c6.33,-2.93 12.39,-3.24 18.17,-0.94 5.77,2.3 10.26,6.92 13.47,13.85l16.04 34.65 -12.07 5.59 -15.68 -33.87c-1.79,-3.88 -4.15,-6.43 -7.07,-7.65 -2.92,-1.22 -6.06,-1.06 -9.41,0.49 -3.72,1.72 -6.12,4.33 -7.18,7.8 -1.06,3.48 -0.45,7.68 1.83,12.59l14.49 31.3 -12.07 5.59 -15.68 -33.87c-1.79,-3.88 -4.09,-6.45 -6.9,-7.74 -2.81,-1.28 -5.89,-1.14 -9.24,0.41 -3.65,1.69 -6.06,4.32 -7.21,7.88 -1.15,3.57 -0.61,7.78 1.63,12.62l14.49 31.3 -12.07 5.59 -25.87 -55.89 12.07 -5.59 3.11 6.71c1.06,-7.09 5.13,-12.28 12.2,-15.56 7.16,-3.31 13.81,-2.82 19.96,1.48 1,-7.61 5.34,-13.2 13.01,-16.75zm71.34 -17.14l-13.86 6.42 12.42 26.83c1.07,2.31 2.36,3.73 3.87,4.25 1.51,0.52 3.31,0.37 5.42,-0.47 2.1,-0.84 4.65,-2.04 7.63,-3.6l5.02 10.84c-8.72,5.39 -15.72,7.67 -21.01,6.81 -5.28,-0.86 -9.61,-4.94 -12.99,-12.24l-12.42 -26.83 -10.28 4.76 -5.38 -11.63 10.28 -4.76 -5.59 -12.07 10.42 -9.17 7.24 15.65 13.86 -6.42 5.38 11.63zm47.61 -36.15l12.07 -5.59 25.87 55.89 -12.07 5.59 -3.73 -8.05c-1.61,8.44 -6.67,14.63 -15.16,18.56 -7.68,3.56 -15.55,3.74 -23.63,0.56 -8.08,-3.18 -14.02,-8.87 -17.81,-17.07 -3.83,-8.27 -4.34,-16.5 -1.52,-24.68 2.82,-8.18 8.06,-14.05 15.74,-17.61 8.5,-3.93 16.46,-3.82 23.91,0.33l-3.67 -7.93zm-11.43 54.77c4.93,1.84 9.92,1.59 14.99,-0.76 5.07,-2.34 8.5,-5.99 10.28,-10.93 1.78,-4.94 1.48,-9.98 -0.89,-15.13 -2.38,-5.14 -6.03,-8.63 -10.96,-10.47 -4.92,-1.84 -9.92,-1.59 -14.98,0.76 -5.07,2.35 -8.5,5.99 -10.28,10.93 -1.78,4.94 -1.48,9.99 0.89,15.13 2.38,5.14 6.04,8.63 10.96,10.47zm72.6 -29.06l27.17 -12.57 5.28 11.4 -43.59 20.18 -3.72 -8.05 9.28 -48.55 -25.04 11.59 -5.28 -11.4 41.34 -19.14 3.72 8.05 -9.16 48.49zm110.13 -35.37c-11.77,5.45 -23.34,6.08 -34.69,1.87 -11.36,-4.2 -19.69,-12.04 -25,-23.51 -5.31,-11.48 -5.9,-22.9 -1.75,-34.28 4.15,-11.37 12.11,-19.79 23.88,-25.24 7.08,-3.28 14.4,-4.63 21.95,-4.05 7.55,0.57 14.33,2.96 20.34,7.14l-8.18 11.66c-3.88,-2.91 -8.34,-4.58 -13.38,-5 -5.04,-0.43 -10.02,0.5 -14.94,2.78 -8.35,3.86 -13.89,9.64 -16.61,17.33 -2.73,7.69 -2.22,15.6 1.54,23.72 3.76,8.13 9.46,13.63 17.09,16.52 7.63,2.9 15.61,2.41 23.96,-1.45 4.92,-2.28 8.87,-5.48 11.84,-9.62 2.97,-4.13 4.57,-8.6 4.78,-13.41l14.13 1.19c-0.62,7.26 -3.15,13.97 -7.57,20.14 -4.43,6.17 -10.22,10.91 -17.38,14.22zm24.01 -93.71c-0.81,2.23 -2.27,3.83 -4.36,4.8 -2.09,0.96 -4.25,1.04 -6.48,0.22 -2.23,-0.82 -3.83,-2.28 -4.8,-4.36 -0.97,-2.09 -1.06,-4.24 -0.28,-6.46 0.78,-2.22 2.26,-3.83 4.42,-4.83 2.16,-1 4.34,-1.09 6.54,-0.24 2.2,0.84 3.78,2.3 4.74,4.39 0.97,2.09 1.04,4.24 0.22,6.48zm19.36 71.87l-25.87 -55.89 12.07 -5.59 25.87 55.89 -12.07 5.59zm36.74 -70.76l-13.86 6.41 12.42 26.83c1.07,2.31 2.36,3.72 3.87,4.25 1.51,0.52 3.31,0.37 5.41,-0.47 2.1,-0.84 4.65,-2.04 7.63,-3.6l5.02 10.84c-8.72,5.4 -15.72,7.67 -21.01,6.81 -5.28,-0.85 -9.61,-4.94 -13,-12.24l-12.42 -26.83 -10.29 4.76 -5.38 -11.63 10.29 -4.76 -5.59 -12.07 10.42 -9.17 7.24 15.65 13.86 -6.41 5.38 11.63zm44.36 -34.65l12.85 -5.95 5.24 67.62c1.33,16.94 -4.59,28 -17.75,33.19l-5.22 -11.29c3.9,-1.54 6.59,-3.75 8.05,-6.65 1.46,-2.89 2.05,-6.63 1.74,-11.19l0.04 -1.37 -49.11 -43.91 13.19 -6.11 35.46 32.86 -4.5 -47.19z"/>
   <g id="_2539967297376">
    <path class="fil5" d="M2668.7 3761.69c-48.9,22.64 -70.19,80.62 -47.55,129.52 22.64,48.9 80.62,70.19 129.52,47.55 48.9,-22.64 70.19,-80.63 47.55,-129.53 -22.64,-48.9 -80.62,-70.19 -129.52,-47.55z"/>
    <path class="fil1" d="M2713.33 3858.12c-14.2,6.57 -31.1,0.36 -37.67,-13.83 -6.57,-14.2 -0.37,-31.1 13.83,-37.67 14.2,-6.57 31.1,-0.37 37.67,13.83 6.57,14.19 0.37,31.1 -13.83,37.67zm-34.87 -75.34c-28.77,13.32 -41.29,47.43 -27.98,76.19 11.35,24.53 69.76,51.37 86.72,58.74 2.48,1.08 5.33,-0.24 6.12,-2.83 5.35,-17.7 22.67,-79.6 11.32,-104.13 -13.31,-28.76 -47.43,-41.29 -76.19,-27.97z"/>
   </g>
   <g id="_2539967294976">
    <path class="fil5" d="M4125.48 3671.45c-48.9,22.64 -70.19,80.62 -47.55,129.52 22.64,48.9 80.63,70.19 129.53,47.55 48.9,-22.64 70.19,-80.62 47.55,-129.52 -22.64,-48.9 -80.62,-70.19 -129.52,-47.55z"/>
    <path class="fil1" d="M4170.12 3767.87c-14.2,6.57 -31.1,0.37 -37.67,-13.83 -6.57,-14.2 -0.37,-31.1 13.83,-37.67 14.2,-6.57 31.1,-0.37 37.67,13.83 6.57,14.19 0.37,31.1 -13.83,37.67zm-34.87 -75.33c-28.77,13.32 -41.3,47.43 -27.98,76.19 11.35,24.53 69.76,51.37 86.72,58.74 2.48,1.08 5.33,-0.24 6.12,-2.83 5.35,-17.7 22.67,-79.61 11.32,-104.13 -13.31,-28.76 -47.43,-41.29 -76.19,-27.97z"/>
   </g>
   <g id="_2539967294688">
    <path class="fil5" d="M4699.1 4517.35c-48.9,22.64 -70.19,80.62 -47.55,129.52 22.64,48.9 80.63,70.19 129.52,47.55 48.9,-22.64 70.19,-80.62 47.55,-129.52 -22.64,-48.9 -80.62,-70.19 -129.52,-47.55z"/>
    <path class="fil1" d="M4743.74 4613.78c-14.2,6.57 -31.1,0.37 -37.67,-13.83 -6.57,-14.2 -0.37,-31.1 13.83,-37.67 14.2,-6.57 31.1,-0.37 37.67,13.83 6.57,14.19 0.37,31.09 -13.83,37.67zm-34.87 -75.33c-28.77,13.31 -41.3,47.43 -27.98,76.19 11.35,24.52 69.76,51.37 86.73,58.74 2.48,1.08 5.33,-0.24 6.12,-2.83 5.35,-17.71 22.68,-79.61 11.32,-104.13 -13.32,-28.76 -47.43,-41.28 -76.19,-27.97z"/>
   </g>
   <g id="_2539967292224">
    <path class="fil5" d="M5747.13 5578.36c-48.9,22.64 -70.19,80.62 -47.55,129.52 22.64,48.9 80.63,70.19 129.52,47.55 48.9,-22.64 70.19,-80.63 47.55,-129.52 -22.64,-48.9 -80.62,-70.19 -129.52,-47.55z"/>
    <path class="fil1" d="M5791.76 5674.78c-14.2,6.57 -31.1,0.37 -37.67,-13.83 -6.57,-14.2 -0.37,-31.1 13.83,-37.67 14.2,-6.57 31.1,-0.37 37.67,13.83 6.57,14.2 0.37,31.1 -13.83,37.67zm-34.87 -75.33c-28.77,13.31 -41.3,47.43 -27.98,76.19 11.35,24.53 69.76,51.37 86.73,58.74 2.48,1.08 5.33,-0.24 6.12,-2.83 5.35,-17.7 22.68,-79.6 11.32,-104.13 -13.32,-28.76 -47.43,-41.28 -76.19,-27.97z"/>
   </g>
   <g id="_2539967292416">
    <path class="fil5" d="M5130.37 4883.32c-48.9,22.64 -70.19,80.63 -47.55,129.53 22.64,48.9 80.62,70.19 129.52,47.55 48.9,-22.64 70.19,-80.62 47.55,-129.52 -22.64,-48.9 -80.63,-70.19 -129.52,-47.55z"/>
    <path class="fil1" d="M5175.01 4979.75c-14.19,6.57 -31.1,0.37 -37.67,-13.83 -6.57,-14.2 -0.37,-31.1 13.83,-37.67 14.2,-6.57 31.1,-0.37 37.67,13.83 6.57,14.19 0.37,31.1 -13.83,37.67zm-34.87 -75.33c-28.76,13.32 -41.29,47.43 -27.98,76.19 11.35,24.53 69.76,51.37 86.72,58.74 2.48,1.08 5.33,-0.24 6.12,-2.83 5.35,-17.71 22.67,-79.61 11.32,-104.13 -13.31,-28.76 -47.43,-41.28 -76.19,-27.97z"/>
   </g>
   <path class="fil5" d="M7305.27 4427.53c-88.39,40.92 -126.87,145.73 -85.95,234.12 40.92,88.39 145.73,126.87 234.13,85.95 88.39,-40.92 126.87,-145.73 85.95,-234.13 -40.92,-88.39 -145.73,-126.87 -234.13,-85.95z"/>
   <path class="fil5" d="M1592.99 7107.56c-67.56,31.28 -96.96,111.38 -65.69,178.94 31.27,67.56 111.38,96.96 178.93,65.69 67.56,-31.27 96.96,-111.38 65.69,-178.93 -31.28,-67.56 -111.38,-96.96 -178.94,-65.69z"/>
   <g id="_2539967290464">
    <path class="fil5" d="M3766.83 6780.12c-48.9,22.64 -70.19,80.63 -47.55,129.52 22.64,48.9 80.62,70.19 129.52,47.55 48.9,-22.64 70.19,-80.62 47.55,-129.52 -22.64,-48.9 -80.62,-70.19 -129.52,-47.55z"/>
    <path class="fil1" d="M3811.47 6876.54c-14.19,6.57 -31.1,0.37 -37.67,-13.83 -6.57,-14.2 -0.37,-31.1 13.83,-37.67 14.2,-6.57 31.1,-0.37 37.67,13.83 6.57,14.19 0.37,31.09 -13.83,37.67zm-34.87 -75.33c-28.76,13.31 -41.29,47.43 -27.98,76.19 11.35,24.52 69.76,51.37 86.72,58.74 2.48,1.08 5.33,-0.24 6.12,-2.83 5.35,-17.71 22.67,-79.61 11.32,-104.13 -13.31,-28.76 -47.43,-41.28 -76.19,-27.97z"/>
   </g>
   <g id="_2539967291424">
    <path class="fil5" d="M3367.69 5672.55c-48.9,22.64 -70.19,80.62 -47.55,129.52 22.64,48.9 80.63,70.19 129.52,47.55 48.9,-22.64 70.19,-80.63 47.55,-129.53 -22.64,-48.9 -80.62,-70.19 -129.52,-47.55z"/>
    <path class="fil1" d="M3412.33 5768.97c-14.2,6.57 -31.1,0.36 -37.67,-13.83 -6.57,-14.2 -0.37,-31.1 13.83,-37.67 14.2,-6.57 31.1,-0.37 37.67,13.83 6.57,14.19 0.37,31.1 -13.83,37.67zm-34.87 -75.34c-28.77,13.32 -41.3,47.43 -27.98,76.19 11.35,24.53 69.76,51.37 86.73,58.74 2.48,1.08 5.33,-0.24 6.12,-2.83 5.35,-17.7 22.68,-79.6 11.32,-104.13 -13.32,-28.76 -47.43,-41.29 -76.19,-27.97z"/>
   </g>
   <g id="_2539967288000">
    <path class="fil5" d="M3062.07 4871.33c-48.9,22.64 -70.19,80.63 -47.55,129.52 22.64,48.9 80.63,70.19 129.52,47.55 48.9,-22.64 70.19,-80.62 47.55,-129.52 -22.64,-48.9 -80.62,-70.19 -129.52,-47.55z"/>
    <path class="fil1" d="M3106.71 4967.76c-14.2,6.57 -31.1,0.37 -37.67,-13.83 -6.57,-14.2 -0.37,-31.1 13.83,-37.67 14.2,-6.57 31.1,-0.37 37.67,13.83 6.57,14.19 0.37,31.09 -13.83,37.67zm-34.87 -75.33c-28.77,13.32 -41.3,47.43 -27.98,76.19 11.35,24.53 69.76,51.37 86.73,58.74 2.48,1.08 5.33,-0.24 6.12,-2.83 5.35,-17.71 22.68,-79.61 11.32,-104.13 -13.32,-28.76 -47.43,-41.28 -76.19,-27.97z"/>
   </g>
   <g id="_2539967289376">
    <path class="fil5" d="M2062.91 6252.39c-103.13,47.74 -148.03,170.04 -100.28,273.17 47.74,103.14 170.04,148.03 273.17,100.29 103.13,-47.74 148.03,-170.04 100.29,-273.17 -47.74,-103.13 -170.04,-148.03 -273.18,-100.29z"/>
    <path class="fil1" d="M2157.05 6455.75c-29.94,13.86 -65.59,0.77 -79.45,-29.17 -13.87,-29.95 -0.77,-65.59 29.17,-79.46 29.95,-13.86 65.59,-0.78 79.45,29.17 13.86,29.93 0.78,65.59 -29.17,79.45zm-73.54 -158.89c-60.67,28.09 -87.09,100.03 -59,160.69 23.94,51.73 147.13,108.33 182.91,123.89 5.23,2.28 11.25,-0.51 12.91,-5.98 11.28,-37.35 47.82,-167.89 23.87,-219.62 -28.09,-60.66 -100.03,-87.07 -160.69,-58.99z"/>
   </g>
   <path class="fil6" d="M1691.05 7320.52c-5.12,-1.89 -9.07,-6.65 -12.93,-13.45l-27.43 21.07c-1.39,1.45 -2.43,1.03 -3.31,-0.44l-2.83 -7.63c-0.26,-1.29 -0.13,-2.52 0.65,-3.6l18.16 -31.76 -20.2 -39.43 -68.74 49.51c-1.59,1.31 -2.75,1.04 -3.4,-1.15l-4.09 -12.28 55.65 -77.01 -17.81 -35.32c-4.24,-11.22 -4.5,-20.69 -0.61,-26.46 2.15,-3.18 3.65,-4.04 7.32,-3.91 7.21,0.26 14.66,6.7 20.74,17.66l15.41 36.43 94.72 7.39 6.72 11.07c1.23,1.91 0.69,2.96 -1.33,3.34l-82.22 20.4 16.98 40.91 35.96 6.71c1.32,0.11 2.34,0.79 3.17,1.84l3.99 7.1c0.55,1.6 0.2,2.69 -1.81,2.8l-33.81 7.28c2.69,7.38 3.76,13.46 1.87,18.61 -0.19,0.46 -0.39,0.51 -0.84,0.34l0 0z"/>
   <path class="fil7" d="M2857.93 5797.1c-74.83,34.64 -107.41,123.37 -72.77,198.21 34.65,74.83 123.38,107.41 198.21,72.76 74.83,-34.64 107.41,-123.37 72.76,-198.21 -34.64,-74.83 -123.38,-107.41 -198.21,-72.76z"/>
   <g id="_2539967283712">
    <path class="fil1" d="M7345.81 4454.58l-47.24 21.87c17.36,30.97 24.47,59.44 17.91,84.59 -6.63,25.4 -27.04,47.07 -64.72,64.07l7.08 14.23 238.47 -110.39 -8.44 -17.48c-9.59,4.86 -18.87,8.51 -27.81,11.02 -23.6,6.63 -44.75,5.31 -62.65,-2.53 -17.91,-7.85 -32.45,-22.2 -42.81,-41.65 -3.85,-7.22 -7.12,-15.16 -9.78,-23.73zm-53.89 16.92l58.51 -27.09 1.15 4.11c2.7,9.63 6.2,18.46 10.42,26.38 9.59,18 22.95,31.24 39.31,38.41 16.37,7.18 35.87,8.34 57.76,2.19 9.48,-2.66 19.41,-6.69 29.73,-12.19l3.33 -1.77 14.93 30.91 -251.56 116.46 -13.64 -27.39 3.51 -1.52c37.67,-16.26 57.83,-36.81 64.09,-60.78 6.28,-24.06 -1.3,-51.92 -19.14,-82.6l-2 -3.44 3.61 -1.67z"/>
    <polygon class="fil6" points="7317.19,4463.82 7323.46,4460.91 7368.3,4557.78 7362.03,4560.68 "/>
    <path class="fil6" d="M7340.02 4570.82l-10.99 -20.28 -8.07 37.96 96.95 -44.88 -34.17 -18.41 8.35 21.5c-17.35,8.08 -34.7,16.11 -52.08,24.11z"/>
    <polygon class="fil6" points="7433.45,4714.96 7439.73,4712.06 7394.89,4615.2 7388.61,4618.1 "/>
    <path class="fil6" d="M7366.64 4628.33l8.35 21.5 -34.16 -18.41 96.95 -44.88 -8.07 37.96 -10.99 -20.28c-17.39,8 -34.73,16.03 -52.08,24.11z"/>
    <path class="fil1" d="M7465.92 4704.02l-58.26 26.97 -1.33 -3.76c-11.84,-33.45 -28.19,-57.25 -50.59,-68.04 -22.32,-10.74 -51.04,-8.67 -87.81,9.53l-3.43 1.7 -12.06 -28.12 251.56 -116.46 13.91 31.39 -3.51 1.39c-10.88,4.31 -20.37,9.28 -28.53,14.78 -18.85,12.71 -30.58,28.33 -35.7,45.46 -5.12,17.12 -3.67,35.86 3.85,54.83 3.31,8.34 7.78,16.71 13.37,25.01l2.39 3.54 -3.87 1.79zm-54.12 17.03l47.24 -21.87c-4.81,-7.57 -8.74,-15.2 -11.76,-22.81 -8.13,-20.49 -9.65,-40.86 -4.06,-59.59 5.6,-18.72 18.29,-35.7 38.61,-49.41 7.7,-5.19 16.49,-9.91 26.4,-14.08l-7.87 -17.74 -238.47 110.4 6.27 14.61c37.34,-17.73 67.07,-19.28 90.72,-7.89 23.43,11.27 40.54,35.11 52.91,68.39z"/>
   </g>
   <g id="_2539967282272">
    <path id="_33" class="fil6" d="M3026.76 5938.5l-50.35 -108.76c-2.04,-4.41 -7.24,-6.31 -11.65,-4.28l-106.73 49.41c-4.41,2.04 -6.31,7.24 -4.28,11.65l50.43 108.93c-0.79,1.39 -0.92,2.89 -0.3,4.25l3.69 7.96c1.02,2.2 3.74,3.2 5.94,2.19l9.83 -4.55 5.72 12.37c1.57,3.39 5.54,4.85 8.92,3.28l6.1 -2.82c3.39,-1.57 4.84,-5.53 3.28,-8.92l-5.73 -12.37 62.34 -28.86 5.73 12.37c1.57,3.39 5.53,4.85 8.92,3.28l6.1 -2.82c3.39,-1.57 4.84,-5.53 3.28,-8.92l-5.72 -12.37 9.99 -4.63c2.2,-1.02 3.2,-3.75 2.19,-5.95l-3.69 -7.96c-1.04,-1.37 -2.35,-2.41 -4.02,-2.46zm-154.62 -54.94l90.3 -41.8c2.2,-1.02 4.93,-0.02 5.95,2.19l1.02 2.2c1.02,2.2 0.02,4.93 -2.19,5.95l-90.3 41.8c-2.2,1.02 -4.93,0.02 -5.94,-2.19l-1.02 -2.2c-1.1,-2.37 -0.02,-4.93 2.18,-5.95zm51.39 99.02c-5.25,2.43 -11.28,0.08 -13.63,-5 -2.35,-5.08 0.17,-11.19 5.08,-13.46 4.91,-2.28 11.28,-0.08 13.63,5 2.35,5.08 0,11.11 -5.08,13.46zm-24.8 -30.9l-20.23 -43.71c-1.02,-2.2 -0.02,-4.93 2.19,-5.95l90.13 -41.72c2.2,-1.02 4.93,-0.02 5.94,2.18l20.31 43.88c1.02,2.2 0.02,4.93 -2.19,5.95l-90.13 41.72c-2.36,0.68 -5.09,-0.32 -6.03,-2.35zm105.61 -6.51c-5.25,2.43 -11.28,0.08 -13.63,-5 -2.35,-5.08 -0.08,-11.28 5,-13.63 5.08,-2.35 11.28,-0.08 13.63,5 2.35,5.08 0.08,11.28 -5,13.63z"/>
    <path id="_32_1_" class="fil6" d="M2878.82 5961.52l-7.96 3.69c-2.2,1.02 -4.93,0.02 -5.95,-2.19l-10.98 -23.72c-1.02,-2.2 -0.02,-4.93 2.19,-5.95l7.96 -3.69c2.2,-1.02 4.93,-0.02 5.94,2.18l10.98 23.72c0.85,2.28 -0.15,5.01 -2.18,5.95z"/>
    <path id="_32" class="fil6" d="M3025.53 5893.6l-7.96 3.69c-2.2,1.02 -4.93,0.02 -5.95,-2.19l-10.98 -23.72c-1.02,-2.2 -0.02,-4.93 2.18,-5.95l7.96 -3.69c2.2,-1.02 4.93,-0.02 5.94,2.18l10.98 23.72c0.85,2.28 0.02,4.93 -2.18,5.94z"/>
    <path id="_31_1_" class="fil6" d="M2884.26 6035.94l-12.03 5.57 -47.68 -103 7.96 -3.69c2.2,-1.02 3.2,-3.74 2.19,-5.95l-18.35 -39.64c-1.02,-2.2 -3.75,-3.2 -5.95,-2.18l-23.72 10.98c-2.2,1.02 -3.2,3.75 -2.19,5.95l18.35 39.64c1.02,2.2 3.75,3.2 5.95,2.19l7.96 -3.69 47.76 103.17 -12.03 5.57c-2.2,1.02 -3.2,3.75 -2.19,5.95 1.02,2.2 3.74,3.2 5.95,2.19l15.76 -7.3c0,0 0,0 0.17,-0.08 0,0 0,0 0.17,-0.08l15.58 -7.21c2.2,-1.02 3.2,-3.75 2.19,-5.95 -0.93,-2.45 -3.65,-3.45 -5.86,-2.43z"/>
   </g>
   <path class="fil4" d="M2683.96 5597.33l31.93 68.98 -11.33 5.25 -22.76 -49.17 -4.93 44.4 -1.38 0.64 -37.09 -25.07 22.81 49.27 -11.33 5.25 -31.93 -68.98 12.22 -5.66 36.77 24.86 4.89 -44.15 12.13 -5.62zm44.11 38.93c2.52,3.38 5.66,5.42 9.41,6.11 3.75,0.7 7.67,0.1 11.74,-1.79 5.65,-2.61 8.94,-6.61 9.88,-11.99l11.15 1.06c-1.55,9.41 -7.08,16.33 -16.61,20.74 -8.02,3.71 -15.62,4.26 -22.81,1.64 -7.19,-2.61 -12.52,-7.67 -15.99,-15.15 -3.41,-7.35 -3.82,-14.64 -1.26,-21.85 2.57,-7.21 7.66,-12.58 15.28,-16.11 7.23,-3.35 14.33,-3.56 21.3,-0.65 6.97,2.91 12.13,7.98 15.48,15.21 0.52,1.11 1.07,2.65 1.66,4.61l-39.22 18.15zm-4.11 -8.62l28.97 -13.41c-2.58,-3.67 -5.64,-5.93 -9.18,-6.76 -3.54,-0.83 -7.05,-0.44 -10.53,1.17 -3.94,1.82 -6.72,4.43 -8.35,7.81 -1.63,3.39 -1.93,7.12 -0.92,11.2zm70.24 -44.96l-12.22 5.66 10.95 23.65c0.94,2.04 2.08,3.29 3.41,3.74 1.33,0.46 2.92,0.33 4.77,-0.41 1.85,-0.74 4.1,-1.8 6.73,-3.17l4.42 9.56c-7.69,4.76 -13.86,6.75 -18.52,6 -4.66,-0.76 -8.47,-4.35 -11.45,-10.79l-10.95 -23.65 -9.07 4.2 -4.74 -10.25 9.07 -4.2 -4.93 -10.64 9.18 -8.08 6.39 13.8 12.22 -5.66 4.74 10.25zm19.88 -11.59c-0.13,-7.35 3.51,-12.75 10.93,-16.19l5.34 11.53c-4.19,1.62 -7.29,4.23 -9.3,7.83 -2,3.6 -1.83,7.93 0.51,12.99l11.5 24.83 -10.64 4.93 -22.81 -49.27 10.64 -4.93 3.83 8.28zm63.61 21.88c-7.22,3.35 -14.52,3.69 -21.89,1.04 -7.37,-2.65 -12.74,-7.62 -16.12,-14.91 -3.37,-7.29 -3.69,-14.6 -0.94,-21.94 2.75,-7.33 7.73,-12.68 14.96,-16.02 7.29,-3.38 14.61,-3.73 21.95,-1.06 7.33,2.67 12.69,7.64 16.07,14.93 3.37,7.29 3.7,14.6 0.99,21.92 -2.72,7.32 -7.72,12.67 -15.01,16.04zm-17.78 -9.72c4.32,1.59 8.66,1.38 12.99,-0.63 4.34,-2.01 7.3,-5.17 8.89,-9.5 1.58,-4.33 1.35,-8.72 -0.72,-13.19 -2.07,-4.47 -5.26,-7.49 -9.59,-9.08 -4.33,-1.59 -8.66,-1.38 -12.99,0.63 -4.33,2 -7.3,5.17 -8.89,9.5 -1.58,4.33 -1.34,8.72 0.72,13.19 2.07,4.46 5.26,7.49 9.59,9.08zm-141.2 202.09c-6.63,3.07 -12.97,4.17 -19,3.29 -6.03,-0.88 -11.18,-3.52 -15.46,-7.92l7.11 -10.23c6.35,6.48 13.85,7.71 22.52,3.69 4.27,-1.98 7.09,-4.3 8.44,-6.96 1.37,-2.65 1.43,-5.32 0.18,-8.02 -1.3,-2.81 -3.44,-4.43 -6.43,-4.84 -2.98,-0.4 -7.82,-0.13 -14.48,0.8 -3.77,0.31 -6.85,0.54 -9.28,0.73 -2.43,0.18 -5.12,0.04 -8.11,-0.46 -2.98,-0.49 -5.56,-1.63 -7.74,-3.42 -2.19,-1.78 -3.99,-4.22 -5.42,-7.3 -2.83,-6.11 -2.9,-11.96 -0.22,-17.54 2.68,-5.59 7.07,-9.8 13.18,-12.63 5.52,-2.56 10.97,-3.44 16.36,-2.67 5.39,0.78 10.29,3.02 14.71,6.71l-7 9.94c-5.87,-5.1 -12.19,-6.08 -18.96,-2.95 -3.28,1.52 -5.55,3.51 -6.81,5.97 -1.26,2.46 -1.28,5 -0.06,7.62 1.16,2.51 3.07,4.02 5.76,4.53 2.7,0.52 7.05,0.37 13.07,-0.49 3.04,-0.21 5.25,-0.38 6.65,-0.49 1.41,-0.09 3.42,-0.25 6.06,-0.44 2.62,-0.19 4.71,-0.08 6.26,0.34 1.54,0.43 3.26,1.04 5.19,1.85 1.91,0.81 3.55,1.99 4.89,3.54 1.36,1.56 2.56,3.46 3.61,5.72 2.89,6.24 2.93,12.22 0.11,17.96 -2.81,5.72 -7.86,10.28 -15.15,13.66zm40.86 -67.86l-12.22 5.66 10.95 23.65c0.94,2.04 2.08,3.28 3.41,3.74 1.33,0.46 2.92,0.32 4.77,-0.41 1.85,-0.74 4.1,-1.8 6.73,-3.18l4.42 9.56c-7.69,4.76 -13.86,6.76 -18.52,6 -4.66,-0.76 -8.47,-4.35 -11.45,-10.79l-10.95 -23.65 -9.07 4.2 -4.74 -10.24 9.07 -4.2 -4.93 -10.65 9.18 -8.07 6.39 13.8 12.22 -5.66 4.74 10.24zm41.96 -31.87l10.64 -4.93 22.81 49.27 -10.64 4.93 -3.29 -7.09c-1.42,7.44 -5.87,12.89 -13.36,16.36 -6.77,3.13 -13.71,3.3 -20.83,0.49 -7.13,-2.8 -12.36,-7.82 -15.7,-15.04 -3.37,-7.3 -3.82,-14.54 -1.33,-21.76 2.48,-7.22 7.11,-12.39 13.87,-15.52 7.49,-3.46 14.52,-3.37 21.07,0.3l-3.24 -7zm-10.08 48.28c4.34,1.63 8.74,1.4 13.21,-0.67 4.47,-2.07 7.49,-5.28 9.06,-9.64 1.57,-4.36 1.31,-8.8 -0.79,-13.33 -2.1,-4.54 -5.31,-7.61 -9.66,-9.23 -4.34,-1.62 -8.74,-1.4 -13.21,0.67 -4.47,2.07 -7.49,5.28 -9.06,9.64 -1.57,4.36 -1.31,8.8 0.79,13.33 2.1,4.54 5.31,7.61 9.65,9.23zm65.37 -61.43l-12.22 5.66 10.95 23.65c0.94,2.04 2.08,3.28 3.41,3.74 1.33,0.46 2.92,0.32 4.77,-0.41 1.85,-0.74 4.09,-1.8 6.72,-3.17l4.43 9.56c-7.69,4.76 -13.86,6.76 -18.52,6 -4.66,-0.75 -8.48,-4.35 -11.46,-10.79l-10.95 -23.65 -9.07 4.2 -4.74 -10.25 9.07 -4.2 -4.93 -10.64 9.18 -8.08 6.39 13.8 12.22 -5.66 4.74 10.25zm10.66 -28.8c-0.72,1.97 -2,3.38 -3.84,4.23 -1.84,0.85 -3.75,0.91 -5.72,0.19 -1.97,-0.72 -3.38,-2 -4.23,-3.84 -0.85,-1.84 -0.93,-3.74 -0.24,-5.69 0.69,-1.96 1.99,-3.38 3.9,-4.26 1.9,-0.88 3.83,-0.95 5.76,-0.21 1.94,0.74 3.33,2.03 4.19,3.87 0.85,1.84 0.91,3.74 0.19,5.72zm17.07 63.35l-22.81 -49.27 10.64 -4.93 22.81 49.27 -10.64 4.93zm46.8 -20.11c-7.22,3.34 -14.52,3.69 -21.89,1.04 -7.37,-2.65 -12.74,-7.62 -16.12,-14.91 -3.37,-7.29 -3.69,-14.6 -0.94,-21.94 2.75,-7.33 7.73,-12.68 14.96,-16.02 7.29,-3.38 14.61,-3.73 21.94,-1.06 7.33,2.67 12.69,7.64 16.07,14.93 3.37,7.3 3.7,14.6 0.99,21.92 -2.71,7.32 -7.72,12.67 -15.01,16.05zm-17.78 -9.72c4.32,1.59 8.65,1.38 12.99,-0.63 4.34,-2.01 7.3,-5.17 8.89,-9.5 1.59,-4.33 1.35,-8.72 -0.72,-13.19 -2.07,-4.46 -5.26,-7.49 -9.59,-9.08 -4.33,-1.59 -8.66,-1.38 -13,0.63 -4.33,2 -7.3,5.17 -8.88,9.5 -1.59,4.33 -1.35,8.72 0.72,13.19 2.07,4.46 5.27,7.49 9.59,9.08zm55.37 -70.63c5.65,-2.61 11.05,-2.92 16.21,-0.92 5.15,2 9.19,6.16 12.11,12.46l14 30.25 -10.64 4.93 -13.5 -29.17c-1.7,-3.68 -4,-6.05 -6.88,-7.11 -2.88,-1.06 -6.03,-0.8 -9.44,0.79 -3.74,1.73 -6.23,4.3 -7.45,7.69 -1.22,3.4 -0.72,7.49 1.5,12.29l12.22 26.41 -10.64 4.93 -22.81 -49.27 10.64 -4.93 2.92 6.31c0.88,-6.55 4.8,-11.44 11.76,-14.66z"/>
  </g>
 </g>
</svg>
