<?xml version="1.0" encoding="UTF-8"?>
<!DOCTYPE svg PUBLIC "-//W3C//DTD SVG 1.1//EN" "http://www.w3.org/Graphics/SVG/1.1/DTD/svg11.dtd">
<!-- Creator: CorelDRAW 2019 (64-Bit) -->
<svg xmlns="http://www.w3.org/2000/svg" xml:space="preserve" width="0.565197in" height="0.426965in" version="1.1" style="shape-rendering:geometricPrecision; text-rendering:geometricPrecision; image-rendering:optimizeQuality; fill-rule:evenodd; clip-rule:evenodd"
viewBox="0 0 14.76 11.15"
 xmlns:xlink="http://www.w3.org/1999/xlink"
 xmlns:xodm="http://www.corel.com/coreldraw/odm/2003">
 <defs>
  <style type="text/css">
   <![CDATA[
    .fil0 {fill:#96989A}
   ]]>
  </style>
 </defs>
 <g id="Layer_x0020_1">
  <metadata id="CorelCorpID_0Corel-Layer"/>
  <g id="_2540210894064">
   <path id="_33" class="fil0" d="M13.34 8.75l0 -7.62c0,-0.31 -0.25,-0.56 -0.56,-0.56l-7.48 0c-0.31,0 -0.56,0.25 -0.56,0.56l0 7.63c-0.08,0.06 -0.13,0.14 -0.13,0.24l0 0.56c0,0.15 0.13,0.28 0.28,0.28l0.69 0 0 0.87c0,0.24 0.19,0.43 0.43,0.43l0.43 0c0.24,0 0.43,-0.19 0.43,-0.43l0 -0.87 4.37 0 0 0.87c0,0.24 0.19,0.43 0.43,0.43l0.43 0c0.24,0 0.43,-0.19 0.43,-0.43l0 -0.87 0.7 0c0.15,0 0.28,-0.13 0.28,-0.28l0 -0.56c-0.02,-0.11 -0.07,-0.2 -0.17,-0.25zm-7.46 -7.3l6.33 0c0.15,0 0.28,0.13 0.28,0.28l0 0.15c0,0.15 -0.13,0.28 -0.28,0.28l-6.33 0c-0.15,0 -0.28,-0.13 -0.28,-0.28l0 -0.15c0,-0.17 0.13,-0.28 0.28,-0.28zm0.32 7.09c-0.37,0 -0.65,-0.3 -0.65,-0.65 0,-0.36 0.31,-0.64 0.65,-0.64 0.34,0 0.65,0.3 0.65,0.65 0,0.36 -0.3,0.64 -0.65,0.64zm-0.61 -2.45l0 -3.06c0,-0.15 0.13,-0.28 0.28,-0.28l6.32 0c0.15,0 0.28,0.13 0.28,0.28l0 3.07c0,0.15 -0.13,0.28 -0.28,0.28l-6.32 0c-0.15,-0.02 -0.28,-0.15 -0.28,-0.3zm6.27 2.45c-0.37,0 -0.65,-0.3 -0.65,-0.65 0,-0.36 0.3,-0.65 0.65,-0.65 0.36,0 0.65,0.3 0.65,0.65 0,0.36 -0.3,0.65 -0.65,0.65z"/>
   <path id="_32_1_" class="fil0" d="M4.19 6.13l-0.56 0c-0.15,0 -0.28,-0.13 -0.28,-0.28l0 -1.66c0,-0.15 0.13,-0.28 0.28,-0.28l0.56 0c0.15,0 0.28,0.13 0.28,0.28l0 1.66c-0.01,0.15 -0.14,0.28 -0.28,0.28z"/>
   <path id="_32" class="fil0" d="M14.47 6.13l-0.56 0c-0.15,0 -0.28,-0.13 -0.28,-0.28l0 -1.66c0,-0.15 0.13,-0.28 0.28,-0.28l0.56 0c0.15,0 0.28,0.13 0.28,0.28l0 1.66c-0.01,0.15 -0.13,0.28 -0.28,0.28z"/>
   <path id="_31_1_" class="fil0" d="M2.52 10.57l-0.84 0 0 -7.22 0.56 0c0.15,0 0.28,-0.13 0.28,-0.28l0 -2.78c0,-0.15 -0.13,-0.28 -0.28,-0.28l-1.66 0c-0.15,0 -0.28,0.13 -0.28,0.28l0 2.78c0,0.15 0.13,0.28 0.28,0.28l0.56 0 0 7.23 -0.84 0c-0.15,0 -0.28,0.13 -0.28,0.28 0,0.15 0.13,0.28 0.28,0.28l1.1 0c0,0 0,0 0.01,0 0,0 0,0 0.01,0l1.09 0c0.15,0 0.28,-0.13 0.28,-0.28 0.01,-0.17 -0.12,-0.3 -0.27,-0.3z"/>
  </g>
 </g>
</svg>
