<?xml version="1.0" encoding="UTF-8"?>
<!DOCTYPE svg PUBLIC "-//W3C//DTD SVG 1.1//EN" "http://www.w3.org/Graphics/SVG/1.1/DTD/svg11.dtd">
<!-- Creator: CorelDRAW 2019 (64-Bit) -->
<svg xmlns="http://www.w3.org/2000/svg" xml:space="preserve" width="0.505094in" height="0.483067in" version="1.1" style="shape-rendering:geometricPrecision; text-rendering:geometricPrecision; image-rendering:optimizeQuality; fill-rule:evenodd; clip-rule:evenodd"
viewBox="0 0 11.75 11.23"
 xmlns:xlink="http://www.w3.org/1999/xlink"
 xmlns:xodm="http://www.corel.com/coreldraw/odm/2003">
 <defs>
  <style type="text/css">
   <![CDATA[
    .fil0 {fill:#96989A}
   ]]>
  </style>
 </defs>
 <g id="Layer_x0020_1">
  <metadata id="CorelCorpID_0Corel-Layer"/>
  <path class="fil0" d="M8.7 3.95c-0.29,-1.32 -0.58,-2.63 -0.87,-3.95 -0.49,0 -0.98,0 -1.48,0 0.07,1.32 0.14,2.63 0.21,3.95l2.14 0zm2.91 0.55l-11.47 0c-0.08,0 -0.14,0.06 -0.14,0.14l0 0.74c0,0.08 0.06,0.14 0.14,0.14l0.74 0 0 1.1c0,0.08 0.06,0.14 0.14,0.14l0.74 0c0.06,0 0.12,-0.04 0.13,-0.1l0.29 -1.14 7.41 0 0.29 1.14c0.02,0.06 0.07,0.1 0.13,0.1l0.74 0c0.08,0 0.14,-0.06 0.14,-0.14l0 -1.1 0.74 0c0.08,0 0.14,-0.06 0.14,-0.14l0 -0.74c0,-0.08 -0.06,-0.14 -0.14,-0.14zm-10.17 6.74c1.12,0 2.24,0 3.37,0 0.09,-1.73 0.19,-3.46 0.28,-5.19l-2.49 0c-0.38,1.73 -0.77,3.46 -1.15,5.19zm3.97 -11.23c-0.49,0 -0.98,0 -1.48,0 -0.29,1.32 -0.58,2.63 -0.87,3.95l2.14 0c0.07,-1.32 0.14,-2.63 0.21,-3.95zm1.26 6.05c0.09,1.73 0.19,3.46 0.28,5.19 1.12,0 2.24,0 3.37,0 -0.38,-1.73 -0.77,-3.46 -1.15,-5.19l-2.49 0z"/>
 </g>
</svg>
