<?xml version="1.0" encoding="UTF-8"?>
<!DOCTYPE svg PUBLIC "-//W3C//DTD SVG 1.1//EN" "http://www.w3.org/Graphics/SVG/1.1/DTD/svg11.dtd">
<!-- Creator: CorelDRAW 2019 (64-Bit) -->
<svg xmlns="http://www.w3.org/2000/svg" xml:space="preserve" width="0.400039in" height="0.400039in" version="1.1" style="shape-rendering:geometricPrecision; text-rendering:geometricPrecision; image-rendering:optimizeQuality; fill-rule:evenodd; clip-rule:evenodd"
viewBox="0 0 185.73 185.73"
 xmlns:xlink="http://www.w3.org/1999/xlink"
 xmlns:xodm="http://www.corel.com/coreldraw/odm/2003">
 <defs>
  <style type="text/css">
   <![CDATA[
    .fil1 {fill:none;fill-rule:nonzero}
    .fil2 {fill:#FEFEFE;fill-rule:nonzero}
    .fil0 {fill:#282828;fill-rule:nonzero}
   ]]>
  </style>
 </defs>
 <g id="Layer_x0020_1">
  <metadata id="CorelCorpID_0Corel-Layer"/>
  <g id="_2561292679520">
   <path class="fil0" d="M92.86 0c51.29,0 92.86,41.58 92.86,92.86 0,51.29 -41.58,92.86 -92.86,92.86 -51.29,0 -92.86,-41.58 -92.86,-92.86 0,-51.29 41.58,-92.86 92.86,-92.86z"/>
   <path class="fil1" d="M92.86 0c51.29,0 92.86,41.58 92.86,92.86 0,51.29 -41.58,92.86 -92.86,92.86 -51.29,0 -92.86,-41.58 -92.86,-92.86 0,-51.29 41.58,-92.86 92.86,-92.86z"/>
   <path class="fil2" d="M50.44 46.47l15.72 0 69.4 92.79 -15.72 0 -69.4 -92.79zm-14.78 -7.4l44.39 59.35 -44.67 48.25 10.05 0 39.11 -42.25 31.6 42.25 34.21 0 -46.89 -62.69 41.58 -44.92 -10.05 0 -36.01 38.91 -29.1 -38.91 -34.21 0z"/>
  </g>
 </g>
</svg>
