<?xml version="1.0" encoding="UTF-8"?>
<!DOCTYPE svg PUBLIC "-//W3C//DTD SVG 1.1//EN" "http://www.w3.org/Graphics/SVG/1.1/DTD/svg11.dtd">
<!-- Creator: CorelDRAW 2019 (64-Bit) -->
<svg xmlns="http://www.w3.org/2000/svg" xml:space="preserve" width="0.728854in" height="0.728878in" version="1.1" style="shape-rendering:geometricPrecision; text-rendering:geometricPrecision; image-rendering:optimizeQuality; fill-rule:evenodd; clip-rule:evenodd"
viewBox="0 0 742.97 742.99"
 xmlns:xlink="http://www.w3.org/1999/xlink"
 xmlns:xodm="http://www.corel.com/coreldraw/odm/2003">
 <defs>
  <style type="text/css">
   <![CDATA[
    .fil1 {fill:#FEFEFE;fill-rule:nonzero}
    .fil0 {fill:#00B9E0;fill-rule:nonzero}
   ]]>
  </style>
 </defs>
 <g id="Layer_x0020_1">
  <metadata id="CorelCorpID_0Corel-Layer"/>
  <g id="_2289069900512">
   <path class="fil0" d="M742.97 371.49c0,205.16 -166.31,371.5 -371.47,371.5 -205.19,0 -371.5,-166.34 -371.5,-371.5 0,-205.18 166.31,-371.5 371.5,-371.5 205.16,0 371.47,166.32 371.47,371.5z"/>
   <path class="fil1" d="M576.75 244.2c-12.87,5.82 -27.09,9.34 -40.97,11.67 6.57,-1.09 16.25,-13.02 20.14,-17.85 5.92,-7.37 10.83,-15.74 13.6,-24.8 0.33,-0.71 0.61,-1.6 -0.11,-2.14 -0.88,-0.36 -1.44,-0.17 -2.16,0.19 -15.5,8.3 -31.52,14.32 -48.59,18.59 -1.41,0.36 -2.46,0 -3.34,-0.88 -1.41,-1.6 -2.75,-3.11 -4.24,-4.35 -7.18,-6.11 -14.87,-10.88 -23.54,-14.43 -11.41,-4.64 -23.84,-6.59 -36.1,-5.8 -11.93,0.78 -23.65,4.14 -34.25,9.66 -10.6,5.55 -20.07,13.25 -27.62,22.58 -7.79,9.61 -13.54,20.98 -16.5,33.03 -2.84,11.63 -2.61,23.14 -0.86,34.88 0.25,1.96 0.08,2.22 -1.68,1.96 -66.74,-9.94 -122.03,-33.8 -166.95,-84.97 -1.93,-2.23 -3.01,-2.23 -4.6,0.17 -19.63,29.46 -10.1,76.77 14.43,100.02 3.27,3.11 6.65,6.2 10.27,9.03 -1.32,0.27 -17.66,-1.51 -32.21,-9.03 -1.95,-1.24 -2.91,-0.52 -3.11,1.68 -0.16,3.2 0.11,6.12 0.55,9.58 3.75,29.84 24.44,57.45 52.75,68.23 3.36,1.43 7.08,2.66 10.71,3.27 -6.45,1.41 -13.1,2.44 -31.6,0.97 -2.31,-0.44 -3.2,0.71 -2.31,2.92 13.92,37.9 43.9,49.18 66.4,55.58 3.01,0.55 6.01,0.55 9.03,1.24 -0.18,0.27 -0.36,0.27 -0.54,0.52 -7.46,11.38 -33.29,19.85 -45.32,24.04 -21.9,7.65 -45.74,11.09 -68.86,8.81 -3.7,-0.53 -4.49,-0.51 -5.48,0 -1.03,0.62 -0.12,1.53 1.06,2.48 4.7,3.11 9.49,5.84 14.34,8.5 14.7,7.79 30.01,13.98 46.03,18.41 82.69,22.85 175.87,6.05 237.97,-55.64 48.78,-48.47 65.87,-115.29 65.87,-182.19 0,-2.61 3.09,-4.05 4.94,-5.44 12.68,-9.53 22.9,-20.93 32.37,-33.68 2.13,-2.86 2.14,-5.4 2.14,-6.45 0,-0.19 0,-0.36 0,-0.36 0,-1.07 -0.02,-0.74 -1.65,0z"/>
  </g>
 </g>
</svg>
