<?xml version="1.0" encoding="UTF-8"?>
<!DOCTYPE svg PUBLIC "-//W3C//DTD SVG 1.1//EN" "http://www.w3.org/Graphics/SVG/1.1/DTD/svg11.dtd">
<!-- Creator: CorelDRAW 2019 (64-Bit) -->
<svg xmlns="http://www.w3.org/2000/svg" xml:space="preserve" width="0.728854in" height="0.728878in" version="1.1" style="shape-rendering:geometricPrecision; text-rendering:geometricPrecision; image-rendering:optimizeQuality; fill-rule:evenodd; clip-rule:evenodd"
viewBox="0 0 742.97 742.99"
 xmlns:xlink="http://www.w3.org/1999/xlink"
 xmlns:xodm="http://www.corel.com/coreldraw/odm/2003">
 <defs>
  <style type="text/css">
   <![CDATA[
    .fil2 {fill:#FEFEFE}
    .fil1 {fill:#FEFEFE;fill-rule:nonzero}
    .fil0 {fill:#00AD64;fill-rule:nonzero}
   ]]>
  </style>
 </defs>
 <g id="Layer_x0020_1">
  <metadata id="CorelCorpID_0Corel-Layer"/>
  <g id="_2288928147520">
   <path class="fil0" d="M742.97 371.5c0,205.16 -166.31,371.49 -371.47,371.49 -205.19,0 -371.5,-166.34 -371.5,-371.49 0,-205.16 166.31,-371.5 371.5,-371.5 205.16,0 371.47,166.34 371.47,371.5z"/>
   <path class="fil1" d="M292.71 507.29l7.3 4.37c26.88,15.98 57.41,24.46 88.35,24.46 95.42,0 173.05,-77.63 173.05,-173.07 0,-95.42 -77.63,-173.04 -173.05,-173.04 -95.42,0 -173.04,77.62 -173.04,173.04 0,31.52 8.76,62.56 25.3,89.75l4.47 7.35 -17.28 64.53 64.89 -17.39zm-121.94 74.45l30.99 -115.58c-17.54,-31.65 -26.78,-67.11 -26.78,-103.1 0,-117.63 95.72,-213.37 213.38,-213.37 117.66,0 213.39,95.74 213.39,213.37 0,117.68 -95.74,213.42 -213.39,213.42 -35.32,0 -70.2,-8.93 -101.43,-25.87l-116.17 31.14z"/>
   <path class="fil2" d="M467.74 392.75c-8.78,-5.25 -20.2,-11.13 -30.56,-6.89 -7.94,3.25 -13,15.66 -18.14,22.02 -2.65,3.24 -5.8,3.76 -9.85,2.14 -29.8,-11.88 -52.62,-31.76 -69.07,-59.19 -2.79,-4.24 -2.29,-7.61 1.07,-11.55 4.96,-5.86 11.2,-12.49 12.53,-20.36 1.35,-7.87 -2.33,-17.12 -5.6,-24.13 -4.16,-8.94 -8.82,-21.76 -17.79,-26.82 -8.28,-4.68 -19.16,-2.06 -26.5,3.95 -12.71,10.33 -18.84,26.52 -18.65,42.59 0.06,4.57 0.61,9.11 1.68,13.5 2.56,10.6 7.45,20.5 12.97,29.91 4.16,7.1 8.67,13.96 13.52,20.6 15.94,21.65 35.78,40.47 58.73,54.52 11.47,7.03 23.83,13.18 36.62,17.43 14.34,4.73 27.13,9.66 42.63,6.74 16.23,-3.11 32.21,-13.13 38.66,-28.77 1.89,-4.62 2.86,-9.78 1.79,-14.68 -2.21,-10.1 -15.88,-16.11 -24.06,-21z"/>
  </g>
 </g>
</svg>
