<?xml version="1.0" encoding="UTF-8"?>
<!DOCTYPE svg PUBLIC "-//W3C//DTD SVG 1.1//EN" "http://www.w3.org/Graphics/SVG/1.1/DTD/svg11.dtd">
<!-- Creator: CorelDRAW 2019 (64-Bit) -->
<svg xmlns="http://www.w3.org/2000/svg" xml:space="preserve" width="1.69189in" height="1.69195in" version="1.1" style="shape-rendering:geometricPrecision; text-rendering:geometricPrecision; image-rendering:optimizeQuality; fill-rule:evenodd; clip-rule:evenodd"
viewBox="0 0 1691.9 1691.96"
 xmlns:xlink="http://www.w3.org/1999/xlink"
 xmlns:xodm="http://www.corel.com/coreldraw/odm/2003">
 <defs>
  <style type="text/css">
   <![CDATA[
    .fil1 {fill:#FEFEFE;fill-rule:nonzero}
    .fil0 {fill:#EF4E48;fill-rule:nonzero}
   ]]>
  </style>
 </defs>
 <g id="Layer_x0020_1">
  <metadata id="CorelCorpID_0Corel-Layer"/>
  <g id="_2046025561280">
   <path class="fil0" d="M1691.9 845.98c0,467.19 -378.73,845.98 -845.92,845.98 -467.25,0 -845.98,-378.78 -845.98,-845.98 0,-467.25 378.73,-845.98 845.98,-845.98 467.19,0 845.92,378.73 845.92,845.98z"/>
   <path class="fil1" d="M993.4 864.1l-232.97 115.25c-9.08,4.92 -40.13,-1.67 -40.13,-12.07l0 -236.55c0,-10.52 31.27,-17.11 40.41,-11.9l222.93 121.3c9.38,5.33 19.18,18.82 9.76,23.96zm305.48 -139.01c0,-112.14 -90.95,-203.13 -203.14,-203.13l-519.47 0c-112.18,0 -203.14,90.99 -203.14,203.13l0 241.73c0,112.22 90.96,203.14 203.14,203.14l519.47 0c112.19,0 203.14,-90.91 203.14,-203.14l0 -241.73z"/>
  </g>
 </g>
</svg>
